<svg height="293" viewBox="0 0 201 293" width="201" xmlns="http://www.w3.org/2000/svg" xmlns:xlink="http://www.w3.org/1999/xlink"><mask id="a" fill="#fff"><path d="m0 .23190219h200.977593v115.15852481h-200.977593z" fill="#fff" fill-rule="evenodd"/></mask><g fill="none" fill-rule="evenodd" transform="translate(0 4)"><path d="m80.320713 190.864993s-3.8843074-19.07503-1.602376-20.691825c2.2812704-1.615483 30.965386-5.734834 43.352069-.885106l1.929594 21.576931-38.137737 17.135007z" fill="#afb1b4"/><g transform="translate(2 3)"><path d="m157.898948 198.571768s-1.817521-8.893168-16.185349-13.681747c-14.359275-4.792528-25.305189-9.661421-25.305189-19.879118v-26.900041h-17.3509834-17.3503256v26.900041c0 10.217697-10.9459136 15.08659-25.3045316 19.879118-14.368485 4.788579-16.1860066 13.681747-16.1860066 13.681747l-39.59276413 90.395777h24.89142853l23.4764851-51.471624 9.702 51.471624h40.3637143 40.3643724l9.702-51.471624 23.476485 51.471624h24.891428z" fill="#bfa573"/><path d="m161.700285 60.6472096c0 49.8383464-17.6641 90.5327064-63.0778006 90.5327064-45.410412 0-62.2068638-41.182171-62.2068638-91.0205174 0-49.8482209 42.2601728-59.88751477 62.9725515-59.88751477 20.7130369 0 62.3121129 10.52710477 62.3121129 60.37532577" fill="#d0b37d"/></g><g transform="translate(0 83)"><path d="m77.6491997 41.6191566c6.8886983 4.1784593 14.2630918 4.7804687 21.7369967 4.6842 7.5187176 0 14.7224266-.9323563 21.8852756-4.6842-2.630794 3.1030187-10.046705 8.5290156-21.8477117 8.5290156-11.8016655 0-19.377059-5.2149969-21.7745606-8.5290156" fill="#494032"/><path d="m85.209897 12.8378334c0 6.8555219-5.6227278 12.41735-12.5483311 12.41735-6.9315344 0-12.543059-5.5618281-12.543059-12.41735 0-6.85684059 5.6115246-12.41537184 12.543059-12.41537184 6.9256033 0 12.5483311 5.55853125 12.5483311 12.41537184" fill="#896b4e"/><path d="m81.9823643 12.8346025c0 4.784425-3.8822656 8.6714406-8.6614525 8.6714406-4.784459 0-8.6614525-3.8870156-8.6614525-8.6714406 0-4.7765125 3.8769935-8.66352813 8.6614525-8.66352813 4.7791869 0 8.6614525 3.88701563 8.6614525 8.66352813" fill="#2a1d01"/><path d="m69.6712131 8.34458844c0 1.38205-1.124282 2.51287816-2.5029442 2.51287816-1.3839345 0-2.5082164-1.13082816-2.5082164-2.51287816s1.1242819-2.50166875 2.5082164-2.50166875c1.3786622 0 2.5029442 1.11961875 2.5029442 2.50166875" fill="#fff"/><path d="m115.905629 12.8378334c0 6.8555219 5.622727 12.41735 12.54899 12.41735 6.930875 0 12.5424-5.5618281 12.5424-12.41735 0-6.85684059-5.611525-12.41537184-12.5424-12.41537184-6.926263 0-12.54899 5.55853125-12.54899 12.41537184" fill="#896b4e"/><path d="m119.133491 12.8346025c0 4.784425 3.882265 8.6714406 8.661452 8.6714406 4.784459 0 8.660794-3.8870156 8.660794-8.6714406 0-4.7765125-3.876335-8.66352813-8.660794-8.66352813-4.779187 0-8.661452 3.88701563-8.661452 8.66352813" fill="#2a1d01"/><path d="m119.623535 8.34458844c0 1.38205 1.124282 2.51287816 2.502945 2.51287816 1.383934 0 2.508216-1.13082816 2.508216-2.51287816s-1.124282-2.50166875-2.508216-2.50166875c-1.378663 0-2.502945 1.11961875-2.502945 2.50166875" fill="#fff"/><path d="m163.488326 15.3665366s-.781594-1.7532782-5.531784-3.9318532c-6.528875-2.99422184-6.607298-2.83465309-30.300256-11.20278121l-27.167292 20.36281871-27.1679504-20.36281871c-23.6922984 8.36812812-23.7713803 8.20855937-30.3002557 11.20278121-4.7495312 2.178575-5.5311246 3.9318532-5.5311246 3.9318532l-37.49012461 98.6728314h28.21974101l21.4193508-45.9136002 3.4829016 45.9136002 46.3393968 1.2871-.0006591.063959 1.0287242-.032309 1.028066.032309v-.063959l46.338738-1.2871 3.48356-45.9136002 21.419351 45.9136002h28.219082z" fill="#0095da" mask="url(#a)" transform="translate(0 95.609375)"/></g><g transform="translate(36)"><path d="m43.0405051 170.090422c.6473737 7.817615 21.8577272 28.710826 21.8577272 28.710826s22.4335354-18.613652 21.4624748-29.68778l10.605505 12.424954c0 8.367853-19.9582828 33.745541-19.9582828 33.745541l-11.9934849-16.037504-11.640909 16.688807s-20.3200506-24.210495-20.3200506-35.851376z" fill="#f4f4f4"/><path d="m96.8423182 181.538488c0 8.367853-19.9655051 33.745541-19.9655051 33.745541l-11.9934848-16.037504-11.6409091 16.688807s-20.3134849-24.210495-20.3134849-35.851376" stroke="#dbdcdd"/><path d="m129.157364 44.1085211c-.435303-2.0126972-.925101-3.9831193-1.496313-5.9053211-.537071-1.8052844-1.191667-5.9396697-1.191667-5.9396697s-1.028839-.2265688-1.224495-.6651743c-.489798-1.0951927-.944142-4.5379817-.944142-4.5379817s-3.177121-2.7928073-4.777828-4.6938715c-1.119444-1.3290276-4.522424-5.4548257-4.522424-5.4548257l-1.543586.1459816-4.123232-2.9546422s-1.931616-3.2895413-3.303839-4.39926604c-.505555-.40954129-1.676212.49673394-2.199495.08256881-.799697-.63214679-2.47-1.86869725-2.47-1.86869725l-1.854141-2.38458716-5.5230303-1.48491743s-1.2684848-1.00007339-1.930303-1.10972477c-1.3157576-.2186422-4.1278283.32895413-4.1278283.32895413l-1.56-1.35478899-5.0266667.6532844-3.535606-1.82444036-1.4385354 1.12822018-3.3563636-.41812844s-1.3446465-.81379817-1.9966162-.88117431c-1.0038889-.10370643-2.8711616.39831192-2.8711616.39831192s-2.4516162-.81577981-3.4108586-.81577981c-1.69 0-6.3404545 1.14473394-6.3404545 1.14473394l-2.2881313-.3626422-3.7778788 1.224s-1.9526263-.34414679-2.884293-.18495413c-1.110909.18891743-3.1377272 1.21277064-3.1377272 1.21277064l-3.5054041.06077065-1.5133838.69291743-3.1081818-.42473395-2.4798485 1.19295413s-1.4378788-.16579817-2.1292424.13805505c-.2783839.12220183-.8266162-.27677065-.8266162-.27677065l-3.4561616 2.67787156-2.9072727 2.12433028-1.5160101.01651376s-.9218182 1.93541281-1.6827778 2.54708261c-.9690909.7787889-3.2230808 1.5172844-4.1455556 2.167266-.6716666.4736147-.0912626.9875229-.8522222 1.531156-.3374747.2411009-1.9939899.4874862-2.3393434.7391559-.539697.3917065.2284848.7946422-.3125253 1.2048441-2.0734343 1.5727706-4.0739899 3.247266-5.3720202 4.7883303-.86141412 1.0231926-1.65257574 2.0774311-2.38070705 3.1613944-1.4529798 2.1633028-2.65580808 4.4422019-3.66888889 6.8201835-.37621212.8844771-.72681818 1.7821652-1.05378788 2.6917432-1.04393939 2.9031192-1.85414141 5.9357064-2.53106061 9.0686972-.99863636 4.6172477-.2120707 9.4504954-.38146464 14.4013211-1.01702021 29.7914862 7.38833333 46.7682938 7.38833333 46.7682938 6.11656564-4.539303-1.63616162-41.7699085 16.91378784-54.0944589 5.9064647-3.9236698 36.9607071-4.2856514 40.5068182-4.2856514 3.5467677 0 34.4506566.4068991 40.2894949 4.2856514 18.54995 12.3245504 10.796566 49.5551559 16.913788 54.0944589 0 0 8.404697-16.9768076 7.387677-46.7682938-.168738-4.9508257.617828-9.7840734-.380808-14.4013211" fill="#272524"/><path d="m122.139333 84.813622s-1.145707-1.9235229-1.497626-5.8346422c-.916566-10.184367-3.112121-28.9882569-7.031818-32.2454312-5.424546-4.5089174-16.0924244-1.944-18.8053536-2.0622385-2.7122728-.1188991-12.1543435-2.5649174-14.2107071-5.4125505 0 0-8.6108586 2.9658716-15.864596 2.9658716s-11.3809091-2.8469725-11.3809091-2.8469725-7.075808 3.677945-9.3166666 3.677945-5.6609091-1.779523-5.6609091-1.779523-.3519192 2.0014679-2.7122728 3.0847707c-4.1974242 1.9255046-14.7412121-.5938349-16.745707 2.1355596-2.0051515 2.728734-8.3731818 10.0846239-8.7270707 23.2540184-.35388892 13.170055-3.06616165-1.4234863-3.06616165-2.728734 0-1.3045871 1.65126263-20.6441835 2.47656566-21.2373578.82530299-.5931743 3.77393939-2.2544587 3.77393939-2.2544587s-3.82909091-7.4206239 2.4765657-13.1693945c1.7819192-1.6249541 10.495202 0 10.495202 0s-.8863637-10.4406605 2.6229798-12.101945c3.51-1.6606238 7.9746464 1.9961835 12.9409091-.4749357 7.8196969-3.8886606 10.9705555 6.7633761 13.6828283 4.8649541 2.7122727-1.8977615 3.6583838-11.2822018 10.1419696-7.8308257 12.894293 6.866422 7.6654041-.1188991 16.6281819 1.0681101 8.9627777 1.1863486 5.8276767 5.3801835 12.3683838 9.1334312 6.7856064 3.8932844 11.9252024.9511927 13.9296974 3.0867523 2.005151 2.1362202 2.476565 10.5595596 10.731565 13.8814679 8.255 3.3219082 3.420051 33.4582018 3.77394 35.5937614.353889 2.1355597.745858 7.232367-1.02293 7.232367" fill="#393735"/></g><g fill="#4f4c49" transform="translate(58 7)"><path d="m29.4213921 30.8851554s-6.2757223 3.959-8.7044604 3.85725c-2.4293968-.1010893-5.7283174-4.5681786-6.0524127-9.5426965 0 0 3.2178969 6.5992143 5.0399445 7.0048929s1.6198175-3.959 3.2389762-3.1476429c1.6198174.8126786 2.8819444 1.4159107 3.7448809.9150893 2.1665635-1.2566786-.978873-17.0318928-5.8706031-25.07674999 0 0 12.2471111 19.59348219 8.6036746 25.98985719"/><path d="m59.051404 19.8201071s-.2694207 10.4273929-3.9543572 10.878c-3.6849365.4506072 0-30.64789281 0-30.64789281s-3.0558492 20.19142861-3.2350238 22.71535711c-.1798333 2.5239286-1.6178413 3.87575-2.5163492 3.9662679-.8991667.0905178.1798333 3.9662678-.8991667 4.5067321-1.0783412.5417857-4.1315555 1.2619643-4.9417936-3.15425 0 0-.1804921 4.4162143 3.0545317 5.0471965 3.2356826.6316428 10.6944842-.9917322 11.9533175-2.4334108 1.2575159-1.4423392 1.3477619-8.0547678.5388413-10.878"/><path d="m.52316349 35.2308054c1.53879365-.0938215 3.05650794-.0944822 4.56829365-.0898572 1.50980953-.0066071 3.01566667.0303929 4.48990476-.0330357.7272381-.0218036 1.4847778-.0621071 2.1046429-.2213393.578365-.0865536.9426428-.4935536 1.1567301-1.0888571.1811508-.6085179.1989365-1.3438929.107373-2.0700179-.0757539-.7340536-.239119-1.4727321-.4630873-2.2100893.4861429.6065357.8293413 1.3194465 1.0941508 2.0667143.2470238.7512322.4084127 1.5711786.2608572 2.455875-.0895873.4373929-.2542699.8992322-.5849524 1.2745179-.1673175.1750893-.3366111.3600893-.5592619.4796785-.2213333.1189286-.4644048.2517322-.6613651.2933572-.8444921.2550357-1.6185.2887321-2.40304761.3402678-1.56053175.0396429-3.09207937-.0574821-4.61045238-.2623035-1.51771429-.1995357-3.0229127-.4849643-4.49978572-.9349107"/><path d="m63.2504794 12.8116464c-.2569048 3.4998036-.4802143 6.9896965-.5144683 10.4657143.0006587 1.7356964.0197619 3.4707322.2094762 5.17075.0895873.8496786.2140873 1.6901072.4169762 2.492875.2022302.7961607.4920714 1.5738214.9255159 2.1327857.1956428.2385179.5309365.494875.8438333.7459465.3280476.2160535.6574127.4327678 1.0091746.5721785.6989127.300625 1.4373492.3845357 2.2047698.2385179.3827223-.0541786.7779604-.1797143 1.1903254-.300625.4143413-.1228929.8523969-.2834464 1.4189048-.3211072.1356984-.0158571.2891825-.0039642.449254.0257679.156119.0125536.3102619.0753214.4617698.1493214.1666587.0687143.2628333.1499822.3715238.2292679.1086905.0713571.2147461.1869821.3168492.2847678.2022302.2186965.3530794.5424465.4169762.7340536.0803651.189625.0355714.1209107.1495318.2041607.246365.1162857.6969365.1744286 1.1007381.21275.4176349.0330357.854373.0555 1.2739841.0667322.8260476.0317143 1.6632936-.0951429 2.4781428-.3184643 1.6376032-.4420179 3.1915477-1.2705536 4.5854207-2.3250536-1.2048175 1.2765-2.7054048 2.2946607-4.3871429 2.9428214-.8438333.3131786-1.7416825.5232858-2.663246.5662322-.4518889.0297321-.8879683.02775-1.3418333.0204821-.4617699-.0297321-.8998254-.0171785-1.4683096-.2259643-.1429444-.0607857-.3082857-.1539464-.4459603-.3045892-.0737778-.0713572-.1152778-.1513036-.1686349-.2299286l-.0961746-.1955714c-.092881-.2160536-.1436032-.28675-.2404365-.3904822-.0632381-.0436071-.1007857-.0977857-.1791746-.1420536-.0698254-.0469107-.1455794-.1030714-.1877381-.1057142-.0467699-.0191608-.0922222-.0469108-.1580953-.0409643-.055992-.0099107-.1185714-.0178393-.2015714-.0013215-.6350159.0687143-1.5124444.5199822-2.4471825.6963929-.9439603.217375-2.0170318.1076964-2.9234445-.2755179-.4630873-.1810357-.8708412-.4387142-1.2726666-.7010178-.3708651-.2926964-.7476588-.5490536-1.1165477-.9844643-.6310634-.8404286-.9228809-1.7555179-1.1461904-2.6481429-.2101349-.8979107-.3464921-1.7945-.4084127-2.6877857-.1251588-1.7872321-.1152778-3.56125.0059285-5.323375.2298969-3.5222678.7417302-7.0081964 1.538135-10.429375"/></g></g></svg>