<svg height="293" viewBox="0 0 201 293" width="201" xmlns="http://www.w3.org/2000/svg" xmlns:xlink="http://www.w3.org/1999/xlink"><linearGradient id="a" x1="49.999848%" x2="49.999848%" y1="100%" y2="-.000216%"><stop offset="0" stop-color="#fdddc8"/><stop offset="1" stop-color="#e9cdba"/></linearGradient><mask id="b" fill="#fff"><path d="m98.1378533.55043478h-17.2329733v26.64847822c0 10.1230435-10.8708133 14.9452174-25.1317733 19.6936957-14.2714134 4.743913-16.0765734 13.5534783-16.0765734 13.5534783l-39.32282663 89.553913h24.72213333l23.31616-50.9921739 9.6360133 50.9921739h40.08984 40.0898397l9.636014-50.9921739 23.31616 50.9921739h24.722786l-39.32348-89.553913s-1.80516-8.8095653-16.075266-13.5534783c-14.262267-4.7484783-25.13308-9.5706522-25.13308-19.6936957v-26.64847822z" fill="#fff" fill-rule="evenodd"/></mask><mask id="c" fill="#fff"><path d="m.64955625.01973986h16.18771875v110.08048814h-16.18771875z" fill="#fff" fill-rule="evenodd"/></mask><mask id="d" fill="#fff"><path d="m.51699375.01973986h16.18771875v110.08048814h-16.18771875z" fill="#fff" fill-rule="evenodd"/></mask><mask id="e" fill="#fff"><path d="m.4958873.21639286h135.8013617v90.41493214h-135.8013617z" fill="#fff" fill-rule="evenodd"/></mask><mask id="f" fill="#fff"><path d="m0 .45867217h100.310785v102.52347083h-100.310785z" fill="#fff" fill-rule="evenodd"/></mask><mask id="g" fill="#fff"><path d="m0 292h200.643831v-291.78360714h-200.643831z" fill="#fff" fill-rule="evenodd"/></mask><g fill="none" fill-rule="evenodd"><g transform="translate(66 167)"><path d="m8.1437 33.3659654s-11.00434862-16.7914231-7.35794495-20.6975c3.64640367-3.90607694 11.48115595-11.55084617 34.52554125-12.25373078 23.0450367-.70353847 34.3060276 9.0695 35.0805138 18.39138458.7744862 9.3225385-62.2481101 14.5598462-62.2481101 14.5598462" fill="#727678"/><path d="m12.2199468 16.2484692s-.3914771-6.54369228 1.6290917-8.11553843c2.0205688-1.57119231 6.8700643-3.39673077 6.8700643-3.39673077l30.9442752 1.4195s3.6066697-.36484615 4.0105229 2.50553846c.4045046 2.86907694-1.6896697 6.67250004-1.6896697 6.67250004z" fill="#868e95"/></g><path d="m98.1378533.55043478h-17.2329733v26.64847822c0 10.1230435-10.8708133 14.9452174-25.1317733 19.6936957-14.2714134 4.743913-16.0765734 13.5534783-16.0765734 13.5534783l-39.32282663 89.553913h24.72213333l23.31616-50.9921739 9.6360133 50.9921739h40.08984 40.0898397l9.636014-50.9921739 23.31616 50.9921739h24.722786l-39.32348-89.553913s-1.80516-8.8095653-16.075266-13.5534783c-14.262267-4.7484783-25.13308-9.5706522-25.13308-19.6936957v-26.64847822z" fill="url(#a)" mask="url(#b)" transform="translate(2 143)"/><g transform="translate(37 7)"><path d="m42.933975 170.899137s17.7778125 24.827927 40.5897187-.649526l-21.721875 58.482114z" fill="#fff"/><path d="m125.632697 60.0488597c0 49.3216443-17.622281 89.5935713-62.9284689 89.5935713-45.30225 0-62.05959372-40.754674-62.05959372-90.0763185 0-49.3307653 42.16012502-59.26519359 62.82346872-59.26519359 20.664 0 62.1645939 10.41717539 62.1645939 59.74794079" fill="#fedec8"/><path d="m40.9844531 120.072833c6.8597813 4.128433 14.2032188 4.723886 21.6450938 4.628118 7.4878125 0 14.6612812-.921193 21.7934062-4.628118-2.61975 3.065868-10.0045312 8.427553-21.756 8.427553-11.7514687 0-19.2950625-5.15256-21.6825-8.427553" fill="#a59088"/><path d="m48.5134125 91.6360938c0 6.7734442-5.599125 12.2686832-12.4963125 12.2686832-6.9024375 0-12.4904063-5.495239-12.4904063-12.2686832 0-6.7740956 5.5879688-12.2667289 12.4904063-12.2667289 6.8971875 0 12.4963125 5.4926333 12.4963125 12.2667289" fill="#aab8ba"/><path d="m45.2991656 91.6335531c0 4.7271435-3.8659687 8.5669699-8.6250937 8.5669699-4.764375 0-8.6244375-3.8398264-8.6244375-8.5669699 0-4.7193258 3.8600625-8.5604556 8.6244375-8.5604556 4.759125 0 8.6250937 3.8411298 8.6250937 8.5604556" fill="#2a1d01"/><path d="m33.0396281 87.1966442c0 1.3661549-1.1195625 2.4834442-2.4924375 2.4834442-1.378125 0-2.4976875-1.1172893-2.4976875-2.4834442 0-1.3655034 1.1195625-2.4710661 2.4976875-2.4710661 1.372875 0 2.4924375 1.1055627 2.4924375 2.4710661" fill="#fff"/><path d="m79.0799625 91.6360938c0 6.7734442 5.599125 12.2686832 12.4963125 12.2686832 6.9024375 0 12.490406-5.495239 12.490406-12.2686832 0-6.7740956-5.5879685-12.2667289-12.490406-12.2667289-6.8971875 0-12.4963125 5.4926333-12.4963125 12.2667289" fill="#aab8ba"/><path d="m82.294275 91.6335531c0 4.7271435 3.8659687 8.5669699 8.6250937 8.5669699 4.7643751 0 8.6244376-3.8398264 8.6244376-8.5669699 0-4.7193258-3.8600625-8.5604556-8.6244376-8.5604556-4.759125 0-8.6250937 3.8411298-8.6250937 8.5604556" fill="#2a1d01"/><path d="m82.7822625 87.1966442c0 1.3661549 1.1202188 2.4834442 2.4924375 2.4834442 1.378125 0 2.4976875-1.1172893 2.4976875-2.4834442 0-1.3655034-1.1195625-2.4710661-2.4976875-2.4710661-1.3722187 0-2.4924375 1.1055627-2.4924375 2.4710661" fill="#fff"/><path d="m37.8583406 126.898786c.2205-1.052141.5709375-2.0463.9666563-3.015704.396375-.970054.8386875-1.917307 1.3348125-2.836546.4915312-.921845 1.0375312-1.815025 1.6288125-2.682146.5899687-.867772 1.231125-1.706228 1.9858125-2.475626-.280875 1.03846-.669375 2.01112-1.0887188 2.966191-.4219687.954419-.8728125 1.891248-1.3682812 2.803973-.490875.91533-1.021125 1.810464-1.5861563 2.68866-.5650312.878848-1.1655 1.73815-1.8729375 2.551198" fill="#e4c8b6"/><path d="m87.5907375 126.898786c-.6523125-.70425-1.2002813-1.452801-1.7121563-2.221549-.511875-.768095-.9902812-1.552478-1.4273437-2.359011-.4423125-.803927-.8386875-1.631959-1.204875-2.478884-.3642188-.847576-.6949687-1.715348-.9154687-2.647617.6949687.663859 1.2764062 1.39482 1.8105937 2.153795.5348438.757672 1.0257187 1.541403 1.46475 2.354451.441.810442.8327813 1.647594 1.1773125 2.508852.3425625.860606.6418125 1.745968.8071875 2.689963" fill="#e4c8b6"/><path d="m74.3833781 134.926461c-1.8460312.582424-3.7570312.960934-5.6824687 1.204588-1.92675.244956-3.871875.323786-5.8124063.321831-1.9411875-.039089-3.8810625-.160264-5.8045312-.411736-.96075-.128341-1.918875-.278833-2.8710938-.456688-.475125-.095116-.9489375-.196095-1.4207812-.304241l-.706125-.170036-.3510938-.093814-.1745625-.049512-.0872812-.025408c-.0170625-.001954-.0905625-.031271-.034125-.014984l.6615.115964.7146562.117266c.47775.07492.9555.141371 1.4345625.201308.9555.13225 1.9142813.24235 2.874375.327694 1.9195313.176552 3.8436563.300333 5.7690938.30359 1.9254375.039741 3.850875-.044952 5.76975-.212382.9594375-.081435 1.91625-.196096 2.869125-.343331.9555-.131599 1.903125-.315316 2.8514062-.510109" fill="#e4c8b6"/><path d="m51.6578344 182.771525-1.9516875-1.648246-11.79675-5.505663s-27.0539063 10.817184-30.16781252 12.773581l7.42612502 29.133562-2.1511875 22.163372 8.4105 46.311804h42.3661875v-78.257157z" fill="#b3ccdb"/><path d="m63.8135531 239.310337c-10.23225.568091-30.8063437 1.784406-35.2964062 2.611786l-.16275 4.984478c6.5697187-.902952 24.8941875-1.929685 35.4591562-2.471717z" fill="#e9eef2"/><path d="m52.85175 185.227933c-8.82 2.852182-28.3434375 9.269266-32.4863438 11.503845l1.3971563 4.790988c6.3347812-3.052187 24.1230938-9.286205 33.009375-12.344255z" fill="#e9eef2"/><path d="m63.8135531 228.798241c-8.0502187.745294-31.1489062 2.964888-36.0025312 4.336255l.3077812 4.977964c7.0474688-1.647595 26.6483438-3.949276 35.69475-4.96298z" fill="#e9eef2"/><path d="m52.4182312 285.373992h5.9239688s-2.33625-73.192546-8.922375-104.367849l-6.013875-2.80723c3.0023437 10.642587 7.13475 37.814542 9.0122812 107.175079" fill="#ccd8e0"/><path d="m38.6385562 286c-.8170312-20.565941-3.9263437-86.500342-10.8504374-106.300793-1.5861563.647572-3.2563125 1.333581-4.9304063 2.025454 2.9183438 7.548054 7.7037188 31.071066 9.90675 104.275339z" fill="#ccd8e0"/><path d="m5.62065.01973986c-.94959375.38111618-2.7313125 1.09774488-4.97109375 2.00460593 2.9203125 6.81969931 8.0548125 29.92120271 10.28671875 108.07607721h5.901c-.5952188-16.0609519-3.7137188-90.0867424-11.216625-110.08068314" fill="#ccd8e0" mask="url(#c)" transform="translate(31.5 175.899772)"/><path d="m63.7930125 212.072844c-.1745625-1.83457-.3898125-3.650246-.5768438-5.445727l-6.8210625-14.037453c2.2581563 16.327408 4.52025 43.839435 5.775 90.193585h1.5887813z" fill="#ccd8e0"/><path d="m46.9054688 176.823572s-23.9918438 8.618437-29.287125 11.696032l1.5500625 4.74343c8.44725-4.403357 30.6140624-12.952738 30.6140624-12.952738z" fill="#e9eef2"/><path d="m57.5083031 194.812451c-7.602 2.047603-30.3495937 8.256214-34.936125 10.453006l1.162875 4.852228c7.0605938-2.993553 27.8151563-9.085549 35.6895-11.361171z" fill="#e9eef2"/><path d="m62.2238531 204.51404c-7.977375 1.824797-32.6563125 7.52395-37.4653125 9.29728l.6995625 4.939526c7.19775-2.287349 38.3348438-9.327248 38.3348438-9.327248v-1.68082z" fill="#e9eef2"/><path d="m63.7609875 217.524564c-8.4190313 1.156378-33.0034688 4.590984-37.8912188 5.916096l.2539688 4.981221c7.042875-1.568766 27.9030937-4.423554 37.6694062-5.725212z" fill="#e9eef2"/><g fill="#f2f6f9"><path d="m46.9808063 197.697011c.186375 1.441076.3720937 2.960328.5571562 4.563622 1.7364375-.521836 3.4138125-1.021521 4.9802813-1.484073-.18375-1.515344-.37275-2.999416-.567-4.45287-1.5336563.419554-3.213.883408-4.9704375 1.373321"/><path d="m48.1375125 207.78799c.165375 1.626096.3300938 3.3219.4935 5.095231 1.73775-.405221 3.4479375-.800019 5.08725-1.176575-.1712813-1.721863-.3484687-3.424833-.5315625-5.105002-1.6104375.375905-3.310125.774611-5.0491875 1.186346"/><path d="m37.5661125 205.327739c1.63275-.515973 3.3035625-1.035203 4.9697812-1.547267-.1955625-1.587658-.396375-3.144697-.6030937-4.663298-1.6603125.471672-3.3304688.953116-4.9619062 1.429349.1988437 1.504268.3976874 3.094533.5952187 4.781216"/><path d="m26.7889125 199.354964c1.4877187-.599362 3.1335937-1.239116 4.8759375-1.901672-.2579063-1.68082-.5230313-3.302355-.7966875-4.850924-1.7600625.623467-3.4131563 1.22348-4.885125 1.777239.2670938 1.513389.5355 3.167499.805875 4.975357"/><path d="m35.5101469 190.985653c.2579062 1.445636.5177812 3.021568.7789687 4.741476 1.6150313-.59415 3.2609063-1.191558 4.8936563-1.777239-.2487188-1.603945-.5046563-3.148606-.7678125-4.62877-1.6314375.547895-3.2825625 1.107517-4.9048125 1.664533"/><path d="m49.2068063 219.576337c.1319062 1.633262.2625 3.3219.391125 5.067217 1.7869687-.252775 3.5463749-.498383 5.2322812-.732265-.1410938-1.697107-.2874375-3.392259-.438375-5.079594-1.6576875.236487-3.404625.486656-5.1850312.744642"/><path d="m45.5439469 235.34927c-.1168125-1.557691-.2369063-3.118638-.3615938-4.682192-1.7948437.19805-3.5713125.400661-5.2716562.603923.1089375 1.555736.2165625 3.155121.3222187 4.797503 1.7226563-.24235 3.509625-.48405 5.3110313-.719234"/><path d="m60.1189312 233.567926c1.3367813-.153749 2.5626563-.292515 3.6415313-.414341v-4.35124c-1.0703437.098374-2.4025313.223458-3.9171563.368738.0931875 1.430652.1850625 2.897135.275625 4.396843"/><path d="m58.4138625 210.635026c1.93725-.439749 3.6677812-.828683 5.0892187-1.147257-.0945-.955071-.1830937-1.976593-.280875-2.919937l-1.0270312-2.048255c-1.1326875.25929-2.5895625.593499-4.2741563.982433.165375 1.637171.3300938 3.347959.4928438 5.133016"/><path d="m50.2812187 234.744891c1.8309375-.22867 3.6284063-.446916 5.33925-.650178-.107625-1.487981-.2191875-2.981826-.3346875-4.480232-1.6865625.167431-3.4748437.348542-5.3011875.538775.1004063 1.493845.1995 3.021567.296625 4.591635"/><path d="m38.1060094 210.203681c.1693125 1.613717.3373125 3.299749.504 5.06461 1.6504687-.402615 3.3554062-.812396 5.0747812-1.220875-.1745625-1.711439-.354375-3.402683-.5400937-5.06917-1.7069063.411084-3.402.82282-5.0386875 1.225435"/><path d="m44.74155 225.341029c-.1450312-1.687987-.2946562-3.37011-.4495312-5.041809-1.7521875.260592-3.4899375.523139-5.1640313.782428.1365 1.619581.2710313 3.298447.4049063 5.03334 1.6944375-.256684 3.4446562-.516624 5.2086562-.773959"/><path d="m32.9470312 206.814548c-.2054062-1.663881-.4160625-3.29584-.6332812-4.882196-1.8046875.548547-3.4814063 1.07364-4.9435313 1.555084.2086875 1.570069.4167188 3.237859.6240938 5.009235 1.4916562-.528351 3.1644375-1.095139 4.9527187-1.682123"/><path d="m45.9095437 240.389971c-1.84275.121827-3.6579375.248214-5.3851875.37395.0971251 1.635216.1935938 3.308218.2874375 5.02487 1.7580938-.122478 3.588375-.243654 5.4409688-.361572-.11025-1.66323-.2244375-3.34405-.3432188-5.037248"/><path d="m45.4721531 187.63789c.2434688 1.386351.4895625 2.890619.7363125 4.52323 1.7233125-.607832 3.37575-1.185695 4.900875-1.716-.2349375-1.527071-.4770937-3.000069-.7258125-4.417039-1.4896875.484702-3.152625 1.02934-4.911375 1.609809"/><path d="m44.4477469 182.401875c1.8880312-.748552 3.3987187-1.339444 4.3253437-1.700365l-5.3648437-2.50364c.3340312 1.18374.6818437 2.574652 1.0395 4.204005"/><path d="m59.0537719 218.175393c.1305937 1.646943.2592187 3.347308.385875 5.105654 1.5894375-.21564 3.0810937-.414342 4.3535625-.584378v-5.172105c-1.2508125.171991-2.8934063.392843-4.7394375.650829"/><path d="m56.7226406 195.024898c.1785 1.380488.357 2.831987.5348438 4.361012.7868437-.22867 1.5047812-.437795 2.1413437-.621513l-1.9169062-3.944064c-.238875.063846-.4921875.132903-.7592813.204565"/><path d="m34.6081313 186.380728c1.6609687-.686661 3.2983125-1.35508 4.8490312-1.981805-.343875-1.60199-.69825-3.088669-1.0650937-4.445703-1.5507188.579166-3.2136563 1.207193-4.9094063 1.856719.3602813 1.269085.737625 2.779868 1.1254688 4.570789"/><path d="m25.2229687 190.392676c1.5257813-.682101 3.1532813-1.388957 4.822125-2.099071-.3530625-1.706228-.7205625-3.275645-1.0985625-4.721932-1.7016562.671677-3.3534375 1.33749-4.8674062 1.968123.3675 1.353777.75075 2.957071 1.1438437 4.85288"/><path d="m35.0199281 226.818978c-.1476562-1.679517-.29925-3.353171-.4560937-5.013795-1.9365938.315968-3.6861563.614997-5.1430313.88471.1397813 1.608506.2775938 3.276297.4134375 5.004023 1.5323438-.275576 3.2858438-.570045 5.1856875-.874938"/><path d="m35.832825 236.715881c-.1246875-1.625445-.254625-3.254146-.3878438-4.882196-2.0330625.271667-3.8265937.538123-5.2388437.788943.1168125 1.614369.2316563 3.271736.3451875 4.983827 1.519875-.287303 3.31275-.586984 5.2815-.890574"/><path d="m34.0284656 216.405451c-.1765312-1.704925-.3583125-3.386397-.546-5.044415-1.8808125.478838-3.588375.92836-5.0209687 1.323809.170625 1.607202.3405937 3.284765.5085937 5.044414 1.4896875-.407175 3.2011875-.853439 5.058375-1.323808"/><path d="m36.1587187 241.101909c-2.0947499.172642-3.9269999.342027-5.3517187.503594.1004063 1.617627.1988438 3.280205.2959688 4.98057 1.5553125-.15831 3.3895312-.319226 5.4074999-.477535-.112875-1.656716-.2303437-3.327112-.35175-5.006629"/><path d="m56.0173688 239.756341c-1.74825.103585-3.5732813.214988-5.4193125.330952.0931875 1.646292.1850625 3.331672.2749687 5.058096 1.861125-.110101 3.7032188-.21564 5.4764063-.313363-.1056563-1.67235-.2165626-3.365549-.3320625-5.075685"/><path d="m63.7606594 239.31164c-1.0086563.056027-2.1164063.11857-3.2989688.185672.0912188 1.659321.1804688 3.359034.2684063 5.097185 1.063125-.056679 2.0776875-.109449 3.0305625-.15831z"/></g><path d="m45.1366781 167.484597s-2.233875.960282-2.3684062 2.764884c-.1345313 1.805904 9.0752812 12.098647 8.8895625 12.522109 0 0-.756-1.320551-1.992375 2.254774-1.4772188 4.27241-4.0385625 10.06277-4.0385625 10.06277s-10.9377188-14.846592-10.9370625-18.175658c0-.767444 5.4567187-8.546774 10.77825-10.534442 0 0-.0938438.363526-.1725938.62477-.07875.260592-.1588125.480793-.1588125.480793" fill="#b3ccdb"/><path d="m49.9691719 184.238594c-1.8224063-2.385071-8.6159063-11.337717-9.2596875-13.081731-.1463438-.3961-.1561875-1.009144-.0846563-1.611763-.9929062.889271-1.9175625 1.852811-2.7293437 2.783777.1581562.43128.3885.970706.742875 1.649549 1.09725 2.101025 7.5225937 10.957904 9.872625 14.176218.4127812-1.059959.8130937-2.12969 1.155-3.117986.105-.304242.2054062-.561576.3031875-.798064" fill="#e9eef2"/><path d="m47.1403406 191.553744c-2.4300937-3.473694-10.0471875-14.425084-10.6725937-16.116979-.112875-.306196-.1437188-.743991-.1200938-1.205239-1.0322812 1.369412-1.6576875 2.432628-1.6576875 2.691918-.0013125 3.329066 10.9370625 18.175658 10.9370625 18.175658s.6654375-1.505572 1.5133125-3.545358" fill="#e9eef2"/><path d="m47.4668906 177.323583c-.7566562-.949859-1.5211875-1.926428-2.2095937-2.84697-.2611875.037134-.6391875.153749-1.1241563.475581-.60375.401312-3.7439062 5.619672-5.7323437 9.575462.853125 1.360292 1.7672812 2.749248 2.6525625 4.058724 1.1254687-2.551198 4.4533125-9.821722 6.4135312-11.262797" fill="#ccd8e0"/><path d="m49.6657219 185.026234c1.236375-3.574674 1.992375-2.254774 1.992375-2.254774.0544687-.123782-.7028438-1.101003-1.792875-2.461294l-.0826875.000651s-.6975938-.129644-1.4916563.957677c-.6017812.824774-3.42825 6.955859-4.8306562 10.8022 1.2737812 1.806556 2.1669375 3.01831 2.1669375 3.01831s2.5613437-5.789708 4.0385625-10.06277" fill="#ccd8e0"/><path d="m34.6898344 176.913281c0 .65148.4219687 1.746619 1.094625 3.080852 1.9444687-2.730356 5.5335-7.404078 7.720125-8.037969-.4764375-.773307-.7605938-1.379836-.7363125-1.706879.0387187-.51467.2500312-.958328.5295937-1.332929-.196875-.196096-.6608437-.562879-1.2915-.529002-3.9913125 3.054141-7.3165312 7.926564-7.3165312 8.525927" fill="#ccd8e0"/><path d="m38.6350781 173.970803c.1607813.308802.4469063.774611.8071875 1.334884.7855313-.891225 1.5815625-1.70297 2.32575-2.315362-.5446875-.832592-.9312187-1.48733-1.0618125-1.841084-.1463437-.396101-.1568437-1.009144-.0846562-1.611764-.9935625.889272-1.9182188 1.852811-2.7293438 2.783777.1575.43128.3885.970706.742875 1.649549" fill="#f2f6f9"/><path d="m48.0334312 181.681663c-.3747187.673631-.9981562 1.955745-1.6944375 3.480861.8603438 1.190255 1.6235625 2.237836 2.165625 2.981175.0754688-.194792.1515938-.389585.2264063-.584378.0105-.028013.021-.054724.0321562-.083389.1876875-.490565.3694688-.978524.5427188-1.456711.049875-.136159.0977812-.270365.1456875-.40457.0715312-.200656.1430625-.40066.2106562-.596104.1043438-.300984.2034375-.555713.3005625-.791549-.422625-.552456-1.113-1.459968-1.929375-2.545335" fill="#f2f6f9"/><path d="m37.6311469 177.501112c-.6122813-.983085-1.0381875-1.72447-1.1668125-2.07236-.112875-.305545-.1437188-.74334-.1200938-1.204588-.9010312 1.195467-1.4916562 2.156401-1.6275 2.554456-.0039375.011075-.0039375.018241-.0072187.028665-.0124688.041043-.0223125.080783-.0229688.106191.0006563.011727.002625.026711.0032813.039089.0013125.078829.0098437.165476.0229687.257335.0091875.059285.0216563.121827.0347813.185672.0098437.044952.0196875.091859.0315.139417.0216562.087949.0452812.177854.0748125.274273.0019687.005863.0039375.01303.0059062.019544.1830938.594802.5033438 1.329672.921375 2.157704.5184375-.727704 1.1556563-1.594824 1.8499688-2.485398" fill="#f2f6f9"/><path d="m44.9280563 188.372695c-.5499375 1.298401-1.0696875 2.588332-1.4713125 3.689986 1.2737812 1.807207 2.1669375 3.018961 2.1669375 3.018961s.6641249-1.502965 1.5106874-3.539494c-.5309062-.758323-1.3092187-1.87431-2.2063124-3.169453" fill="#f2f6f9"/><path d="m41.6263313 183.550826-.5059688-.747248-.0039375.005212c-.343875-.508807-.6811875-1.011098-1.0099687-1.502966-.60375 1.086018-1.1950313 2.192232-1.708875 3.213754.8524687 1.360291 1.7672812 2.749899 2.6519062 4.059376.3556875-.805882.9312188-2.082784 1.6130625-3.496497-.3458437-.506201-.6936562-1.01631-1.0395-1.525768z" fill="#f2f6f9"/><path d="m43.5687656 175.609016c-.4711875.654738-1.1510625 1.726424-1.9018125 2.986388l2.4924375 3.532328c.6214688-1.160939 1.26-2.259335 1.86375-3.139486-.832125-1.12641-1.6819687-2.29256-2.454375-3.37923" fill="#f2f6f9"/><path d="m35.0493937 178.417875c.6398438 1.51795 1.504125 2.923845 2.3664375 4.323226.8826563 1.389608 1.7974688 2.757066 2.716875 4.122569 1.850625 2.722538 3.7885313 5.389048 5.7231563 8.050346l-.5000625.063846c1.2245625-3.120593 2.4583125-6.23467 3.759-9.329203.3340313-.772005.6660938-1.5401 1.0381875-2.304939.091875-.192187.1975313-.38307.3025313-.580469.1719375-.264501.333375-.441704.6687187-.534214.1640625-.047558.4003125-.019545.553875.097071.0780938.054072.1397812.118569.1876875.185671.049875.067103.0885938.15831.1043437.190884l.2716876.566137 2.1728437 4.530396c1.4595 3.015053 2.8658438 6.054861 4.2951563 9.085549 1.4286562 3.030037 2.8225312 6.07636 4.2085312 9.127896-1.5369375-2.979221-3.0646875-5.964306-4.5583125-8.965026-1.4929687-3.002022-3.0089062-5.993621-4.4710312-9.009325l-2.2109063-4.517367-.2762812-.564182c-.0301876-.061239-.0315-.068406-.0452813-.085344-.0124687-.01759-.02625-.029317-.0347812-.034529-.0177188-.009772-.0098438-.008469-.0485625-.001954-.0354375.009772-.097125.038437-.1588126.090556-.0669374.047558-.0656249.110751-.1128749.157007-.08925.173293-.186375.349845-.2730001.536168-.357.743991-.6785624 1.518601-1.0119374 2.28344-1.3197188 3.071731-2.5790626 6.177991-3.8259376 9.283599l-.1942499.483398-.3058126-.419553c-1.9411875-2.672374-3.7734375-5.415107-5.5755-8.178688-.8964375-1.385048-1.7620312-2.78964-2.5875937-4.217686-.8104688-1.43456-1.6268438-2.880196-2.1780938-4.43528" fill="#759aac"/><path d="m74.6339344 182.771525 1.9516875-1.648246 11.79675-5.505663s27.0539061 10.817184 30.1678121 12.773581l-7.426125 29.133562 2.151188 22.163372-8.409844 46.311804h-42.3668436v-78.257157z" fill="#b3ccdb"/><path d="m62.4782813 239.310337c10.23225.568091 30.8063437 1.784406 35.2964062 2.611786l.16275 4.984478c-6.5697187-.902952-24.8941875-1.929685-35.4591562-2.471717z" fill="#e9eef2"/><path d="m73.4400188 185.227933c8.82 2.852182 28.3434372 9.269266 32.4863432 11.503845l-1.397156 4.790988c-6.334781-3.052187-24.1230935-9.286205-33.0093747-12.344255z" fill="#e9eef2"/><path d="m62.4782813 228.798241c8.0502187.745294 31.1489062 2.964888 36.0025312 4.336255l-.3077813 4.977964c-7.0474687-1.647595-26.6483437-3.949276-35.6947499-4.96298z" fill="#e9eef2"/><path d="m73.8735375 285.373992h-5.9239688s2.33625-73.192546 8.922375-104.367849l6.0138751-2.80723c-3.0016876 10.642587-7.1347501 37.814542-9.0122813 107.175079" fill="#ccd8e0"/><path d="m87.6532125 286c.8170312-20.566592 3.9263437-86.500342 10.8504375-106.300793 1.586156.648224 3.256312 1.333581 4.930406 2.025454-2.918344 7.548054-7.7037185 31.071066-9.9067498 104.275339z" fill="#ccd8e0"/><path d="m11.7336188.01973986c.9495937.38111618 2.7313125 1.09774488 4.9710937 2.00525741-2.9203125 6.81904783-8.05415625 29.92055123-10.28671875 108.07542573h-5.901c.59521875-16.0609519 3.71371875-90.0867424 11.21662505-110.08068314" fill="#ccd8e0" mask="url(#d)" transform="translate(77.4375 175.899772)"/><path d="m62.4987562 212.072844c.1745625-1.83457.3898125-3.650246.5768438-5.445727l6.8210625-14.037453c-2.2581563 16.327408-4.52025 43.839435-5.775 90.192934h-1.588125z" fill="#ccd8e0"/><path d="m79.3866281 176.823572s23.9918439 8.618437 29.2871249 11.696032l-1.550062 4.744082c-8.4472504-4.404009-30.6140629-12.95339-30.6140629-12.95339z" fill="#e9eef2"/><path d="m68.7837937 194.812451c7.602 2.047603 30.3489376 8.256214 34.9361253 10.453006l-1.162875 4.852228c-7.060594-2.993553-27.8158128-9.085549-35.6901565-11.361171z" fill="#e9eef2"/><path d="m64.0679156 204.51404c7.977375 1.824797 32.6569688 7.52395 37.4659684 9.29728l-.700218 4.939526c-7.1977504-2.287349-38.3348441-9.327248-38.3348441-9.327248v-1.68082z" fill="#e9eef2"/><path d="m62.5308469 217.524564c8.4190312 1.156378 33.004125 4.590984 37.8912191 5.916096l-.253969 4.981872c-7.0428751-1.569417-27.9030939-4.424205-37.6694064-5.725863z" fill="#e9eef2"/><path d="m79.3110281 197.697011c-.186375 1.441076-.3720937 2.960328-.5571562 4.563622-1.7364375-.521836-3.4138125-1.021521-4.9802813-1.484073.18375-1.515344.37275-2.999416.567-4.45287 1.5336563.419554 3.213.883408 4.9704375 1.373321" fill="#f2f6f9"/><path d="m78.1545844 207.78799c-.1660313 1.626096-.33075 3.3219-.4935 5.095231-1.7384063-.405221-3.4479375-.800019-5.0879063-1.176575.1719375-1.721863.349125-3.424833.5322188-5.105002 1.6097812.375905 3.310125.774611 5.0491875 1.186346" fill="#f2f6f9"/><path d="m88.7257219 205.327739c-1.63275-.515973-3.3035625-1.035203-4.9697813-1.547267.1955625-1.587658.396375-3.144697.6030938-4.663298 1.6603125.471672 3.3304687.953116 4.9619062 1.429349-.1988437 1.504268-.3970312 3.094533-.5952187 4.781216" fill="#f2f6f9"/><path d="m99.5028563 199.354964c-1.4870625-.599362-3.1335938-1.239116-4.8759376-1.901672.2579063-1.68082.5230313-3.302355.7966875-4.850924 1.7600625.623467 3.4131563 1.22348 4.8851248 1.777239-.267093 1.513389-.5354997 3.167499-.8058747 4.975357" fill="#f2f6f9"/><path d="m90.7816219 190.985653c-.2579063 1.445636-.5177813 3.021568-.7789688 4.741476-1.6150312-.59415-3.26025-1.191558-4.8936562-1.777239.2487187-1.603945.5046562-3.148606.7678125-4.62877 1.6314375.547895 3.2825625 1.107517 4.9048125 1.664533" fill="#f2f6f9"/><path d="m77.0849625 219.576337c-.1319062 1.633262-.2625 3.3219-.391125 5.067217-1.7869687-.252775-3.546375-.498383-5.2322812-.732265.1410937-1.697107.2874375-3.392259.4383749-5.079594 1.6576876.236487 3.4046251.486656 5.1850313.744642" fill="#f2f6f9"/><path d="m80.7478219 235.34927c.1168125-1.557691.2375625-3.118638.3615937-4.682192 1.7948438.19805 3.5713125.400661 5.2716563.603923-.1089375 1.555736-.2159063 3.155121-.3222188 4.797503-1.7226562-.24235-3.509625-.48405-5.3110312-.719234" fill="#f2f6f9"/><path d="m66.1729031 233.567926c-1.3367812-.153749-2.5626562-.292515-3.6415312-.414341v-4.35124c1.0703437.098374 2.4031875.223458 3.9171562.368738-.0931875 1.430652-.1850625 2.897135-.275625 4.396843" fill="#f2f6f9"/><path d="m67.8779063 210.635026c-1.93725-.439749-3.6677813-.828683-5.0892188-1.147257.0945-.955071.1830937-1.976593.2815312-2.919937l1.026375-2.048255c1.1326875.25929 2.5902188.593499 4.2741563.982433-.165375 1.637171-.3300937 3.347959-.4928437 5.133016" fill="#f2f6f9"/><path d="m76.01055 234.744891c-1.8309375-.22867-3.6284062-.446916-5.33925-.650178.107625-1.487981.2191875-2.981826.3346875-4.480232 1.6865625.167431 3.4748438.348542 5.3011875.538775-.1004062 1.493845-.1995 3.021567-.296625 4.591635" fill="#f2f6f9"/><path d="m88.1857594 210.203681c-.1693125 1.613717-.3373125 3.299749-.504 5.06461-1.6504688-.402615-3.3554063-.812396-5.0747813-1.220875.1745625-1.711439.354375-3.402683.5400938-5.06917 1.7069062.411084 3.402.82282 5.0386875 1.225435" fill="#f2f6f9"/><path d="m81.5502188 225.341029c.1450312-1.687987.2946562-3.37011.4495312-5.041809 1.7521875.260592 3.4899375.523139 5.1640312.782428-.1364999 1.619581-.2710312 3.298447-.4049062 5.03334-1.6937812-.256684-3.4446562-.516624-5.2086562-.773959" fill="#f2f6f9"/><path d="m93.3450656 206.814548c.20475-1.663881.4160625-3.29584.6332813-4.882196 1.8046875.548547 3.4814062 1.07364 4.9435312 1.555084-.2086875 1.570069-.4167187 3.237859-.6240937 5.009235-1.4916563-.528351-3.1650938-1.095139-4.9527188-1.682123" fill="#f2f6f9"/><path d="m80.382225 240.389971c1.84275.121827 3.6579375.248214 5.3858437.37395-.0977812 1.635216-.1935937 3.308218-.2880937 5.02487-1.7580938-.122478-3.588375-.243654-5.4403125-.361572.1095938-1.66323.2237813-3.34405.3425625-5.037248" fill="#f2f6f9"/><path d="m80.8196156 187.63789c-.2434687 1.386351-.4895625 2.890619-.7356562 4.52323-1.7239688-.607832-3.3764063-1.185695-4.9015313-1.716.2349375-1.527071.4770938-3.000069.7258125-4.417039 1.4896875.484702 3.152625 1.02934 4.911375 1.609809" fill="#f2f6f9"/><path d="m81.84435 182.401875c-1.8886875-.748552-3.3987187-1.339444-4.3253437-1.700365l5.3648437-2.50364c-.3340313 1.18374-.6825 2.574652-1.0395 4.204005" fill="#f2f6f9"/><path d="m67.2379969 218.175393c-.1299375 1.646943-.2592188 3.347308-.385875 5.105654-1.5894375-.21564-3.0810938-.414342-4.3535625-.584378v-5.172105c1.2514687.171991 2.8934062.392843 4.7394375.650829" fill="#f2f6f9"/><path d="m69.5691937 195.024898c-.1785 1.380488-.357 2.831987-.5348437 4.361012-.7868438-.22867-1.5047813-.437795-2.1413438-.621513l1.9169063-3.944064c.238875.063846.4921875.132903.7592812.204565" fill="#f2f6f9"/><path d="m91.6836375 186.380728c-1.6609688-.686661-3.2976563-1.35508-4.848375-1.981805.3432187-1.60199.6975937-3.088669 1.0644375-4.445703 1.5507187.579166 3.2136562 1.207193 4.9094062 1.856719-.3602812 1.269085-.737625 2.779868-1.1254687 4.570789" fill="#f2f6f9"/><path d="m101.068866 190.392676c-1.5257816-.682101-3.1532816-1.388957-4.8221254-2.099071.3530625-1.706228.7205625-3.275645 1.0985625-4.721932 1.7016563.671677 3.3534379 1.33749 4.8674059 1.968123-.3675 1.353777-.75075 2.957071-1.143843 4.85288" fill="#f2f6f9"/><path d="m91.2719062 226.818978c.1476563-1.679517.29925-3.353171.45675-5.013795 1.9359375.315968 3.6855.614997 5.1423751.88471-.1397813 1.608506-.2775938 3.276297-.4134376 5.004023-1.5323437-.275576-3.2858437-.570045-5.1856875-.874938" fill="#f2f6f9"/><path d="m90.4589438 236.715881c.1246875-1.625445.254625-3.254146.3878437-4.882196 2.0330625.271667 3.8265938.538123 5.2388438.788943-.1161563 1.614369-.2316563 3.271736-.3451876 4.983827-1.5198749-.287303-3.3127499-.586984-5.2814999-.890574" fill="#f2f6f9"/><path d="m92.2633031 216.405451c.1765313-1.704925.3583125-3.386397.546-5.044415 1.8808125.478838 3.588375.92836 5.021625 1.323809-.1712812 1.607202-.34125 3.284765-.50925 5.044414-1.4890312-.407175-3.2011875-.853439-5.058375-1.323808" fill="#f2f6f9"/><path d="m90.13305 241.101909c2.09475.172642 3.927.342027 5.3517187.503594-.1004062 1.617627-.1988437 3.280205-.2959687 4.98057-1.5553125-.15831-3.3895313-.319226-5.4075-.477535.112875-1.656716.2303437-3.327112.35175-5.006629" fill="#f2f6f9"/><path d="m70.2744656 239.756341c1.74825.103585 3.5732813.214988 5.4199688.330952-.0938438 1.646292-.1857188 3.331672-.275625 5.058096-1.861125-.110101-3.7032188-.21564-5.4764063-.313363.1063125-1.67235.2165625-3.365549.3320625-5.075685" fill="#f2f6f9"/><path d="m62.531175 239.31164c1.0093125.056027 2.1164063.11857 3.2989688.185672-.0912188 1.659321-.1804688 3.359034-.2684063 5.097185-1.063125-.056679-2.0776875-.109449-3.0305625-.15831z" fill="#f2f6f9"/><path d="m81.1550906 167.484597s2.233875.960282 2.3684063 2.764884c.1345312 1.805904-9.0752813 12.098647-8.8895625 12.522109 0 0 .756-1.320551 1.992375 2.254774 1.4772187 4.27241 4.0385625 10.06277 4.0385625 10.06277s10.9377187-14.846592 10.9370625-18.175658c0-.767444-5.4560625-8.546774-10.77825-10.534442 0 0 .0938437.363526.1725937.62477.07875.260592.1588125.480793.1588125.480793" fill="#b3ccdb"/><path d="m76.3226625 184.238594c1.8224063-2.385071 8.6159063-11.337717 9.2596875-13.081731.1463438-.3961.1561875-1.009144.0846563-1.611763.9929062.889271 1.9175624 1.852811 2.7293437 2.783777-.1581563.43128-.3885.970706-.742875 1.649549-1.09725 2.101025-7.5225937 10.957904-9.872625 14.176218-.4127812-1.059959-.8130937-2.12969-1.155-3.117986-.105-.304242-.2054062-.561576-.3031875-.798064" fill="#e9eef2"/><path d="m79.1514281 191.553744c2.4300938-3.473694 10.0478438-14.425084 10.6725938-16.116979.112875-.306196.1437187-.743991.1200937-1.205239 1.0322813 1.369412 1.6576875 2.432628 1.6583438 2.691918.0006562 3.329066-10.9370625 18.175658-10.9370625 18.175658s-.6660938-1.505572-1.5139688-3.545358" fill="#e9eef2"/><path d="m78.8249438 177.323583c.7566562-.949859 1.5211874-1.926428 2.2095937-2.84697.2611875.037134.6391875.153749 1.1248125.475581.6030937.401312 3.74325 5.619672 5.7316875 9.575462-.853125 1.360292-1.7672813 2.749248-2.6525625 4.058724-1.1254688-2.551198-4.4533125-9.821722-6.4135312-11.262797" fill="#ccd8e0"/><path d="m76.6261125 185.026234c-1.2357188-3.574674-1.992375-2.254774-1.992375-2.254774-.0544688-.123782.7028437-1.101003 1.792875-2.461294l.0826875.000651s.6975937-.129644 1.4916562.957677c.6024375.824774 3.42825 6.955859 4.8313125 10.8022-1.2744375 1.806556-2.1669375 3.01831-2.1669375 3.01831s-2.562-5.789708-4.0392187-10.06277" fill="#ccd8e0"/><path d="m91.6022625 176.913281c0 .65148-.4219688 1.746619-1.094625 3.080852-1.9444688-2.730356-5.5335-7.404078-7.720125-8.037969.4757812-.773307.7605937-1.379836.7356562-1.706879-.0380625-.51467-.249375-.958328-.5295937-1.332929.1975312-.196096.6615-.562879 1.2921562-.529002 3.9906563 3.054141 7.3165313 7.926564 7.3165313 8.525927" fill="#ccd8e0"/><path d="m87.6570844 173.970803c-.1614375.308802-.4469063.774611-.8071875 1.334884-.7855313-.891225-1.5815625-1.70297-2.32575-2.315362.5440312-.832592.9312187-1.48733 1.0618125-1.841084.1463437-.396101.1561875-1.009144.0846562-1.611764.9935625.889272 1.9182188 1.852811 2.7293438 2.783777-.1581563.43128-.3885.970706-.742875 1.649549" fill="#f2f6f9"/><path d="m78.2587312 181.681663c.3747188.673631.9981563 1.955745 1.6937813 3.480861-.8603437 1.190255-1.6229063 2.237836-2.1649688 2.981175-.076125-.194792-.15225-.389585-.2264062-.584378-.0111563-.028013-.0216563-.054724-.0321563-.083389-.1876875-.490565-.3694687-.978524-.5427187-1.456711-.049875-.136159-.0977813-.270365-.1456875-.40457-.0715313-.200656-.1430625-.40066-.2106563-.596104-.1043437-.300984-.2034375-.555713-.3005625-.791549.422625-.552456 1.1123438-1.459968 1.929375-2.545335" fill="#f2f6f9"/><path d="m88.6606875 177.501112c.6122813-.983085 1.0388438-1.72447 1.1668125-2.07236.1135313-.305545.1437188-.74334.1200938-1.204588.9010312 1.195467 1.4923125 2.156401 1.6275 2.554456.0039375.011075.0045937.018241.0072187.028665.0124688.041043.0223125.080783.0229688.106191 0 .011727-.002625.026711-.0032813.039089-.0013125.078829-.0098437.165476-.0229687.257335-.0085313.059285-.021.121827-.0347813.185672-.0091875.044952-.0196875.091859-.0315.139417-.0216562.087949-.0452812.177854-.0741562.274273-.0019688.005863-.0039375.01303-.0059063.019544-.18375.594802-.504 1.329672-.921375 2.157704-.5184375-.727704-1.1556562-1.594824-1.850625-2.485398" fill="#f2f6f9"/><path d="m81.3640406 188.372695c.5499375 1.298401 1.0696875 2.588332 1.4713125 3.689986-1.2737812 1.807207-2.1669375 3.018961-2.1669375 3.018961s-.664125-1.502965-1.5106875-3.539494c.53025-.758323 1.3092188-1.87431 2.2063125-3.169453" fill="#f2f6f9"/><path d="m84.6655031 183.550826.5059688-.747248.0039375.005212c.343875-.508807.6811875-1.011098 1.0099687-1.502966.6044063 1.086018 1.1950313 2.192232 1.708875 3.213754-.8524687 1.360291-1.7672812 2.749899-2.6519062 4.059376-.3556875-.805882-.9312188-2.082784-1.6130625-3.496497.3458437-.506201.6943125-1.01631 1.0395-1.525768z" fill="#f2f6f9"/><path d="m82.7233312 175.609016c.4705313.654738 1.1504063 1.726424 1.9018125 2.986388l-2.4924375 3.532328c-.6214687-1.160939-1.26-2.259335-1.86375-3.139486.832125-1.12641 1.6819688-2.29256 2.454375-3.37923" fill="#f2f6f9"/><path d="m91.242375 178.417875c-.5499375 1.555084-1.3669687 3.001371-2.176125 4.435932-.8249062 1.428697-1.6918125 2.833289-2.5875937 4.218337-1.8000938 2.764884-3.635625 5.505663-5.5768125 8.178036l-.307125.42216-.1949063-.486656c-1.2160312-3.030037-2.4451875-6.059422-3.730125-9.057535-.3169687-.750506-.6359063-1.502315-.9758438-2.235882-.0859687-.181112-.1686562-.370041-.2605312-.540077l-.1345313-.261244c-.044625-.050816-.0551249-.104237-.1063124-.156356-.1312501-.108797-.2231251-.115963-.2178751-.103585-.013125.005863-.0465937.035831-.0662812.082738l-.1351875.275576-2.1584063 4.405312c-1.4273437 2.942738-2.9104687 5.858766-4.3686562 8.78652-1.4588438 2.927102-2.9511563 5.838569-4.4533125 8.743521 1.3512187-2.977266 2.7122812-5.949321 4.1061562-8.905088 1.3958438-2.955117 2.7654375-5.921959 4.1908125-8.862743l2.121-4.419645.1332188-.275576c.0623437-.138765.1640625-.276879.33075-.371344.1693125-.096419.3924375-.099025.5420625-.046255.1529062.050815.270375.126387.3681562.204565.0977813.085344.1824376.220852.259875.332906l.1489688.282092c.1036875.188929.1857187.374601.2762813.560924.3537187.747249.679875 1.497754 1.0040625 2.249563 1.26525 3.020916 2.4694687 6.058119 3.6631875 9.103139l-.5020313-.063845c1.934625-2.661298 3.8699063-5.329763 5.7225-8.050998.9194063-1.364852 1.8329063-2.733613 2.716875-4.121918.863625-1.398729 1.72725-2.804624 2.36775-4.322574" fill="#759aac"/></g><g transform="translate(0 1)"><path d="m128.571516 90.631325s-5.829-3.9563393-7.835726-12.3891429c-3.661867-15.381491.627224-31.678741-12.257072-34.87575-18.4913454-4.5872678-59.8423486-9.2201607-82.2711988.1101518-11.4628925 4.7691161-7.3420651 18.8014107-10.9332215 32.5782054-2.6169283 10.0401071-7.88221171 12.9236071-7.88221171 12.9236071s-1.0135114-3.7542857-2.21230944-9.2045178c-.06940065-.3154643-.43539088-.1707679-.50544626-.4973125-.04648534-.2144375.20296417-.8968572.15582411-1.116509-.14534854-.684375-.43997394-2.1124375-.43997394-2.1124375l-.93887297-2.399875-.26385342.5911697-.16891857-.994625-.58597719-.96725.02291531-2.6332143-.09297069-.6537411-.74507492-.0749553.28676873-3.5268125-.10868404-1.0044018-.73852768-2.3001518.34438436-2.7381518-.65014006-1.1666964.57222801-1.5721072-.82757003-.5299017.93887296-3.08425-.42818892-.848625 1.28914983-4.1049465-.77257329-1.6763928 1.03773616-1.2618572-.62984365-1.1719107 1.05148534-4.5742321-.22195114-1.6131697.90482736-.7345625-.14076547-1.5473393.94738437-1.2879285-.28480456-1.6027411 1.08553094-1.286625-.88191205-1.1471429 1.48360261-1.0774017-.05696092-1.4586965 2.86179479-2.4076964 14.87203584-12.1825268 27.8820391-11.3645357 4.6046677 1.34267857 18.2569544-2.77074107 1.7985245 2.77074107 19.4642638 1.76764286 5.291472 3.27652678 15.353912 2.96758039-1.337599 1.5466875 11.872094 9.8308839 1.827987.8597054 5.682342 18.9363303 2.049284 2.6781875-1.917029 1.9390625-1.379502 15.4492768-.931016 1.0141786.161062 15.1670535 1.44039.5637947-3.092912-7.2687143c1.367062 7.1012054-2.006726 18.916125-2.006726 18.916125" fill="#efefed" mask="url(#e)" transform="translate(32.081433)"/><path d="m99.6521336 47.0520848.0130944 1.0943482.645557 54.836036h-46.8526417l-1.7271596-36.7216074-15.7179381 36.7216074h-36.0130456s38.4080228-88.2732949 39.3252899-91.8822324c.9172671-3.60893749 3.9741694-8.90534821 12.84043-10.59412499 8.8662606-1.68942857 46.2083941 42.27873209 47.4864137 46.54597319" fill="#5b6882" mask="url(#f)" transform="translate(0 189.017857)"/><path d="m99.6521336 236.069942s-2.1618958-5.602098-5.7412672-12.810196c-2.0715439-4.172081-4.6315114-8.981608-7.4985439-13.584518-3.1564202-5.067634-6.6866873-9.885634-10.3492085-13.327063-14.9512573-14.050544-6.5982997-19.90358-2.3589674-22.822928l-.9572052-1.202545s-7.6818665-2.659286-13.358316 5.282723c-1.1955244 1.672482-4.6694853 2.531536-5.6070489 6.800732-.9375635 4.269849-3.6612117-1.166696-3.9839902 7.346277-.3234332 8.512322 12.6826417 12.262045 22.9493551 18.146366 8.0904136 4.636804 20.1386286 18.218714 24.8820977 23.767366 1.2754006 1.49259 2.0230945 2.403786 2.0230945 2.403786" fill="#697895"/><path d="m93.9002599 223.25955c-2.0715439-4.171429-4.6308566-8.980955-7.4985439-13.584518-3.1564202-5.067634-6.6860326-9.885634-10.3485538-13.327062-14.9512573-14.050545-6.5989544-19.903581-2.3596221-22.822929l1.02857-3.882687s-6.8366189 1.425455-9.4830098 2.680794c-1.643355 2.026402-2.7727524 7.621331-2.1108273 11.825348 1.4973518 9.503036 16.0767263 21.813965 19.9134039 29.1635 1.0789837 2.068117 3.5381238 6.607152 5.3981922 10.180242 4.2360586 4.350017 6.9714918 7.591348 9.1785635 10.174375 1.2760553 1.491937 2.0237492 2.403133 2.0237492 2.403133s-2.1618958-5.601446-5.7419219-12.810196" fill="#7d8da8"/><path d="m83.041415 164.964813s-16.3687329 5.595581-16.3693876 15.214634c-.0013095 7.899643 8.6403811 16.088027 11.7339478 19.072554 3.0935668 2.98583 6.3632541 7.863143 6.3632541 7.863143-2.2594495-6.075947-11.7660293-19.482527-11.7660293-24.702679 0-4.319384-1.0744007-7.788839 10.0218469-12.471919 0 0 .0163681-2.589545.0163681-4.975733" fill="#aaaeb0"/><path d="m68.9101984 177.908235c2.4421172-4.842116 8.5735993-8.918384 14.124342-10.671688.0039283-1.175821.0065472-1.218187.0065472-2.271473 0 0-5.2417133 1.08392-9.8038241 4.978991-.212785 1.028518-.5159218 1.965134-.9500032 2.379018-1.2112378 1.154964-1.8797101.703929-3.7960847 4.960089-1.9157199 4.256161 1.1771922 10.463768 2.825785 12.7385l.0785668-.497964s-4.928101-6.771402-2.485329-11.615473" fill="#c3c7c9"/><g fill="#465266"><path d="m91.5419472 225.927113c.9310163.08734 1.6354984.691545 1.5732997 1.348545-.0621987.658304-.8675081 1.121071-1.7985244 1.033732-.9303616-.086687-1.6348437-.690241-1.572645-1.348544.0621987-.658304.8668534-1.121072 1.7978697-1.033733"/><path d="m91.1282277 226.422992c-3.7613844-3.874866-7.5679446-7.720402-11.5997297-11.307179-1.0135114-.885776-2.0348794-1.775464-3.1367785-2.526321-1.1130293-.735866-2.3236123-1.344634-3.518482-1.969696l-7.2589154-3.62784c-2.4178925-1.221446-4.824-2.470268-7.1633257-3.855312-1.1693355-.691545-2.3059348-1.445009-3.4084886-2.255831-.2828404-.189669-.5362182-.428875-.8053094-.642009-.262544-.222258-.5388372-.424964-.7765017-.683723-.2429022-.247678-.498899-.491446-.7300162-.743035l-.6658535-.765197c-.4353908-.518821-.8720912-1.035036-1.2943876-1.572107-.4170586-.539027-.8459023-1.079357-1.1555863-1.742223-.151241-.332411-.2481401-.71175-.2540326-1.081965-.0039283-.368258.042557-.709794.0824951-1.046767l.2330815-2.004241c.0811856-.67134.1676091-1.345286.3064104-2.017277.1590977-.655697.3031368-1.377875.8642345-1.907125.1414202-.12775.3227785-.209875.5074104-.258759l.5021727-.096464c.3293257-.063875.6566873-.128402.9388729-.28092.5892509-.296563.8282248-.994625.9539316-1.637938l.0648176.010429c-.0910065.648527-.2828404 1.403295-.9277426 1.784589-.3057557.187715-.6501401.273098-.9781564.357179l-.4897329.123839c-.1381466.048232-.2690912.112759-.3738469.219652-.4268795.428875-.5702638 1.119116-.6907329 1.757214-.108684.653741-.1689186 1.32117-.2232606 1.989902-.0523778.667429-.0936254 1.346589-.1708827 2.019232-.0333909.333063-.0674365.662214-.0569609.969205.0137492.305036.0929707.587911.2252247.866875.2736743.556625.6979349 1.081313 1.1182671 1.596224.4236059.515562.8707818 1.020044 1.3146841 1.526482 1.662342 2.103964 3.9322671 3.554839 6.2264169 4.963348 2.2941498 1.406554 4.6734137 2.688616 7.0664267 3.943304l7.2163583 3.71583c1.1929056.642661 2.3982508 1.26642 3.532886 2.035527 1.1254691.786705 2.1350521 1.690732 3.1439805 2.593455 3.9879185 3.664339 7.7283518 7.567884 11.4288469 11.505322z"/><path d="m90.7747427 271.711214h1.3094462v-43.773928h-1.3094462z" mask="url(#g)"/></g><path d="m98.977245 292h1.333671s1.084221-53.229384-1.333671-57.371482l-.7280522-.233991s2.0623782 12.11083.7280522 57.605473" fill="#697895" mask="url(#g)"/><path d="m52.0539586 255.329428-.6462117-.101679c.0563062-.35783 5.6142508-35.869071.8760195-45.509634-4.700912-9.563-12.6335374-10.167857-12.7134136-10.173071l.0412475-.650482c.0857688.005214 2.1363616.147955 4.8082867 1.521919 2.4539023 1.261857 5.9128045 3.850098 8.4518208 9.0155 4.8292378 9.823715-.5846677 44.428973-.8177492 45.897447" fill="#465266" mask="url(#g)"/><path d="m65.5179469 173.649988c-.5768111 1.454134-.9355993 2.973447-1.1097557 4.501233-.2920065 1.508232-.3659902 3.052964-.286114 4.584008.1021368 1.512795.5591335 2.975402 1.1660619 4.389777.657342 1.392215 1.3795016 2.762268 2.2358795 4.05867 1.6643062 2.62083 3.5898469 5.080018 5.5684202 7.491625.9873224 1.207107 2.002798 2.394009 3.0156547 3.584821.931671 1.258599 1.8888762 2.500902 2.7806091 3.791438l-3.2788534-3.369732c-1.0148209-1.190813-2.0322606-2.380974-3.0241661-3.594599-1.9870847-2.421383-3.9263746-4.895562-5.6142509-7.554196-.8668534-1.314-1.6073452-2.714036-2.2823648-4.145357-.6252606-1.452179-1.113684-3.00408-1.2204039-4.615295-.0857687-1.583187-.0006547-3.178759.2906971-4.739134.1872508-.773018.4340814-1.528437.7208501-2.264303.2848046-.736518.6193681-1.454134 1.0377362-2.118956" fill="#92a1b7" mask="url(#g)"/><path d="m100.991959 236.069942-.013095 1.094348-.645557 54.836036h46.852642l1.72716-36.721607 15.717938 36.721607h36.013046s-38.408023-88.273295-39.324636-91.882232c-.917267-3.608938-3.974824-8.905348-12.841084-10.594125-8.866261-1.689429-46.208394 42.278732-47.486414 46.545973" fill="#5b6882" mask="url(#g)"/><path d="m100.991959 236.069942s2.161896-5.602098 5.741922-12.810196c2.070889-4.172081 4.630856-8.981608 7.497889-13.584518 3.15642-5.067634 6.686687-9.885634 10.349209-13.327063 14.951257-14.050544 6.598299-19.90358 2.358967-22.822928l.957205-1.202545s7.681867-2.659286 13.358316 5.282723c1.195525 1.672482 4.669485 2.531536 5.607049 6.800732.937563 4.269849 3.661212-1.166696 3.98399 7.346277.323433 8.512322-12.682642 12.262045-22.949355 18.146366-8.090414 4.636804-20.138629 18.218714-24.882098 23.767366-1.2754 1.49259-2.023094 2.403786-2.023094 2.403786" fill="#697895" mask="url(#g)"/><path d="m106.743767 223.25955c2.071544-4.171429 4.630857-8.980955 7.498544-13.58517 3.15642-5.066982 6.686033-9.884982 10.348554-13.327062 14.951257-14.049893 6.598954-19.902929 2.359622-22.822277l-1.02857-3.882687s6.836619 1.425455 9.48301 2.680794c1.643355 2.026402 2.772752 7.621331 2.110827 11.825348-1.497352 9.503036-16.076726 21.813965-19.913404 29.1635-1.078984 2.068117-3.538124 6.607152-5.398192 10.180242-4.236059 4.350017-6.971492 7.591348-9.178564 10.173723-1.276055 1.492589-2.023749 2.403785-2.023749 2.403785s2.161896-5.601446 5.741922-12.810196" fill="#7d8da8" mask="url(#g)"/><path d="m117.602678 164.313028s16.368732 6.247366 16.369387 15.866419c.00131 7.899643-8.640381 16.088027-11.733948 19.072554-3.093567 2.98583-6.363254 7.863143-6.363254 7.863143 2.260104-6.075947 11.76603-19.482527 11.76603-24.702679 0-4.319384 1.0744-7.788839-10.021847-12.471919 0 0-.016368-3.241331-.016368-5.627518" fill="#aaaeb0" mask="url(#g)"/><path d="m131.733894 177.908235c-2.442117-4.842116-8.573599-8.918384-14.124342-10.671688-.003928-1.175821-.006547-1.869973-.006547-2.923259 0 0 5.227309 1.433277 9.78942 5.329.212785 1.028518.530326 2.266911.964407 2.680795 1.211238 1.154964 1.87971.703929 3.796085 4.960089 1.91572 4.256161-1.177192 10.463768-2.825785 12.7385l-.078567-.497964s4.928101-6.771402 2.485329-11.615473" fill="#c3c7c9" mask="url(#g)"/><path d="m109.102145 225.927113c-.931016.08734-1.635498.691545-1.573299 1.348545.062198.658304.867508 1.121071 1.798524 1.033732.931016-.086687 1.634844-.690241 1.572645-1.348544-.062199-.658304-.866853-1.121072-1.79787-1.033733" fill="#465266" mask="url(#g)"/><path d="m109.468201 226.37841c3.700495-3.937438 7.441583-7.840331 11.428847-11.50467 1.008928-.903375 2.018511-1.807402 3.143326-2.594107 1.13529-.769107 2.340635-1.392866 3.53354-2.035527l7.215704-3.71583c2.393668-1.254688 4.772277-2.53675 7.067081-3.943304 2.29415-1.408509 4.564075-2.859384 6.226417-4.963348.443903-.505786.890424-1.01092 1.314684-1.526482.419678-.514911.844593-1.039598 1.117613-1.595571.132254-.279617.21213-.56184.225879-.866875.010476-.307643-.024225-.636795-.056961-.969858-.077257-.672642-.118505-1.351803-.171537-2.01858-.053687-.669384-.113922-1.336812-.222606-1.990554-.120469-.637446-.263853-1.328339-.691388-1.756562-.104101-.106893-.235045-.172071-.373192-.220304l-.489078-.123839c-.328671-.083428-.673055-.168812-.979466-.356527-.644247-.381294-.836081-1.136714-.927088-1.785241l.064818-.009777c.125707.642661.364681 1.340724.953931 1.637286.282186.15317.609548.217045.938873.28092l.501518.096464c.185287.049536.366645.131661.508065.258759.561098.52925.705137 1.25208.864235 1.907777.138801.671339.225225 1.345286.305756 2.016625l.233736 2.004893c.039938.336321.086423.678509.082495 1.046116-.006547.370214-.103446.749553-.254033 1.081964-.310338.663518-.738527 1.203196-1.156241 1.742223-.421641.537072-.858996 1.053286-1.294387 1.572107l-.665199.765197c-.231117.252241-.487114.496009-.730016.743687-.237665.258107-.513958.461465-.777157.683724-.269091.213133-.521814.451687-.805309.642008-1.101899.81017-2.238498 1.563634-3.407834 2.255831-2.339326 1.385044-4.746088 2.633866-7.163326 3.854661l-7.258915 3.627839c-1.19487.625062-2.405453 1.234482-3.518482 1.970348-1.102554.750205-2.123922 1.639893-3.136779 2.526321-4.032439 3.586777-7.838345 7.431661-11.599729 11.306527z" fill="#465266" mask="url(#g)"/><path d="m108.559642 271.711214h1.309446v-43.773928h-1.309446z" fill="#465266" mask="url(#g)"/><path d="m101.666782 292h-1.333671s-1.0835667-53.229384 1.333671-57.371482l.728052-.233991s-2.061723 12.11083-.728052 57.605473" fill="#697895" mask="url(#g)"/><path d="m148.590134 255.329428c-.233082-1.468474-5.646987-36.073732-.817749-45.897447 2.539016-5.165402 5.997918-7.752991 8.452475-9.0155 2.671925-1.373312 4.722518-1.516053 4.808287-1.521268l.041247.650483c-.079876.005214-8.022322.628321-12.714068 10.172419-4.738231 9.640563.819713 45.151804.87602 45.509634z" fill="#465266" mask="url(#g)"/><path d="m135.126407 173.649988c.418369.664822.752277 1.382438 1.037082 2.118956.287423.735866.534254 1.491285.721505 2.264303.291352 1.560375.375811 3.155947.290697 4.739134-.107375 1.611215-.595143 3.163116-1.220404 4.615295-.67502 1.431321-1.415511 2.831357-2.282365 4.145357-1.688531 2.658634-3.627821 5.132813-5.614251 7.554196-.99256 1.213625-2.01 2.403786-3.024166 3.594599l-3.279508 3.369732c.892388-1.290536 1.849593-2.532839 2.781264-3.791438 1.012857-1.190812 2.028332-2.377714 3.015655-3.584821 1.977918-2.411607 3.904114-4.870795 5.567765-7.491625.856378-1.296402 1.578538-2.666455 2.236534-4.05867.606929-1.414375 1.063925-2.876982 1.165407-4.389777.080531-1.531044.006548-3.075776-.286114-4.584008-.173501-1.527786-.532944-3.047099-1.109101-4.501233" fill="#92a1b7" mask="url(#g)"/></g><g transform="translate(38 10)"><path d="m10.8860719 49.7465804-2.94525002-10.0166749h1.472625l-1.472625-1.6205644h1.472625l1.47262502-3.1234233-2.94525002-2.8249325 4.76175002 1.4540859v-2.0816319h3.483375l-6.93065627-8.1776074 10.57218747 7.0798896-1.4247187-3.7659264 2.4405937 2.4048343v-1.1503926l1.3709063.9422945 3.9020625.4200981-5.3385938-16.582822 5.9594063 7.2184049s-.0735-10.59219635.6916875-13.02434359c0 0 0 6.74758279 1.1084062 8.78759509l2.2168125-4.7075705.9732188 7.2177546s-.3399375-5.0210185 5.0439375-10.04203686l-1.409625 4.70692026 11.80725-10.04203682-1.2134063 4.07937423 3.3252188-.94164417v3.29510429l13.3041562-8.63282208.3136875 5.18099386 10.7684063-2.99206135-3.9591563 2.83533743 12.747-4.13595092-2.1374062 5.7051411h2.7936562l-1.6412812 1.56919019 12.3073125-.47082209-2.0586563 2.04001223 2.0586563.6275461-1.425375 1.098368s8.9282816.9416442 10.4022186.9416442c1.473938 0 3.373781 1.5691902 3.373781 1.5691902l-6.9667496 1.255092 4.2439686 1.0782086 1.931344.4909816 1.741687 2.8242822h-4.324031l7.808063 3.4524786 2.457 3.4518282-3.723563-1.8826381 4.591781 5.1783927-3.483375-1.5691902 4.908094 6.7469325v3.1383804l3.325875 1.7259141 2.533125 4.2367484-2.058-1.255092.316313 1.5061105.475125 2.2598159-2.058657-.9416442 2.533782 7.2053988-3.325219-3.5961963-1.108406 3.5961963.312375 3.7262577.162093 1.9353129-3.401343-2.9816565v3.0414847s-1.099875-18.8055706-5.144344-22.7906503c-4.528125-4.4617546-14.1559689-9.4606626-35.6914689-9.7741105-21.5355-.3140981-31.3595625.2152516-41.7749062 3.7139019-9.3640313 3.1448834-18.5685938 2.9920613-19.522125 19.3869448" fill="#dbdbd7"/><path d="m107.987972 32.1146184c-1.048031-.7094847-4.557656-2.1193497-4.557656-2.1193497l.445593-.8668589-11.7501559-1.2420859 4.7912813-1.7545276-13.2818438.4220491 5.782875-3.8511166s-11.4975 1.0359387-13.42425.6555092l2.9229375-3.7236564-21.7225312 2.7293374 3.0673125-6.7618896-14.0850938 7.1338651-1.0020937-8.3122209-7.074375 10.3600368-8.8679063-10.5739877.45675 12.3343681c-.6733125.1573742.270375.2510184.270375.2510184l-6.0151875-8.219227 4.1770313 12.0157178-5.3057813-3.8088466 2.8724063 4.4864662-4.8444375-2.1947852 2.6781562 2.7013742-4.3575-.6268957.6083438 2.3398037-4.893.5547116.6818437 1.9053988-1.6307812 1.712908-2.8238438.2217546 1.3958438 1.7863926-1.6635938.7179387 1.2560625 1.1386871-1.462125.7667116 1.519875.0221105s1.4522813-4.7446381 4.9015313-6.9277178c4.7059687-2.9784049 12.5055-4.5768589 12.7089375-4.6503436 32.6569687-5.6888834 66.8180625 1.3240246 74.5939691 3.8992393 7.042218 2.332 8.176218 18.8523926 8.176218 18.8523926s1.723313-17.1336319-4.545187-21.3742822" fill="#a59f9b"/><path d="m31.7271281 28.8993067s2.081625-14.6572638 2.5515-16.6016809v13.909411l3.7708125-9.6531534-.6286875 7.99227 1.9904063-3.9480123v5.0899509l5.3425312-12.5600245-.7671562 11.522135s3.0830625-4.4637056 3.1821562-4.7752025c.0990938-.3108466-.9489375 4.6711534-.9489375 4.6711534l11.3970938-14.64620861-4.6928438 11.42784051 1.4667188-.7296442-1.2567188 4.4669571 5.8655625-1.0378896s-7.4372812 3.4251656-11.3130937 3.7366626c-3.8751563.3114969-12.424125-.016908-15.9593438 1.1354355" fill="#efefed"/><path d="m56.5758375 25.6712491s8.715 5.5887362 14.3174062 5.993227l-9.2570625-5.0275215 17.0789063 4.3446994-9.8923125-4.5866135 14.616 1.0866626s-10.9574063-3.4940982-26.8629375-1.810454" fill="#c9c9c3"/><path d="m64.5559687 16.1579767s6.8099063-5.9431534 9.3246563-7.4765767c2.5154062-1.53277301 5.9489062-5.01776687 5.9489062-5.01776687l-5.9961562 8.63347237 12.6269062-5.14847851-5.478375 5.14847851s14.5169063-1.1230797 17.2495313-1.4105153c2.7326245-.2880859 0 2.8541963 0 2.8541963l8.9236875 2.4171902-15.4763438 3.4511779-10.2092812.9891166v-4.248454z" fill="#efefed"/><path d="m10.9719094 75.7753681-2.96559378-1.8780859-7.76409374 8.7199632.52696875 3.1273252 8.35931249-8.0117792z" fill="#aab8ba"/><path d="m112.261603 75.7753681 2.965594-1.8780859 7.764094 8.7199632-.526969 3.1273252-8.359313-8.0117792z" fill="#aab8ba"/><path d="m116.431744 29.9147607 6.626156 5.0808467-.811125-2.5407485h1.351875l-2.04225-1.076908h3.935531l-4.530093-2.4789693h2.907187l-2.312625-1.7350184h.825563l-2.84025-2.4861227h4.598343l-4.057593-2.1447117 3.850875-1.573092-2.558063-.799227 3.0135-2.103092-4.095.0409693.946313-.7517546-1.101844-1.3201227 1.217344-1.7421718-5.246719-.0747852.794062-2.9250798-8.043656.8460491 4.545188 2.6304908-1.570407.8044294.946969.5358528-.946969.8037791 3.631031.5560123-4.442156.9182331 4.568157 1.019681-.992907 1.1991657h1.96875l-4.4625.862957 3.486657 2.1017914-2.186625-.4935828 6.002062 4.0943313h-2.23125l1.14975 1.7350184h-2.733937z" fill="#dbdbd7"/><path d="m18.4794094 17.4611264-1.0224375-1.1094233.2270625 1.3506871-2.1964688-1.6511289.53025 1.4098651-4.4428125-3.4167117 3.1460625 4.0715706-2.6630625-1.1562454 1.4161875 2.5095337-2.8126875-1.4293742 1.3164375 2.6545521-3.33703122-2.6545521 2.17153122 4.6893619-3.05418747-2.8060736.338625 2.6363436-3.19003125-1.8306135 1.7535 3.6677301-1.0854375-.5371534-.74878125 1.5444785-2.10590625-.3661227 2.12821875 4.753092-3.01284375.5104908 4.14421875 6.883497.5079375-5.1913988 1.393875 1.0762577.09515625-1.0762577 1.1326875.5150429-1.01128125-3.4999509 2.70178127 3.612454-.97846877-4.5378405 1.51462497.3914847-1.42668747-3.4485767 4.51237497 1.630319-.6109687-4.0058896 3.7137187.5592638-2.081625-2.8867116 2.0442188.8876687-.1437188-2.3820736 1.6662188.7875214z" fill="#dbdbd7"/><path d="m56.6062875 84.1010503.8439375-1.0235828s.8091563-4.0442577 1.4417813-4.4331411c.632625-.3882331 2.7142499-.7537055 2.7142499-.7537055s2.2450313.6587607 2.6309063.7517546c.385875.0936441.8806875 1.3116687 1.525125 4.435092.6437812 3.1234233 2.0566875-.8636074 2.0566875-.8636074l-.6450938-5.8150429-9.3384374-.4565154-1.8434063 3.0792025z" fill="#443e3b"/><path d="m101.381569 99.3832589c-7.7490003 6.7222211-20.8621877 3.9753251-24.5240627.5599141-3.6625313-3.4160613-7.8658125-10.029681-7.7581875-14.619546.107625-4.5905153 1.2435937-9.0139018 5.8189687-10.9992883 0 0 6.03225-3.8426626 15.6194062-3.4160614 9.5871563.4272515 14.3580933 5.2050552 15.3339373 6.8516319 1.212094 2.0465153 3.080438 15.0565521-4.490062 21.6233497m-55.0265628.5599141c-3.6625312 3.415411-16.7750625 6.162307-24.5247187-.5599141-7.5698437-6.5667976-5.7021562-19.5768344-4.4894063-21.6233497.9751875-1.6465767 5.7461251-6.4243804 15.3332813-6.8516319 9.5871562-.4266012 15.6194062 3.4160614 15.6194062 3.4160614 4.5760313 1.9853865 5.7113438 6.408773 5.8189688 10.9992883.1082812 4.589865-4.0956563 11.2034847-7.7575313 14.619546m59.0480628-28.6076442c-6.3564378-2.4744171-15.5747815-3.1045644-22.3846878-2.0731779-8.3068125 1.257043-14.886375 6.4503927-14.886375 6.4503927s-1.0775625-1.1751043-2.1544687-1.2817546c-.6634688-.065681-3.955875-.2848344-4.3712813-.2828835-.4160625-.0019509-3.7084687.2172025-4.3712812.2828835-1.0775625.1066503-2.155125 1.2817546-2.155125 1.2817546s-6.5795625-5.1933497-14.8857188-6.4503927c-6.8105625-1.0313865-16.0289062-.4012392-22.3853437 2.0731779-2.0671875.8044295-9.80240625 2.5622086-9.80240625 2.5622086v4.6965154s3.17559375-.8889694 4.52418745 1.9210061c.664125 1.3838528.580125 11.0025399 5.7526875 18.2007853 4.2203438 5.8729198 10.775625 7.3549688 18.1840313 7.0291658 12.1176562-.532601 17.8696875-10.099264 20.9829375-22.6677425 0 0-3.8725313-4.7017178 4.1560312-4.6750552 8.0285625.0266625 4.1560313 4.6750552 4.1560313 4.6750552 3.1125937 12.5684785 8.864625 22.1351415 20.9822812 22.6677425 7.4084063.325803 13.9636873-1.156246 18.1840313-7.0291658 5.172562-7.1982454 5.089219-16.8169325 5.752687-18.2007853 1.348594-2.8099755 4.524188-1.9210061 4.524188-1.9210061v-4.6965154s-7.735219-1.7577791-9.802406-2.5622086" fill="#142019"/></g></g></svg>