<svg height="293" viewBox="0 0 201 293" width="201" xmlns="http://www.w3.org/2000/svg" xmlns:xlink="http://www.w3.org/1999/xlink"><linearGradient id="a" x1="50.000093%" x2="50.000093%" y1="100%" y2="-.000169%"><stop offset="0" stop-color="#fdddc8"/><stop offset="1" stop-color="#e9cdba"/></linearGradient><mask id="b" fill="#fff"><path d="m108.356867.53575652h-.033819-16.9076099v25.93721738c0 9.8537304-10.6172667 14.5473131-24.5468857 19.1691652-13.9372762 4.6174087-15.7003334 13.1920522-15.7003334 13.1920522l-51.168219 87.1658087h24.1455238l35.5348857-49.6323826 9.4106286 49.6323826h77.5055999c4.90121-39.69867.188876-54.5697217.188876-54.5697217l31.196476 54.5697217h22.57262l-37.5334-86.5583217s-1.992134-8.6584348-15.930048-13.2758435c-13.928981-4.6212174-21.826686-9.8391305-21.826686-19.6928609v-25.93721738z" fill="#fff" fill-rule="evenodd"/></mask><g fill="none" fill-rule="evenodd"><path d="m108.356867.53575652h-.033819-16.9076099v25.93721738c0 9.8537304-10.6172667 14.5473131-24.5468857 19.1691652-13.9372762 4.6174087-15.7003334 13.1920522-15.7003334 13.1920522l-51.168219 87.1658087h24.1455238l35.5348857-49.6323826 9.4106286 49.6323826h77.5055999c4.90121-39.69867.188876-54.5697217.188876-54.5697217l31.196476 54.5697217h22.57262l-37.5334-86.5583217s-1.992134-8.6584348-15.930048-13.2758435c-13.928981-4.6212174-21.826686-9.8391305-21.826686-19.6928609v-25.93721738z" fill="url(#a)" mask="url(#b)" transform="translate(0 147)"/><g transform="translate(28)"><path d="m141.284304 72.5654223c0 48.1174647-17.176583 87.4061587-61.3391825 87.4061587-44.1581215 0-60.4922511-39.759655-60.4922511-87.8771196 0-48.1263623 41.0959919-57.818243 61.2374737-57.818243 20.1414819 0 60.5939599 10.1628417 60.5939599 58.2892039" fill="#fedec8"/><path d="m66.1126372 103.381459c0 6.608072-5.4577166 11.969145-12.1807125 11.969145-6.7274737 0-12.1743158-5.361073-12.1743158-11.969145 0-6.6087072 5.4468421-11.9672386 12.1743158-11.9672386 6.7229959 0 12.1807125 5.3585314 12.1807125 11.9672386" fill="#6dcff6"/><path d="m62.9798874 103.37898c0 4.611731-3.7683319 8.357809-8.4079028 8.357809-4.6434089 0-8.4066235-3.746078-8.4066235-8.357809 0-4.6041039 3.7632146-8.3514531 8.4066235-8.3514531 4.6395709 0 8.4079028 3.7473492 8.4079028 8.3514531" fill="#2a1d01"/><path d="m51.02997 99.0503978c0 1.3328002-1.0912874 2.4228112-2.4294898 2.4228112-1.3433199 0-2.4346073-1.090011-2.4346073-2.4228112 0-1.3321648 1.0912874-2.4107353 2.4346073-2.4107353 1.3382024 0 2.4294898 1.0785705 2.4294898 2.4107353" fill="#fff"/><path d="m53.5602729 129.876985c8.3330607 5.019135 17.2539838 8.118833 26.2945263 8.003794 9.0955546 0 17.8098623-3.496297 26.4749148-8.003794-3.183028 3.727646-7.1630929 6.819082-11.6772873 9.045501-4.5052388 2.262647-9.6060162 3.496297-14.7522105 3.57638-5.1417166.009533-10.2789555-1.130688-14.8148988-3.357742-4.5321053-2.191462-8.624753-5.282263-11.5250445-9.264139" fill="#c42c76"/><path d="m95.9075992 103.381459c0 6.608072 5.4577168 11.969145 12.1807128 11.969145 6.727473 0 12.174316-5.361073 12.174316-11.969145 0-6.6087072-5.446843-11.9672386-12.174316-11.9672386-6.722996 0-12.1807128 5.3585314-12.1807128 11.9672386" fill="#6dcff6"/><path d="m99.040349 103.37898c0 4.611731 3.768332 8.357809 8.407263 8.357809 4.644049 0 8.407263-3.746078 8.407263-8.357809 0-4.6041039-3.763214-8.3514531-8.407263-8.3514531-4.638931 0-8.407263 3.7473492-8.407263 8.3514531" fill="#2a1d01"/><path d="m99.516396 99.0503978c0 1.3328002 1.091287 2.4228112 2.42949 2.4228112 1.34332 0 2.434607-1.090011 2.434607-2.4228112 0-1.3321648-1.091287-2.4107353-2.434607-2.4107353-1.338203 0-2.42949 1.0785705-2.42949 2.4107353" fill="#fff"/><path d="m22.2970623 102.710546s7.8904049-46.8615681 31.6031984-54.0098783c28.1271984-8.4779328 52.1579113-1.5978352 59.7310363 1.5698698 12.00928 5.0242191 24.966559 51.1834775 24.966559 51.1834775s6.32064-38.9365859 2.52864-50.8695035c-3.79264-11.9316464-13.273919-23.55059-13.273919-23.55059s-3.16-13.1881779-15.16928-16.3285532c-12.009919-3.13973967-20.2265585-9.7338286-20.2265585-9.7338286v3.13973969l-20.8585587-3.76768763 1.2646396 3.76768763-25.2831983 2.19781779 3.1606396 3.76832322-17.065919 5.0242191 3.792 1.8838438-17.0652794 10.0484382h6.9526397l-8.1110931 15.2874815-2.0021862 2.611577 3.792 1.2558959-5.688 15.6999697h5.0566396l-3.6647044 15.7787809-.1279352.5504078 3.16-.627948z" fill="#edc866"/><path d="m114.579361 50.5847022 11.377279-18.8403449-12.641919 14.4447093s-45.5084773-11.3043341-63.207036 4.3956356c0 0 26.8631984-14.1300998 64.471676 0" fill="#c6a956"/><path d="m112.050977 48.7009219s11.37728 7.2220369 19.909919 31.0866009c0 0-4.424639-21.3527723-18.645919-33.5983926z" fill="#c6a956"/><path d="m98.46157 44.9327894-18.013919-8.1645944.948 2.8264013-16.433919-4.0816616 5.0566397 5.0235835-11.3772794-1.2558959 2.528 1.5698699-13.5892793 2.1978178 6.9526396.9425575s-10.1132793 1.8838438-12.9572793 5.338193c-2.844 3.4543493-12.0092794 27.0043037-12.0092794 27.0043037s14.2212794-25.4344338 21.1739191-27.3182776c6.9532793-1.8844794 47.721757-4.0822972 47.721757-4.0822972" fill="#c6a956"/><g fill="#efe08a"><path d="m113.947169 20.7542514-8.532639-5.6528026 5.056 5.0248547-6.514462-1.2533536-3.282178-.6311258.316 3.1403752 4.74064.941922-12.3259195.9419219 7.9012795 2.1978178-2.8440001 4.3962711h9.4806401z"/><path d="m127.536577 40.5365182c-.632.9419219-4.42464 5.0242191-3.16 10.0484382 1.264 5.0242191 5.056 13.5027874 5.056 13.5027874l-1.264-12.5608655 3.160639 2.1984534z"/><path d="m106.678338 38.0246629c-8.84864-.313974-24.9665591-6.9080629-24.9665591-6.9080629l13.5892794 2.8257657-1.264-3.1397397 7.9006397.9419219s-11.3772794-5.652167-10.1132794-5.338193c1.2646397.313974 13.9059194 2.1984533 13.9059194 2.1984533z"/><path d="m36.8346615 47.7587458c-1.896 6.2801149-7.9012793 25.7490434-7.9012793 25.7490434l2.2126397-11.6189436s-.948-.9412864-.948-2.1978178c0-1.2558959 6.6366396-11.932282 6.6366396-11.932282"/></g><path d="m32.7261498 252.492655s2.5318381 23.477499 4.4988421 40.507091h80.6510041c1.931182-18.698612 5.868389-39.565169 5.868389-39.565169l8.532639 16.015214 25.599199-21.666746-19.910559-48.985659-18.013919-9.420491s-8.53264 28.260836-36.9758381 29.203393c-28.4431984.941286-43.6131174-29.203393-43.6131174-29.203393l-13.2732794 4.70961-25.59919836 43.333492 18.96255866 32.971081z" fill="#542f82"/><path d="m56.5680939 293h42.1898381c7.016607-5.299423 12.419312-13.204067 12.029109-21.352772-.632639-13.188814-5.688639-34.54095-12.0092791-35.796846-6.3212793-1.256532-20.2265587-3.768323-20.2265587-3.768323s-8.2166396-1.88448-18.961919 6.908062c-10.7452793 8.792543-18.3305587 30.145315-10.1132793 45.217337 2.0002672 3.668538 4.4137651 6.55087 7.092089 8.792542" fill="#c42c76"/><path d="m84.0386008 254.195805c-1.4706154 0-2.662332-1.184712-2.662332-2.645263 0-1.461186 1.1917166-2.645898 2.662332-2.645898s2.662332 1.184712 2.662332 2.645898c0 1.460551-1.1917166 2.645263-2.662332 2.645263m9.0520567 6.877555c-2.3962267-5.819323-4.2596032-11.374883-1.0644211-11.639282 0 0-4.2602429-6.613156-12.5139838-1.058232-8.2531012 5.554924-10.3832226 32.537618-21.0331903 31.214987 0 0 14.9012551 2.241037 24.760583-.528799 9.6514332-2.711997 12.2472389-12.16808 9.8510122-17.988674" fill="#fff"/></g></g></svg>