<?xml version="1.0" encoding="UTF-8"?>
<svg width="201px" height="293px" viewBox="0 0 201 293" version="1.1" xmlns="http://www.w3.org/2000/svg" xmlns:xlink="http://www.w3.org/1999/xlink">
    <!-- Generator: Sketch 54.1 (76490) - https://sketchapp.com -->
    <title>avatar / poppetje-4</title>
    <desc>Created with Sketch.</desc>
    <defs>
        <polygon id="path-1" points="0 0.231902187 200.977593 0.231902187 200.977593 115.390427 0 115.390427"></polygon>
    </defs>
    <g id="avatar-/-poppetje-4" stroke="none" stroke-width="1" fill="none" fill-rule="evenodd">
        <g id="Group-44" transform="translate(0.000000, 4.000000)">
            <path d="M80.320713,190.864993 C80.320713,190.864993 76.4364056,171.789963 78.718337,170.173168 C80.9996074,168.557685 109.683723,164.438334 122.070406,169.288062 L124,190.864993 L85.862263,208 L80.320713,190.864993 Z" id="Fill-1" fill="#AFB1B4"></path>
            <g id="Group-7" transform="translate(2.000000, 3.000000)">
                <path d="M157.898948,198.571768 C157.898948,198.571768 156.081427,189.6786 141.713599,184.890021 C127.354324,180.097493 116.40841,175.2286 116.40841,165.010903 L116.40841,138.110862 L99.0574266,138.110862 L81.707101,138.110862 L81.707101,165.010903 C81.707101,175.2286 70.7611874,180.097493 56.4025694,184.890021 C42.0340844,189.6786 40.2165628,198.571768 40.2165628,198.571768 L0.623798671,288.967545 L25.5152272,288.967545 L48.9917123,237.495921 L58.6937123,288.967545 L99.0574266,288.967545 L139.421799,288.967545 L149.123799,237.495921 L172.600284,288.967545 L197.491712,288.967545 L157.898948,198.571768 Z" id="Fill-3" fill="#BFA573"></path>
                <path d="M161.700285,60.6472096 C161.700285,110.485556 144.036185,151.179916 98.6224844,151.179916 C53.2120724,151.179916 36.4156206,109.997745 36.4156206,60.1593986 C36.4156206,10.3111777 78.6757934,0.271883827 99.3881721,0.271883827 C120.101209,0.271883827 161.700285,10.7989886 161.700285,60.6472096" id="Fill-5" fill="#D0B37D"></path>
            </g>
            <g id="Group-25" transform="translate(0.000000, 83.000000)">
                <path d="M77.6491997,41.6191566 C84.537898,45.7976159 91.9122915,46.3996253 99.3861964,46.3033566 C106.904914,46.3033566 114.108623,45.3710003 121.271472,41.6191566 C118.640678,44.7221753 111.224767,50.1481722 99.4237603,50.1481722 C87.6220948,50.1481722 80.0467013,44.9331753 77.6491997,41.6191566" id="Fill-8" fill="#494032"></path>
                <path d="M85.209897,12.8378334 C85.209897,19.6933553 79.5871692,25.2551834 72.6615659,25.2551834 C65.7300315,25.2551834 60.1185069,19.6933553 60.1185069,12.8378334 C60.1185069,5.98099281 65.7300315,0.422461562 72.6615659,0.422461562 C79.5871692,0.422461562 85.209897,5.98099281 85.209897,12.8378334" id="Fill-10" fill="#896B4E"></path>
                <path d="M81.9823643,12.8346025 C81.9823643,17.6190275 78.1000987,21.5060431 73.3209118,21.5060431 C68.5364528,21.5060431 64.6594593,17.6190275 64.6594593,12.8346025 C64.6594593,8.05809 68.5364528,4.17107437 73.3209118,4.17107437 C78.1000987,4.17107437 81.9823643,8.05809 81.9823643,12.8346025" id="Fill-12" fill="#2A1D01"></path>
                <path d="M69.6712131,8.34458844 C69.6712131,9.72663844 68.5469311,10.8574666 67.1682689,10.8574666 C65.7843344,10.8574666 64.6600525,9.72663844 64.6600525,8.34458844 C64.6600525,6.96253844 65.7843344,5.84291969 67.1682689,5.84291969 C68.5469311,5.84291969 69.6712131,6.96253844 69.6712131,8.34458844" id="Fill-14" fill="#FFFFFF"></path>
                <path d="M115.905629,12.8378334 C115.905629,19.6933553 121.528356,25.2551834 128.454619,25.2551834 C135.385494,25.2551834 140.997019,19.6933553 140.997019,12.8378334 C140.997019,5.98099281 135.385494,0.422461562 128.454619,0.422461562 C121.528356,0.422461562 115.905629,5.98099281 115.905629,12.8378334" id="Fill-16" fill="#896B4E"></path>
                <path d="M119.133491,12.8346025 C119.133491,17.6190275 123.015756,21.5060431 127.794943,21.5060431 C132.579402,21.5060431 136.455737,17.6190275 136.455737,12.8346025 C136.455737,8.05809 132.579402,4.17107437 127.794943,4.17107437 C123.015756,4.17107437 119.133491,8.05809 119.133491,12.8346025" id="Fill-18" fill="#2A1D01"></path>
                <path d="M119.623535,8.34458844 C119.623535,9.72663844 120.747817,10.8574666 122.12648,10.8574666 C123.510414,10.8574666 124.634696,9.72663844 124.634696,8.34458844 C124.634696,6.96253844 123.510414,5.84291969 122.12648,5.84291969 C120.747817,5.84291969 119.623535,6.96253844 119.623535,8.34458844" id="Fill-20" fill="#FFFFFF"></path>
                <g id="Group-24" transform="translate(0.000000, 95.609375)">
                    <mask id="mask-2" fill="white">
                        <use xlink:href="#path-1"></use>
                    </mask>
                    <g id="Clip-23"></g>
                    <path d="M163.488326,15.3665366 C163.488326,15.3665366 162.706732,13.6132584 157.956542,11.4346834 C151.427667,8.44046156 151.349244,8.60003031 127.656286,0.231902187 L100.488994,20.5947209 L73.3210436,0.231902187 C49.6287452,8.60003031 49.5496633,8.44046156 43.0207879,11.4346834 C38.2712567,13.6132584 37.4896633,15.3665366 37.4896633,15.3665366 L-0.000461311475,114.039368 L28.2192797,114.039368 L49.6386305,68.1257678 L53.1215321,114.039368 L99.4609289,115.326468 L99.4602698,115.390427 L100.488994,115.358118 L101.51706,115.390427 L101.51706,115.326468 L147.855798,114.039368 L151.339358,68.1257678 L172.758709,114.039368 L200.977791,114.039368 L163.488326,15.3665366 Z" id="Fill-22" fill="#0095DA" mask="url(#mask-2)"></path>
                </g>
            </g>
            <g id="Group-34" transform="translate(36.000000, 0.000000)">
                <path d="M43.0405051,170.090422 C43.6878788,177.908037 64.8982323,198.801248 64.8982323,198.801248 C64.8982323,198.801248 87.3317677,180.187596 86.3607071,169.113468 L96.9662121,181.538422 C96.9662121,189.906275 77.0079293,215.283963 77.0079293,215.283963 L65.0144444,199.246459 L53.3735354,215.935266 C53.3735354,215.935266 33.0534848,191.724771 33.0534848,180.08389 L43.0405051,170.090422 Z" id="Fill-26" fill="#F4F4F4"></path>
                <path d="M96.8423182,181.538488 C96.8423182,189.906341 76.8768131,215.284029 76.8768131,215.284029 L64.8833283,199.246525 L53.2424192,215.935332 C53.2424192,215.935332 32.9289343,191.724837 32.9289343,180.083956" id="Stroke-28" stroke="#DBDCDD"></path>
                <path d="M129.157364,44.1085211 C128.722061,42.0958239 128.232263,40.1254018 127.661051,38.2032 C127.12398,36.3979156 126.469384,32.2635303 126.469384,32.2635303 C126.469384,32.2635303 125.440545,32.0369615 125.244889,31.598356 C124.755091,30.5031633 124.300747,27.0603743 124.300747,27.0603743 C124.300747,27.0603743 121.123626,24.267567 119.522919,22.3665028 C118.403475,21.0374752 115.000495,16.9116771 115.000495,16.9116771 L113.456909,17.0576587 L109.333677,14.1030165 C109.333677,14.1030165 107.402061,10.8134752 106.029838,9.70375046 C105.524283,9.29420917 104.353626,10.2004844 103.830343,9.78631927 C103.030646,9.15417248 101.360343,7.91762202 101.360343,7.91762202 L99.506202,5.53303486 L93.9831717,4.04811743 C93.9831717,4.04811743 92.7146869,3.04804404 92.0528687,2.93839266 C90.7371111,2.71975046 87.9250404,3.26734679 87.9250404,3.26734679 L86.3650404,1.9125578 L81.3383737,2.5658422 L77.8027677,0.741401835 L76.3642323,1.86962202 L73.0078687,1.45149358 C73.0078687,1.45149358 71.6632222,0.637695413 71.0112525,0.570319266 C70.0073636,0.466612844 68.1400909,0.968631193 68.1400909,0.968631193 C68.1400909,0.968631193 65.6884747,0.152851376 64.7292323,0.152851376 C63.0392323,0.152851376 58.3887778,1.29758532 58.3887778,1.29758532 L56.1006465,0.934943119 L52.3227677,2.15894312 C52.3227677,2.15894312 50.3701414,1.81479633 49.4384747,1.97398899 C48.3275657,2.16290642 46.3007475,3.18675963 46.3007475,3.18675963 L42.7953434,3.24753028 L41.2819596,3.94044771 L38.1737778,3.51571376 L35.6939293,4.70866789 C35.6939293,4.70866789 34.2560505,4.54286972 33.5646869,4.84672294 C33.286303,4.96892477 32.7380707,4.56995229 32.7380707,4.56995229 L29.2819091,7.24782385 L26.3746364,9.37215413 L24.8586263,9.38866789 C24.8586263,9.38866789 23.9368081,11.3240807 23.1758485,11.9357505 C22.2067576,12.7145394 19.9527677,13.4530349 19.0302929,14.1030165 C18.3586263,14.5766312 18.9390303,15.0905394 18.1780707,15.6341725 C17.840596,15.8752734 16.1840808,16.1216587 15.8387273,16.3733284 C15.2990303,16.7650349 16.0672121,17.1679706 15.526202,17.5781725 C13.4527677,19.1509431 11.4522121,20.8254385 10.1541818,22.3665028 C9.29276768,23.3896954 8.50160606,24.4439339 7.77347475,25.5278972 C6.32049495,27.6912 5.11766667,29.9700991 4.10458586,32.3480807 C3.72837374,33.2325578 3.37776768,34.1302459 3.05079798,35.0398239 C2.00685859,37.9429431 1.19665657,40.9755303 0.519737374,44.1085211 C-0.47889899,48.7257688 0.307666667,53.5590165 0.138272727,58.5098422 C-0.878747475,88.3013284 7.52660606,105.278136 7.52660606,105.278136 C13.6431717,100.738833 5.89044444,63.5082275 24.4403939,51.1836771 C30.3468586,47.2600073 61.401101,46.8980257 64.9472121,46.8980257 C68.4939798,46.8980257 99.3978687,47.3049248 105.236707,51.1836771 C123.786657,63.5082275 116.033273,100.738833 122.150495,105.278136 C122.150495,105.278136 130.555192,88.3013284 129.538172,58.5098422 C129.369434,53.5590165 130.156,48.7257688 129.157364,44.1085211" id="Fill-30" fill="#272524"></path>
                <path d="M122.139333,84.813622 C122.139333,84.813622 120.993626,82.8900991 120.641707,78.9789798 C119.725141,68.7946128 117.529586,49.9907229 113.609889,46.7335486 C108.185343,42.2246312 97.5174646,44.7895486 94.8045354,44.6713101 C92.0922626,44.552411 82.6501919,42.1063927 80.5938283,39.2587596 C80.5938283,39.2587596 71.9829697,42.2246312 64.7292323,42.2246312 C57.4754949,42.2246312 53.3483232,39.3776587 53.3483232,39.3776587 C53.3483232,39.3776587 46.2725152,43.0556037 44.0316566,43.0556037 C41.790798,43.0556037 38.3707475,41.2760807 38.3707475,41.2760807 C38.3707475,41.2760807 38.0188283,43.2775486 35.6584747,44.3608514 C31.4610505,46.286356 20.9172626,43.7670165 18.9127677,46.496411 C16.9076162,49.225145 10.5395859,56.5810349 10.185697,69.7504294 C9.83180808,82.9204844 7.11953535,68.3269431 7.11953535,67.0216954 C7.11953535,65.7171083 8.77079798,46.3775119 9.59610101,45.7843376 C10.421404,45.1911633 13.3700404,43.5298789 13.3700404,43.5298789 C13.3700404,43.5298789 9.54094949,36.109255 15.8466061,30.3604844 C17.6285253,28.7355303 26.3418081,30.3604844 26.3418081,30.3604844 C26.3418081,30.3604844 25.4554444,19.9198239 28.9647879,18.2585394 C32.4747879,16.5979156 36.9394343,20.2547229 41.905697,17.7836037 C49.7253939,13.8949431 52.8762525,24.5469798 55.5885253,22.6485578 C58.300798,20.7507963 59.2469091,11.366356 65.7304949,14.8177321 C78.6247879,21.6841541 73.395899,14.698833 82.3586768,15.8858422 C91.3214545,17.0721908 88.1863535,21.2660257 94.7270606,25.0192734 C101.512667,28.9125578 106.652263,25.9704661 108.656758,28.1060257 C110.661909,30.2422459 111.133323,38.6655853 119.388323,41.9874936 C127.643323,45.3094018 122.808374,75.4456954 123.162263,77.581255 C123.516152,79.7168147 123.908121,84.813622 122.139333,84.813622" id="Fill-32" fill="#393735"></path>
            </g>
            <g id="Group-43" transform="translate(58.000000, 7.000000)" fill="#4F4C49">
                <path d="M29.4213921,30.8851554 C29.4213921,30.8851554 23.1456698,34.8441554 20.7169317,34.7424054 C18.2875349,34.6413161 14.9886143,30.1742268 14.664519,25.1997089 C14.664519,25.1997089 17.8824159,31.7989232 19.7044635,32.2046018 C21.5265111,32.6102804 21.324281,28.2456018 22.9434397,29.0569589 C24.5632571,29.8696375 25.8253841,30.4728696 26.6883206,29.9720482 C28.8548841,28.7153696 25.7094476,12.9401554 20.8177175,4.89529821 C20.8177175,4.89529821 33.0648286,24.4887804 29.4213921,30.8851554" id="Fill-35"></path>
                <path d="M59.051404,19.8201071 C59.051404,19.8201071 58.7819833,30.2475 55.0970468,30.6981071 C51.4121103,31.1487143 55.0970468,0.0502142857 55.0970468,0.0502142857 C55.0970468,0.0502142857 52.0411976,20.2416429 51.862023,22.7655714 C51.6821897,25.2895 50.2441817,26.6413214 49.3456738,26.7318393 C48.4465071,26.8223571 49.5255071,30.6981071 48.4465071,31.2385714 C47.3681659,31.7803571 44.3149516,32.5005357 43.5047135,28.0843214 C43.5047135,28.0843214 43.3242214,32.5005357 46.5592452,33.1315179 C49.7949278,33.7631607 57.2537294,32.1397857 58.5125627,30.6981071 C59.7700786,29.2557679 59.8603246,22.6433393 59.051404,19.8201071" id="Fill-37"></path>
                <path d="M0.523163492,35.2308054 C2.06195714,35.1369839 3.57967143,35.1363232 5.09145714,35.1409482 C6.60126667,35.1343411 8.10712381,35.1713411 9.5813619,35.1079125 C10.3086,35.0861089 11.0661397,35.0458054 11.6860048,34.8865732 C12.2643698,34.8000196 12.6286476,34.3930196 12.8427349,33.7977161 C13.0238857,33.1891982 13.0416714,32.4538232 12.9501079,31.7276982 C12.874354,30.9936446 12.7109889,30.2549661 12.4870206,29.5176089 C12.9731635,30.1241446 13.3163619,30.8370554 13.5811714,31.5843232 C13.8281952,32.3355554 13.9895841,33.1555018 13.8420286,34.0401982 C13.7524413,34.4775911 13.5877587,34.9394304 13.2570762,35.3147161 C13.0897587,35.4898054 12.9204651,35.6748054 12.6978143,35.7943946 C12.476481,35.9133232 12.2334095,36.0461268 12.0364492,36.0877518 C11.1919571,36.3427875 10.4179492,36.3764839 9.63340159,36.4280196 C8.07286984,36.4676625 6.54132222,36.3705375 5.02294921,36.1657161 C3.50523492,35.9661804 2.00003651,35.6807518 0.523163492,35.2308054" id="Fill-39"></path>
                <path d="M63.2504794,12.8116464 C62.9935746,16.31145 62.7702651,19.8013429 62.7360111,23.2773607 C62.7366698,25.0130571 62.755773,26.7480929 62.9454873,28.4481107 C63.0350746,29.2977893 63.1595746,30.1382179 63.3624635,30.9409857 C63.5646937,31.7371464 63.8545349,32.5148071 64.2879794,33.0737714 C64.4836222,33.3122893 64.8189159,33.5686464 65.1318127,33.8197179 C65.4598603,34.0357714 65.7892254,34.2524857 66.1409873,34.3918964 C66.8399,34.6925214 67.5783365,34.7764321 68.3457571,34.6304143 C68.7284794,34.5762357 69.1237175,34.4507 69.5360825,34.3297893 C69.9504238,34.2068964 70.3884794,34.0463429 70.9549873,34.0086821 C71.0906857,33.992825 71.2441698,34.0047179 71.4042413,34.03445 C71.5603603,34.0470036 71.7145032,34.1097714 71.8660111,34.1837714 C72.0326698,34.2524857 72.1288444,34.3337536 72.2375349,34.4130393 C72.3462254,34.4843964 72.452281,34.6000214 72.5543841,34.6978071 C72.7566143,34.9165036 72.9074635,35.2402536 72.9713603,35.4318607 C73.0517254,35.6214857 73.0069317,35.5527714 73.1208921,35.6360214 C73.3672571,35.7523071 73.8178286,35.81045 74.2216302,35.8487714 C74.6392651,35.8818071 75.0760032,35.9042714 75.4956143,35.9155036 C76.3216619,35.9472179 77.1589079,35.8203607 77.9737571,35.5970393 C79.6113603,35.1550214 81.1653048,34.3264857 82.5591778,33.2719857 C81.3543603,34.5484857 79.853773,35.5666464 78.1720349,36.2148071 C77.3282016,36.5279857 76.4303524,36.7380929 75.5087889,36.7810393 C75.0569,36.8107714 74.6208206,36.8087893 74.1669556,36.8015214 C73.7051857,36.7717893 73.2671302,36.7843429 72.698646,36.5755571 C72.5557016,36.5147714 72.3903603,36.4216107 72.2526857,36.2709679 C72.1789079,36.1996107 72.1374079,36.1196643 72.0840508,36.0410393 L71.9878762,35.8454679 C71.8949952,35.6294143 71.844273,35.5587179 71.7474397,35.4549857 C71.6842016,35.4113786 71.646654,35.3572 71.5682651,35.3129321 C71.4984397,35.2660214 71.4226857,35.2098607 71.380527,35.2072179 C71.3337571,35.1880571 71.2883048,35.1603071 71.2224317,35.1662536 C71.1664397,35.1563429 71.1038603,35.1484143 71.0208603,35.1649321 C70.3858444,35.2336464 69.5084159,35.6849143 68.5736778,35.861325 C67.6297175,36.0787 66.556646,35.9690214 65.6502333,35.5858071 C65.187146,35.4047714 64.7793921,35.1470929 64.3775667,34.8847893 C64.0067016,34.5920929 63.6299079,34.3357357 63.261019,33.900325 C62.6299556,33.0598964 62.3381381,32.1448071 62.1148286,31.2521821 C61.9046937,30.3542714 61.7683365,29.4576821 61.7064159,28.5643964 C61.5812571,26.7771643 61.5911381,25.0031464 61.7123444,23.2410214 C61.9422413,19.7187536 62.4540746,16.232825 63.2504794,12.8116464" id="Fill-41"></path>
            </g>
        </g>
    </g>
</svg>