<svg height="293" viewBox="0 0 201 293" width="201" xmlns="http://www.w3.org/2000/svg" xmlns:xlink="http://www.w3.org/1999/xlink"><linearGradient id="a" x1="50.000005%" x2="50.000005%" y1="99.999999%" y2=".000219%"><stop offset="0" stop-color="#fdddc8"/><stop offset="1" stop-color="#e9cdba"/></linearGradient><mask id="b" fill="#fff"><path d="m111.458147.50880435h-17.2501294v26.82679135c0 10.1905304-10.8812229 15.0448521-25.1558387 19.8249869-14.2844252 4.7755391-16.0913138 13.6444913-16.0913138 13.6444913l-52.44031378 90.1502831h24.74580648l36.4176657-51.3321222 9.6458944 51.3321222h40.1282291 40.128228l9.644587-51.3321222 36.41832 51.3321222h24.745806l-52.440314-90.1502831s-1.806888-8.8689522-16.09066-13.6444913c-14.275269-4.7801348-25.157146-9.6344565-25.157146-19.8249869v-26.82679135z" fill="#fff" fill-rule="evenodd"/></mask><mask id="c" fill="#fff"><path d="m.0000655.16687952h223.5886125v107.78920448h-223.5886125z" fill="#fff" fill-rule="evenodd"/></mask><mask id="d" fill="#fff"><path d="m.00029293.60525004h18.04345697v16.40061216h-18.04345697z" fill="#fff" fill-rule="evenodd"/></mask><mask id="e" fill="#fff"><path d="m0 294.986301h223.588678v-294.70832056h-223.588678z" fill="#fff" fill-rule="evenodd"/></mask><g fill="none" fill-rule="evenodd"><path d="m111.458147.50880435h-17.2501294v26.82679135c0 10.1905304-10.8812229 15.0448521-25.1558387 19.8249869-14.2844252 4.7755391-16.0913138 13.6444913-16.0913138 13.6444913l-52.44031378 90.1502831h24.74580648l36.4176657-51.3321222 9.6458944 51.3321222h40.1282291 40.128228l9.644587-51.3321222 36.41832 51.3321222h24.745806l-52.440314-90.1502831s-1.806888-8.8689522-16.09066-13.6444913c-14.275269-4.7801348-25.157146-9.6344565-25.157146-19.8249869v-26.82679135z" fill="url(#a)" mask="url(#b)" transform="translate(-10 144)"/><path d="m173.087878 19.7857952s-.887485-8.8202169-10.210994-13.34060243c-9.323509-4.51973494-20.524164-6.27831325-20.524164-6.27831325s-2.353309 23.63898798-30.558315 23.69624098c-28.2056611-.057253-30.5583161-23.69624098-30.5583161-23.69624098s-11.200655 1.75857831-20.5241638 6.27831325c-9.3235087 4.52038553-10.2109941 13.34060243-10.2109941 13.34060243-24.0852398 33.0753253-50.5008655 88.1702888-50.5008655 88.1702888h27.5258012l34.0741988-45.9442406 9.1014737 45.9442406h40.0783158 2.029099 40.078971l9.100819-45.9442406 34.074199 45.9442406h27.525801s-26.415626-55.0949635-50.500866-88.1702888" fill="#cc92b0" mask="url(#c)" transform="translate(-11 187)"/><g transform="translate(-11)"><path d="m94.9860865 181.446336c0 1.781691-1.4455204 3.225227-3.2290058 3.225227s-3.2296608-1.443536-3.2296608-3.225227c0-1.781037 1.4461754-3.225228 3.2296608-3.225228s3.2290058 1.444191 3.2290058 3.225228" fill="#f4e6ed"/><path d="m92.0326924 179.917182c0 .458504-.3720234.830671-.8311579.830671s-.8318129-.372167-.8318129-.830671c0-.457851.3726784-.830017.8318129-.830017s.8311579.372166.8311579.830017" fill="#fff"/><path d="m100.279953 185.148512c0 1.781691-1.4461752 3.225227-3.2296606 3.225227-1.7828304 0-3.2290059-1.443536-3.2290059-3.225227 0-1.781037 1.4461755-3.225227 3.2290059-3.225227 1.7834854 0 3.2296606 1.44419 3.2296606 3.225227" fill="#f4e6ed"/><path d="m97.3261661 183.600848c0 .458504-.3720234.83067-.8311579.83067s-.8311579-.372166-.8311579-.83067c0-.457851.3720234-.830017.8311579-.830017s.8311579.372166.8311579.830017" fill="#fff"/><path d="m106.275097 187.557196c0 1.781037-1.446175 3.224573-3.229661 3.224573-1.783485 0-3.2290056-1.443536-3.2290056-3.224573 0-1.781691 1.4455206-3.225227 3.2290056-3.225227 1.783486 0 3.229661 1.443536 3.229661 3.225227" fill="#f4e6ed"/><path d="m103.32131 186.174946c0 .458505-.372023.830671-.831158.830671-.459134 0-.831813-.372166-.831813-.830671 0-.458504.372679-.830016.831813-.830016.459135 0 .831158.371512.831158.830016" fill="#fff"/><path d="m119.149988 188.463543c0 1.781691-1.446175 3.225227-3.229661 3.225227-1.78283 0-3.229005-1.443536-3.229005-3.225227 0-1.781037 1.446175-3.225227 3.229005-3.225227 1.783486 0 3.229661 1.44419 3.229661 3.225227" fill="#f4e6ed"/><path d="m116.196201 187.081948c0 .45785-.372023.830016-.831158.830016-.459134 0-.831158-.372166-.831158-.830016 0-.458505.372024-.830671.831158-.830671.459135 0 .831158.372166.831158.830671" fill="#fff"/><path d="m112.691453 188.476363c0 1.781037-1.446176 3.225227-3.229661 3.225227-1.783486 0-3.229006-1.44419-3.229006-3.225227s1.44552-3.225227 3.229006-3.225227c1.783485 0 3.229661 1.44419 3.229661 3.225227" fill="#f4e6ed"/><path d="m109.948108 186.79965c0 .458504-.372024.830671-.831158.830671-.459135 0-.831158-.372167-.831158-.830671 0-.45785.372023-.830017.831158-.830017.459134 0 .831158.372167.831158.830017" fill="#fff"/><path d="m125.543289 187.544376c0 1.781037-1.446176 3.225227-3.229006 3.225227-1.783485 0-3.229661-1.44419-3.229661-3.225227s1.446176-3.225227 3.229661-3.225227c1.78283 0 3.229006 1.44419 3.229006 3.225227" fill="#f4e6ed"/><path d="m122.589567 186.162192c0 .458504-.372023.830671-.831158.830671-.459134 0-.831158-.372167-.831158-.830671 0-.45785.372024-.830017.831158-.830017.459135 0 .831158.372167.831158.830017" fill="#fff"/><path d="m131.553497 185.136346c0 1.781037-1.446175 3.224573-3.229661 3.224573-1.78283 0-3.229006-1.443536-3.229006-3.224573 0-1.781691 1.446176-3.225227 3.229006-3.225227 1.783486 0 3.229661 1.443536 3.229661 3.225227" fill="#f4e6ed"/><path d="m128.59971 183.754097c0 .458504-.372023.83067-.831158.83067-.459134 0-.831158-.372166-.831158-.83067 0-.458505.372024-.830671.831158-.830671.459135 0 .831158.372166.831158.830671" fill="#fff"/><path d="m136.758091 181.446336c0 1.781691-1.446175 3.225227-3.229661 3.225227-1.783485 0-3.229005-1.443536-3.229005-3.225227 0-1.781037 1.44552-3.225228 3.229005-3.225228 1.783486 0 3.229661 1.444191 3.229661 3.225228" fill="#f4e6ed"/><path d="m133.804304 180.06474c0 .45785-.372023.830017-.831158.830017-.459134 0-.831813-.372167-.831813-.830017 0-.458504.372679-.830671.831813-.830671.459135 0 .831158.372167.831158.830671" fill="#fff"/><g fill="#ddb6cc"><path d="m70.9696842 215.930757c-.7289824.170059-1.4579649-.282558-1.6282573-1.009886-.1702924-.727982.2822924-1.456618 1.0119298-1.626022.7283275-.170713 1.45731.281905 1.6276024 1.009886.1709473.727982-.2822924 1.455964-1.0112749 1.626022m4.9404445-2.597972c-.8357427.015044-1.8083743.138663-2.6821053.336193.5442807-.464391 1.0689123-.980454 1.4900585-1.475586 1.3846082-1.627984 1.1239298-2.402405.4663392-2.960328-.6589006-.558577-1.4658246-.690045-2.8504328.937939-.3956023.464391-.7951345 1.022968-1.1488187 1.595935-.0484678-.727982-.1539181-1.47297-.3045614-2.118538-.4866433-2.080602-1.2647486-2.331766-2.106386-2.135544-.8409824.196221-1.4265263.765918-.939883 2.845865.1617778.6907.4211462 1.461196.7270175 2.175443-.6209123-.41926-1.2968421-.803854-1.9184093-1.085759-1.948538-.882343-2.621193-.419914-2.978807.365626-.3569591.78554-.2619884 1.595934 1.6858947 2.478931.6189474.281251 1.3505497.534377 2.0716725.725366-.717848.215189-1.4448655.493824-2.0572632.796005-1.9177543.947095-1.9852163 1.760106-1.6027134 2.533219.3831579.773767 1.0708772 1.213957 2.9892865.267515.5816141-.287137 1.2090761-.669115 1.7906901-1.083796-.2403743.680234-.4368655 1.397751-.5534503 2.043319-.3785731 2.102187.2357895 2.640488 1.0859415 2.79354.8501521.153053 1.613848-.138009 1.9930761-2.240195.1316491-.72929.1991111-1.580891.1958362-2.388015.4270409.686775.9372632 1.37355 1.4370059 1.92297 1.4376608 1.581545 2.24 1.42326 2.8792514.843098.6399065-.580161.874386-1.361777-.5639298-2.943322-.3903626-.429725-.8645614-.87384-1.3603743-1.281326.7735205.123619 1.5928889.187718 2.3094269.175291 2.1391345-.037282 2.5484913-.743679 2.5334269-1.6064-.0150643-.86272-.4486549-1.554074-2.5877894-1.517446"/><path d="m75.9315462 237.268536c-.8147836.190335-1.6289123-.314608-1.8195088-1.128928-.1899415-.813011.3156959-1.626676 1.1304796-1.816357.8141286-.190334 1.6289122.315263 1.8195087 1.128928.1899416.813011-.3156959 1.626676-1.1304795 1.816357m5.5200936-2.902116c-.9339883.016352-2.0205848.155015-2.9964913.374783.6084679-.518024 1.1946667-1.09557 1.6649357-1.64826 1.5470409-1.819627 1.2562339-2.683656.5200468-3.30764-.7355322-.624639-1.6367719-.771151-3.1844678 1.047822-.4414503.519333-.8881404 1.142663-1.2837427 1.783654-.0537076-.813011-.1716024-1.646953-.3399299-2.36774-.5442807-2.32457-1.4134269-2.605821-2.3533099-2.386053-.939883.219114-1.5941988.855526-1.0505731 3.179442.1807719.772459.470924 1.633217.8121637 2.43053-.693614-.468315-1.4487953-.897386-2.1437193-1.211994-2.1764678-.986994-2.9290292-.469624-3.3279064.40814s-.2927719 1.783654 1.8836959 2.769994c.6916491.313954 1.5090527.597167 2.3153217.80974-.8029942.240699-1.6151579.552037-2.2989474.890192-2.1430643 1.057634-2.2190409 1.966793-1.791345 2.830822.4276959.864028 1.1972865 1.35589 3.3396959.298256.6503859-.320495 1.3518596-.747603 2.0015906-1.210686-.268538.760031-.4886082 1.561923-.6182924 2.283364-.4231111 2.348771.2632983 2.950517 1.2136608 3.12123.9497076.170712 1.8031345-.153707 2.2269006-2.503786.1467135-.81432.2220351-1.76534.2187602-2.667959.4768188.76788 1.0472983 1.534452 1.6053334 2.148626 1.6066433 1.767301 2.5026433 1.590702 3.2172164.942517s.9772163-1.522025-.6300819-3.288672c-.4362105-.480089-.9660819-.976529-1.5201871-1.432417.8645614.138009 1.7802105.209957 2.5805847.195567 2.3899884-.041206 2.8478129-.830671 2.8307837-1.794772-.0163743-.963448-.5017076-1.73656-2.8916959-1.6947"/><path d="m81.4184982 257.926734c-.3071812.45785-.9280935.580816-1.387228.273402-.4591345-.30676-.5816141-.927474-.2744328-1.385324.3078363-.45785.9287486-.580815 1.3878831-.273402.4584795.30676.581614.927474.2737777 1.385324m1.3557895-3.884531c-.4434152.427763-.9058245.983069-1.2778479 1.529219.0596023-.523911.0825263-1.066137.0602573-1.544917-.0733567-1.57435-.6038831-1.860834-1.2411696-1.831401-.6359766.030088-1.1376842.364318-1.0643275 1.938669.0209591.450001.0871111.951674.1847018 1.438303-.3923275-.367588-.8252632-.716862-1.232655-.98961-1.3112515-.87711-1.8568421-.621368-2.2118363-.092878-.3549941.52849-.3838128 1.130235.9274386 2.007346.4349006.291715.963462.576237 1.4880936.808432-.5455907.086338-1.1042807.21846-1.5817544.378708-1.4952982.502981-1.6256374 1.090991-1.4225965 1.694699.2036959.603054.6634854.992227 2.1594386.4899.4748538-.160248.9975205-.391135 1.4828538-.650802-.2790175.476819-.5305263.992881-.7086784 1.463813-.5567251 1.474277-.1833918 1.947171.4126316 2.172172.5960234.225 1.1894269.116424 1.746807-1.358507.1696375-.447385.315041-.96868.4204913-1.484743.2128655.487938.4683041.973913.7309473 1.380091.8553919 1.324495 1.4586199 1.306181 1.994386.961486.5351111-.34535.8010292-.886267-.0543626-2.210762-.2973567-.459159-.6896842-.952329-1.0983859-1.386632.5770292.156323 1.1979415.270131 1.7441871.315262 1.5732398.130161 1.925614-.358431 1.9786667-.99288.0523976-.633796-.2148304-1.173405-1.7880702-1.304219-.4270409-.034666-.9064795-.035974-1.3800234-.006541.4794386-.323111.9542924-.700511 1.3348304-1.066791 1.1344094-1.09557.9994854-1.682926.5567252-2.140122-.4434152-.45785-1.0256843-.612865-2.1607486.482705"/><path d="m85.8657497 279.592857c-.7289824.170058-1.4579649-.282559-1.6282573-1.009887-.1702924-.727982.2822924-1.456618 1.0119298-1.626022.7283275-.170059 1.4579649.281905 1.6276024 1.009887.1709473.727981-.2822924 1.455963-1.0112749 1.626022m4.9404445-2.597973c-.8357427.015044-1.8083743.139317-2.6821053.336193.5442807-.464391 1.0695672-.980453 1.4900585-1.475586 1.3846082-1.627984 1.1239298-2.401751.4663391-2.960328-.6589005-.558577-1.4651695-.690045-2.8504327.937939-.3956023.465045-.7951345 1.022968-1.1488187 1.596589-.0484678-.728636-.1539181-1.473624-.3045614-2.119192-.4866433-2.080602-1.2647486-2.331766-2.106386-2.135544-.8409824.196221-1.4265263.765918-.939883 2.845865.1617778.6907.4211462 1.461196.7270175 2.175443-.6209123-.41926-1.2968421-.803854-1.9184093-1.085759-1.9478831-.882343-2.621193-.419914-2.9788071.365626-.356959.78554-.2619883 1.595935 1.6858948 2.479585.6189474.280597 1.3505497.533723 2.0716725.724712-.717848.215189-1.4448655.493824-2.0572632.796005-1.9177543.947096-1.9852163 1.760761-1.6027134 2.533219.3831579.773767 1.0708772 1.213957 2.9892865.267516.5816141-.287138 1.2090761-.669116 1.7906901-1.083797-.2403743.680888-.4368655 1.398405-.5527953 2.04332-.3792281 2.102186.2351345 2.640487 1.0852865 2.794194.8501521.152398 1.614503-.13801 1.9930761-2.24085.1316491-.72929.1991111-1.580891.1958362-2.388015.4270409.686775.9372632 1.37355 1.4370059 1.92297 1.4376608 1.581545 2.24 1.42326 2.8792514.843099.6399065-.579508.874386-1.361778-.5632748-2.943323-.3910176-.429071-.8652164-.873839-1.3610293-1.281326.7741755.123619 1.5928889.187719 2.3094269.175291 2.1391345-.037282 2.5491462-.743679 2.5334269-1.605746-.0150643-.863374-.4486549-1.554728-2.5877894-1.5181"/><path d="m94.9678784 224.652083c-.5704796.132777-1.1416141-.221076-1.2745731-.790773-.1336141-.569696.2213801-1.139392.7918596-1.272823.5704795-.132776 1.1409591.221076 1.2745731.790773.133614.569696-.2213801 1.139392-.7918596 1.272823m3.8669473-2.032855c-.6543158.010466-1.4153918.108576-2.0991813.262283.426386-.363664.8370527-.76788 1.165848-1.15509 1.0846316-1.274132.8802807-1.880456.3654737-2.317376-.515462-.437574-1.1468538-.540263-2.2314854.733868-.3091462.364318-.6222222.801238-.8992749 1.249931-.0379883-.569696-.1198596-1.153128-.2384093-1.65938-.380538-1.627984-.9896608-1.824859-1.6485614-1.670498-.6582456.153052-1.1167252.599129-.7361871 2.227113.1270643.540918.3301052 1.143972.5698245 1.703203-.4866433-.32769-1.0158596-.629217-1.5018479-.849639-1.5254269-.691354-2.0520234-.328998-2.3316959.285829-.2796726.615482-.2050059 1.249277 1.319766 1.940631.4840234.219768 1.0564679.418606 1.6217076.567734-.5626198.168096-1.1311345.386556-1.6105731.622676-1.5011929.741063-1.5542456 1.378129-1.2549239 1.983799.2999766.605017.8390175.949712 2.3402105.208649.4552047-.224346.9464327-.523911 1.4022924-.847677-.1886316.532415-.3425497 1.094262-.4335907 1.598551-.2967017 1.646299.1847018 2.067521.8501521 2.187216.6647953.119695 1.2634386-.107922 1.5594854-1.75422.1028304-.570351.155883-1.23685.1539181-1.868683.3340351.537647.7335673 1.075294 1.1239298 1.505673 1.1258948 1.237504 1.7540117 1.113884 2.2544094.659958.5003976-.453925.6844444-1.066136-.4414503-2.304294-.3052164-.336193-.6765848-.684159-1.0649825-1.003346.605848.096803 1.2470644.14782 1.8083743.137355 1.6741052-.028779 1.9943862-.582124 1.9832512-1.257126-.012444-.675001-.352374-1.216573-2.0264793-1.18714"/><path d="m99.9207673 246.28439c-.8704562.203416-1.7409123-.337501-1.9446082-1.206762-.203041-.868607.3373099-1.738522 1.207766-1.941285.8711109-.203416 1.7415669.336847 1.9446079 1.206108.203696.869262-.33731 1.738523-1.2077657 1.941939m5.8993217-3.101608c-.998176.017006-2.159439.165481-3.202807.400292.650386-.553998 1.276538-1.170788 1.7789-1.761415 1.654457-1.944555 1.343345-2.868758.557381-3.535911-.78662-.666499-1.750082-.823476-3.403883 1.120425-.472234.555307-.949053 1.221806-1.372164 1.905965-.057638-.868608-.183392-1.759453-.363509-2.530604-.580959-2.484164-1.5103626-2.783728-2.5144327-2.548917-1.0047252.233504-1.7042339.913738-1.1226199 3.397902.1925614.824785.5030175 1.744409.8678362 2.597319-.7414269-.500365-1.5490058-.959523-2.2910877-1.295716-2.3258011-1.054363-3.1301052-.501673-3.5564912.436266-.426386.937938-.313076 1.905964 2.0127251 2.960982.739462.334231 1.6125381.637066 2.4744796.865337-.8580117.25705-1.725848.589318-2.4567953.950366-2.2904328 1.13089-2.3709942 2.102186-1.9144796 3.025735.4571696.922895 1.2798129 1.449423 3.5695907.318533.6949239-.342734 1.4442105-.798621 2.1391345-1.2931-.2875322.812357-.5220117 1.669191-.6608655 2.439033-.4525848 2.510981.2809824 3.153934 1.2961871 3.33642 1.0152047.181832 1.927579-.164826 2.3801637-2.675807.156538-.87057.237754-1.887651.233825-2.851098.509567.820205 1.119345 1.640411 1.715368 2.295791 1.717333 1.888959 2.674901 1.699932 3.438597 1.007924.763695-.692661 1.044678-1.626676-.67331-3.515635-.465685-.512792-1.032234-1.04259-1.624328-1.529873.924164.147166 1.902035.223692 2.757427.209303 2.554386-.044477 3.043649-.888229 3.025965-1.918392-.018339-1.030163-.536421-1.856256-3.090807-1.811125"/><path d="m102.278727 267.74291c-.567204.132777-1.134409-.219114-1.267368-.78554-.132304-.56708.22007-1.13416.787275-1.266282.567205-.132123 1.135064.219768 1.267368.786194.132959.56708-.219415 1.133506-.787275 1.265628m3.845989-2.021735c-.651041.011773-1.408187.107922-2.088047.261628.423766-.361701.832468-.763301 1.159953-1.148549 1.078082-1.267591.875041-1.869991.362854-2.304949-.512842-.434303-1.140959-.536993-2.218386.730598-.308491.361702-.618947.796005-.89469 1.242736-.037988-.566426-.119205-1.147241-.237099-1.650222-.379228-1.618828-.984421-1.814395-1.638737-1.661996-.654971.153052-1.1114856.596513-.7322576 2.21534.1257544.537647.3281406 1.137431.5658946 1.693392-.4833683-.325728-1.0093098-.625293-1.4933332-.844407-1.5162573-.687429-2.0402339-.327036-2.3185965.284521-.2777076.610903-.2036959 1.242082 1.3125614 1.929512.4814036.21846 1.0505731.415989 1.6125381.564463-.5593451.167443-1.1252398.383941-1.6014035.619406-1.4926784.736485-1.545731 1.37028-1.2477193 1.972026.2980116.601746.8337777.94448 2.3264561.207341.4525848-.222384.941193-.520641 1.3944329-.843098-.187322.529798-.340585 1.088375-.4309709 1.590702-.2947369 1.636487.1833919 2.055093.8455669 2.174134.661521.119695 1.256234-.107268 1.550971-1.743755.102176-.567734.155228-1.230309.152608-1.858872.33207.535031.729638 1.069407 1.118035 1.496516 1.119345 1.231617 1.743533 1.108652 2.241965.656688.497123-.450655.680515-1.059596-.43883-2.291213-.304562-.333576-.67331-.67958-1.059743-.996805.602573.095495 1.240515.145858 1.797895.136047 1.664936-.028779 1.983906-.578853 1.972117-1.249931-.01179-.671731-.3491-1.210032-2.014035-1.181253"/><path d="m8.98567485 10.7987879c-.87700584.2040703-1.75401169-.3401173-1.95901754-1.21526509-.20500585-.8758019.33992982-1.75160381 1.21693567-1.95698229.87700585-.20407035 1.7540117.34011724 1.95901752 1.21591914.2050059.8758019-.3399298 1.75160384-1.21693565 1.95632824m9.05759065-1.29964033c-.0176842-1.03801167-.5403509-1.87064484-3.113731-1.8255139-1.0053801.01700586-2.1758129.16678827-3.2270409.40356219.6549707-.55857716 1.2863625-1.1799452 1.7926549-1.77515038 1.6669006-1.9589445 1.3531696-2.88968842.56131-3.56141998-.7925146-.67238563-1.7631813-.83067096-3.4294269 1.12827355-.4755088.55923124-.9569123 1.23096279-1.3826433 1.92035428-.05763742-.87514783-.18470175-1.77253409-.36612865-2.55022525-.58554386-2.50247803-1.52149708-2.80465912-2.5334269-2.56788519-1.0125848.23546579-1.71733333.92093284-1.13178948 3.42341087.19452632.83132503.50760234 1.75814452.87504094 2.61694056-.74732164-.50428922-1.56079532-.96671786-2.30811696-1.30552696-2.34414035-1.06221231-3.15433918-.50559736-3.584.4401902-.42900585.94447942-.31504093 1.92035428 2.02844445 2.9825666.74470175.33750095 1.62498245.6429524 2.49281871.87187747-.86390643.25901236-1.7382924.59455107-2.4751345.95821497-2.30746199 1.1387386-2.38933334 2.1172298-1.92888889 3.0479737.46044444.9307439 1.28898245 1.4605419 3.59644444.3211492.69950877-.3453498 1.45534503-.8045081 2.15550877-1.3029107-.29015204.8182436-.52659649 1.6816181-.66676023 2.4573471-.13819883.7691882-.16505263 1.3624312-.10807018 1.8235517h3.52439767c.10938011-.3231114.20631578-.7037811.28818713-1.1577068.15784795-.87711.2397193-1.9020403.23644444-2.8733366.51284211.8267465 1.12720464 1.652839 1.72781284 2.3141054 1.7304328 1.9026943 2.6952047 1.7123595 3.4647954 1.0151191.7695906-.6978944 1.051883-1.6391035-.6785498-3.5417978-.469614-.5167166-1.0400935-1.0510931-1.6367719-1.5416468.9307135.1478202 1.9164445.2256547 2.778386.210611 2.5733801-.0451309 3.0665731-.8947699 3.0482339-1.93212753" mask="url(#d)" transform="translate(96.280702 277.980439)"/><path d="m69.8634386 272.195568c-.4663392-.513446-1.0328889-1.043898-1.6249825-1.530527.9241638.147166 1.9026901.224346 2.7580819.208648 2.553731-.043822 3.0429942-.887575 3.02531-1.917738-.0183392-1.029508-.5364211-1.855601-3.0908071-1.811778-.9981754.01766-2.1594386.166134-3.202807.4016.650386-.554653 1.276538-1.170788 1.7795556-1.762069 1.6538011-1.943901 1.34269-2.868104.5567251-3.535257-.7866199-.667153-1.7500819-.82413-3.403883 1.120425-.471579.555306-.9490527 1.221151-1.3721638 1.90531-.0576374-.868607-.1827368-1.758798-.3635087-2.529949-.2665731-1.139393-.606503-1.815703-.9929357-2.195718l1.3027368 6.61201c.4872983.183794.8770059.599129 1.0047252 1.143971.1368889.583432-.066807 1.161631-.4748538 1.543609l.8429473 4.280899c.1630878.2008.3268305.394405.4899182.574275 1.7173333 1.888305 2.6755555 1.699932 3.4385965 1.006616.7636959-.692662 1.0446783-1.626022-.672655-3.514327"/><path d="m73.5978854 294.65122c.4977778-.451309.6805146-1.06025-.4388304-2.291212-.3039065-.334885-.67331-.680235-1.0590877-.99746.6025731.095495 1.2398596.145858 1.7978947.136701 1.6649357-.029433 1.9839064-.579507 1.9721169-1.250585-.0117894-.671731-.3497543-1.210032-2.01469-1.180599-.6510409.010465-1.4075322.107922-2.0873918.260975.4237661-.361048.8318128-.763302 1.1599532-1.14855 1.0774269-1.266937.874386-1.869337.3621988-2.304294-.5121871-.434304-1.1403041-.536993-2.2183859.729944-.3078363.362355-.6189474.796659-.8946901 1.242736-.0373333-.56708-.1192047-1.147242-.2364444-1.649569-.3117661-1.331036-.7774503-1.694046-1.2961872-1.698624l.8933801 4.535987c.5645848-.12689 1.1272047.223692 1.2595088.786848.1323041.56708-.2200702 1.13416-.7872748 1.266282-.0222691.005233-.0438831.005233-.0661521.007849l.291462 1.478856c0-.026163.0032749-.05298.0032749-.078488.3320701.534376.7289824 1.069407 1.118035 1.496516.5410059.595205.964772.869261 1.3158363.947095h.3975672c.1958363-.043823.3694036-.146512.5279065-.290408"/><path d="m39.7884912 229.156544c.3720234-.798622 1.321731-1.144626 2.1207953-.773113.7997193.371513 1.1461989 1.319916.7741755 2.118538-.3713684.797967-1.321076 1.144625-2.1207953.772458-.7997193-.370858-1.1461989-1.319262-.7741755-2.117883m-5.667462 6.71012c.6765848.758069 1.5961638 1.043245 3.4778948-.630525.6523509-.580815 1.3341754-1.321224 1.9190643-2.071445-.1041403.946442-.1309941 1.953712-.067462 2.824936.1820819 2.509673 1.0407486 2.945284 2.0552983 2.872028s1.8018245-.627909 1.6197427-3.137581c-.0491229-.682197-.1657077-1.43765-.3287954-2.175443.627462.675656 1.3400702 1.329728 2.0133801 1.837942 2.0101053 1.518754 2.9041404 1.160977 3.517193.350582.6137076-.811049.7152281-1.767301-1.2942222-3.284748-.7859649-.593243-1.7775906-1.183869-2.7312281-1.635833.8429474-.03532 1.7048889-.132776 2.4554854-.285829 2.4685848-.504289 2.7895205-1.410832 2.5858246-2.406329s-.8553918-1.703203-3.3246316-1.19826c-.7040936.143896-1.4815439.370859-2.2262456.644915.4846783-.709668.9300585-1.477548 1.2601637-2.185253 1.0623626-2.282056.5239766-3.07937-.3982222-3.507132-.9228538-.429071-1.880421-.326382-2.9427836 1.95502-.3530293.758069-.672655 1.660033-.9090994 2.544338-.2711579-.839174-.6176375-1.686196-.9883509-2.39848-.1912515-.367589-.3772632-.66977-.5580351-.92682-.7342222 1.164248-1.4664795 2.337652-2.195462 3.51956.269193.432995.5652398.868607.8776608 1.28198-.4512748-.177253-.917614-.334885-1.3774035-.470932-.67069 1.089684-1.3387602 2.185254-2.0029006 3.285402.0471579.010465.091041.022239.1408188.03205.7479766.156323 1.6079532.257704 2.4482807.29564-.717848.456542-1.4225965.978491-1.9996258 1.492591-1.881076 1.67377-1.7035789 2.618903-1.0263392 3.377626"/><path d="m26.735448 247.505673c-.7584562-.351891-1.0872515-1.251239-.7348772-2.008654.3530292-.757415 1.253614-1.085759 2.0127251-.733869.7578012.352545 1.0865965 1.251893.7342222 2.009308-.3530292.757415-1.253614 1.085759-2.0120701.733215m2.4305964 4.220724c-.0465029-.646877-.156538-1.36374-.3111111-2.063596.5953685.64099 1.2712983 1.262358 1.9098948 1.744409 1.9066199 1.439611 2.754152 1.100148 3.336421.331614.582269-.769188.6785497-1.676385-1.2280702-3.115997-.7453567-.562502-1.6858947-1.123041-2.5904093-1.551458.7990643-.032704 1.6171228-.125582 2.328421-.27144 2.3421755-.478126 2.6473919-1.337576 2.4541755-2.282056-.1938714-.944479-.8121638-1.615556-3.1543392-1.138084-.6687251.136701-1.4049123.352544-2.1122807.612865.4597895-.672386.8822456-1.401676 1.1953216-2.072753 1.008655-2.164977.4977778-2.921084-.3779181-3.327916-.2154854-.100073-.4342456-.169405-.6549708-.184449-2.7456374 4.708662-5.4080935 9.416669-7.9382456 13.994517.493193-.094187 1.1062456-.431688 1.9007252-1.138739.6189473-.550728 1.2660585-1.252547 1.8208187-1.964831-.0989006.89804-.1244445 1.853639-.0641871 2.680385.1729122 2.380821.9870409 2.79354 1.9498479 2.724209.962807-.069986 1.7088187-.59586 1.5359064-2.97668"/><path d="m17.6777918 265.244814c.5252866-.171366 1.0898714.115771 1.2608187.639682.1716024.523912-.1152748 1.088376-.6399064 1.259088-.5252866.171367-1.0898714-.114462-1.2614737-.639028-.1709474-.524565.1152749-1.088375.6405614-1.259742m-1.3649591-.446076c-.2567485-.141934-.5220116-.274056-.7872748-.393752-.359579.675656-.715883 1.346734-1.0662924 2.009308.3766082.112501.7728655.213228 1.1730526.283214-.514152.203416-1.030269.453925-1.4612397.7149-.1395088.084375-.2554386.164826-.3674386.244623-.2593685.49317-.516117.981761-.7702456 1.467082.0314385.085684.0700818.169405.1198596.251818.3301053.544187.8645614.824784 2.2138012.007195.4100117-.247894.8468772-.567735 1.2483742-.90916-.133614.516063-.2331696 1.055018-.2770526 1.536414-.1454035 1.570426.3405848 1.926241.9745965 1.985108.6353216.058866 1.1782924-.202763 1.3230409-1.773189.0504328-.544187.046503-1.174058-.0072046-1.767301.357614.478126.7761403.950366 1.1776374 1.323187 1.1579883 1.070715 1.7369824.903927 2.1705731.437574.4335906-.467007.5567251-1.056326-.6012632-2.127695-.313731-.291716-.6909941-.588011-1.0813567-.856834.5763743.041861 1.1828772.037936 1.7088187-.017006 1.5699649-.16221 1.8267135-.707705 1.7605614-1.340847-.066152-.633141-.4283509-1.113884-1.9983158-.95102-.6137076.063445-1.320421.215844-1.9505029.41599.3707135-.376092.7237427-.788157 1.0014503-1.178637.9149941-1.284597.6746199-1.837288.1552281-2.20553-.5193918-.36955-1.120655-.414681-2.0356492.869261-.2613333.36628-.5193918.801892-.7433918 1.246007-.0818713-.53176-.2063158-1.073332-.358269-1.538377-.2023859-.62006-.4231111-.998113-.6536608-1.224422-.4499649.839174-.8927251 1.667229-1.3302456 2.488743.1362339.336847.2881871.676964.4624093 1.003346"/><path d="m7.74673216 285.136506c.31569591-.677618 1.12196492-.971296 1.80051462-.656688.67920472.315263.97328652 1.120425.65759062 1.798043-.31569588.678272-1.12196489.97195-1.80116956.656688-.67854971-.315263-.97263158-1.120425-.65693568-1.798043m-1.57061988-1.105381c-.224-.0883-.45454971-.161556-.68378947-.238082-.4905731.975875-.95232749 1.89877-1.38329825 2.764761.45454971.066061.9228538.119041 1.39574269.140625-.60977778.386556-1.20842105.830671-1.69833918 1.266937-.36612865.325727-.63663158.617443-.83508772.884305-.14278362.288445-.28163743.569696-.41459649.841136-.09038597.458504.09104094.820206.37791813 1.142009.57506433.643606 1.35578947.885613 2.95326316-.535031.55345029-.49317 1.13309941-1.121079 1.62956725-1.758798-.08842105.803854-.11134503 1.658071-.05763743 2.39848.1545731 2.130966.88355556 2.500516 1.74484211 2.438379.86194152-.062791 1.52935672-.533068 1.37478362-2.664033-.0419181-.5782-.1408187-1.220498-.2790175-1.847099.5331462.573621 1.1383391 1.129582 1.7094736 1.561269 1.7061989 1.288521 2.46531.985032 2.9860117.296949.5213568-.688084.6071579-1.500441-1.0990409-2.788962-.6667602-.502981-1.5090526-1.004654-2.3179415-1.388594.7152281-.029433 1.4468304-.1125 2.0841169-.24266 2.0952515-.427763 2.3683743-1.197605 2.195462-2.042666s-.7263625-1.445498-2.822269-1.017735c-.5986433.122311-1.2575438.315262-1.8909006.548112.4119766-.6024.7905497-1.25451 1.0702223-1.855602.9018947-1.936706.4447251-2.61367-.337965-2.977334-.783345-.363663-1.5961637-.276672-2.4987134 1.660034-.29932164.643607-.57047953 1.409525-.77155556 2.159745-.22989473-.712284-.52397661-1.431763-.83901754-2.036125-.13492398-.257705-.26591813-.478781-.3942924-.671732-.58554386 1.152474-1.14292398 2.254585-1.66821053 3.298483.15129825.225001.30718129.447385.47026901.663229"/><path d="m49.5126456 249.306266c-.5311813-.247239-.761731-.87711-.514807-1.407562.2475789-.531106.8783158-.760685 1.410152-.5141.5311813.246585.7610761.876456.5141521 1.407562-.246924.530452-.8776608.760685-1.4094971.5141m4.2998831.78227c-.5220117-.393751-1.1809123-.786848-1.814924-1.087067.56-.022893 1.1330994-.0883 1.6315321-.190335 1.6407018-.334885 1.8542223-.93663 1.7192983-1.598551-.135579-.66192-.5691696-1.132198-2.2098714-.796659-.4683041.096148-.984421.246585-1.4795789.428417.3222456-.470932.6182924-.981762.8370526-1.451385.7067135-1.516792.3484445-2.04659-.2646082-2.331765-.6130526-.283868-1.2490292-.216498-1.9550877 1.29964-.2344795.503635-.447345 1.103419-.604538 1.690775-.180117-.557269-.4100117-1.119771-.6569357-1.593319-.7728655-1.484088-1.4121169-1.523332-2.0114152-1.211994-.5999532.311992-.9333333.857488-.1604678 2.340268.245614.471586.5730994.981107.9254737 1.446152-.5462456-.213881-1.1291696-.392443-1.6524912-.501673-1.6387369-.342079-2.0742924.126236-2.2124913.787503-.1381988.661266.0727018 1.26432 1.7120936 1.605746.4971228.103997 1.0689123.171366 1.6276023.196875-.4774737.303489-.9457777.650147-1.3295906.991573-1.2496842 1.112575-1.1317895 1.741138-.6818246 2.244773.4499649.50429 1.0610527.69397 2.3113918-.419259.4335907-.385249.8868304-.87711 1.2752281-1.376167-.0694269.629217-.0864561 1.297678-.044538 1.877185.1205146 1.667883.6909941 1.956983 1.365614 1.908581.6746199-.048401 1.1972866-.417297 1.076117-2.084526-.0327485-.453926-.1100351-.955598-.2181053-1.446152.4172164.448693.8901053.883651 1.3381053 1.221806 1.3354854 1.008578 1.9295439.770496 2.3369357.232195.4080467-.538301.4755087-1.174059-.8599766-2.182637"/><path d="m42.2002246 268.59752c-.3772632.809741-1.3394152 1.160323-2.150269.784232-.8108538-.376745-1.1619182-1.33823-.784655-2.147317.3766082-.809741 1.3394152-1.160323 2.149614-.784232.8108538.376745 1.1625731 1.338231.78531 2.147317m3.380959-3.624865c-.7145731.146512-1.5018479.376091-2.2570292.654726.4912281-.720133.9425029-1.497824 1.277193-2.215995 1.0774269-2.312797.5318362-3.12123-.403462-3.555533-.9352983-.434304-1.9059649-.33096-2.9833918 1.982491-.3576141.76788-.6818246 1.682926-.9215439 2.57835-.2750877-.849639-.626152-1.708435-1.0021053-2.43053-1.1796023-2.263088-2.1535438-2.323262-3.068538-1.848406-.9149941.47551-1.4245614 1.306835-.244959 3.569923.3746432.719479.8743859 1.495862 1.4121169 2.205529-.8337778-.326382-1.7225731-.599129-2.5209824-.764609-2.5006784-.521296-3.1648187.192297-3.3757193 1.200875-.2109006 1.007924.111345 1.928857 2.6120234 2.450152.7584561.158286 1.6302222.260975 2.4829941.300219-.7283275.462429-1.4422456.991573-2.0277895 1.512214-1.9072748 1.697316-1.7271579 2.655531-1.0407485 3.424065.6864094.769842 1.6184328 1.058942 3.5257076-.639028.6615205-.588665 1.3531696-1.338885 1.9465731-2.09957-.1061053.960177-.133614 1.980529-.0694269 2.864179.1670176 2.295792.8920702 2.877262 1.7880702 2.915198l1.9616374-2.659456c-.0039298-.16548-.0104795-.338155-.0235789-.525219-.0504328-.691354-.1683275-1.457272-.3333802-2.20553.4355556.46897.9117193.924858 1.3878831 1.332998l2.1784327-2.953133c-.6405614-.420568-1.3485848-.821514-2.0402339-1.149858.8540819-.034666 1.7284679-.134085 2.4888889-.289754.2777076-.05625.5239766-.119041.7499415-.185102l1.8195088-2.46585c-.2593684-.892808-.9949006-1.478202-3.3180819-1.003346"/><path d="m152.594433 215.930757c-.728983.170059-1.457965-.282558-1.628258-1.009886-.170292-.727982.282293-1.456618 1.011275-1.626022.728983-.170713 1.457965.281905 1.628258 1.009886.170292.727982-.282293 1.455964-1.011275 1.626022m4.940444-2.597972c-.836397.015044-1.808374.138663-2.68276.336193.544936-.464391 1.069567-.980454 1.490713-1.475586 1.384609-1.627984 1.12393-2.402405.465685-2.960328-.658246-.558577-1.46517-.690045-2.849778.937939-.395602.464391-.795135 1.022968-1.149474 1.595935-.048468-.727982-.153263-1.47297-.304561-2.118538-.486644-2.080602-1.264094-2.331766-2.105731-2.135544-.840983.196221-1.427182.765918-.939883 2.845865.161123.6907.421146 1.461196.727017 2.175443-.620912-.41926-1.297497-.803854-1.918409-1.085759-1.948538-.882343-2.621848-.419914-2.978807.365626s-.261988 1.595934 1.685895 2.478931c.618947.281251 1.349894.534377 2.071672.725366-.718503.215189-1.444865.493824-2.057263.796005-1.917754.947095-1.985871 1.760106-1.602713 2.533219.382502.773767 1.070877 1.213957 2.988631.267515.581614-.287137 1.209731-.669115 1.791345-1.083796-.240374.680234-.43752 1.397751-.55345 2.043319-.378573 2.102187.235789 2.640488 1.085941 2.79354.850152.153053 1.613848-.138009 1.993076-2.240195.130995-.72929.199112-1.580891.195837-2.388015.427041.686775.937263 1.37355 1.436351 1.92297 1.438315 1.581545 2.240654 1.42326 2.879906.843098.639251-.580161.874386-1.361777-.56393-2.943322-.390362-.429725-.864561-.87384-1.360374-1.281326.77352.123619 1.592889.187718 2.309427.175291 2.139134-.037282 2.548491-.743679 2.533427-1.6064-.015065-.86272-.448655-1.554074-2.58779-1.517446"/><path d="m166.559588 253.572449c-.294082-.30349-.653661-.464391-1.190737-.225001l1.232655 1.671153c.449965-.669769.296047-1.096878-.041918-1.446152"/><path d="m159.828192 254.595678c-1.311252-.877764-1.857497-.622022-2.211836-.093532-.354995.529144-.384468 1.13089.926783 2.008.435556.291062.964117.576237 1.488749.807778-.546246.086338-1.104281.21846-1.581755.378708-1.495953.503635-1.625637 1.091645-1.422596 1.694699.203696.603054.663485.992881 2.159438.4899.212866-.071294.437521-.161556.662831-.258358l.856047-4.345652c-.291462-.249856-.588819-.488592-.877661-.681543"/><path d="m160.875883 254.147312c.00262.058212.012444.122966.016374.18314l.366784-1.860834c-.266573.257705-.426386.748258-.383158 1.677694"/><path d="m151.708912 195.101389c-.499742.744333-1.509052.942517-2.253754.444769-.746012-.499057-.945123-1.506981-.446035-2.251969.499742-.743679 1.509052-.943171 2.254409-.444115.745357.498403.945123 1.506327.44538 2.251315m5.643883-4.545798c-1.319766-.484667-2.626432-.918971-3.887251-1.308143-.577029.612865-1.149474 1.322533-1.630222 2.026968.09628-.842444.132959-1.713014.098245-2.48351-1.330245-.38394-2.587134-.713592-3.726783-.992227-.030784.32769-.039299.702473-.018995 1.141355.034059.729944.140819 1.544917.299977 2.336344-.638596-.597821-1.340725-1.165556-2.002246-1.608362-2.129964-1.425222-3.01745-1.009887-3.593824-.151091s-.623532 1.836633 1.506433 3.261856c.707368.473547 1.566035.935976 2.418152 1.312067-.886831.140626-1.793965.355161-2.569451.615482-2.429941.817589-2.641497 1.773188-2.310736 2.752987.330105.980453 1.077426 1.612941 3.507368.796005.772211-.259666 1.621053-.634449 2.408982-1.056325-.453239.775074-.861941 1.61294-1.150783 2.37755-.90517 2.395864-.298667 3.164398.670035 3.528716.968702.365626 1.932819.189027 2.837988-2.206837.274433-.72602.512187-1.573697.68248-2.411562.346479.792734.761731 1.581545 1.188117 2.242157 1.389848 2.151896 2.369029 2.121808 3.239485 1.561269.869801-.560539 1.301427-1.438958-.089076-3.590853-.481403-.74695-1.119345-1.547534-1.783485-2.252623.936608.253126 1.945918.438882 2.833403.512138 2.555696.211265 3.128796-.582123 3.214597-1.61294.085801-1.030163-.3491-1.907273-2.904141-2.118538-.694269-.057559-1.473684-.059521-2.241965-.012428.778761-.523911 1.549661-1.136122 2.167299-1.731981.349754-.338155.624842-.645569.836397-.927474"/><path d="m176.592365 224.652083c-.57048.132777-1.140959-.221076-1.274573-.790773-.132959-.569696.22138-1.139392.791859-1.272823.57048-.132776 1.14096.221076 1.274574.790773.133614.569696-.221381 1.139392-.79186 1.272823m3.867602-2.032855c-.654971.010466-1.416047.108576-2.099836.262283.426386-.363664.837053-.76788 1.166503-1.15509 1.083977-1.274132.880281-1.880456.364819-2.317376-.515462-.437574-1.146854-.540263-2.231486.733868-.309146.364318-.622222.801238-.899275 1.249931-.037333-.569696-.119859-1.153128-.237754-1.65938-.381193-1.627984-.990316-1.824859-1.649216-1.670498-.658246.153052-1.116726.599129-.735533 2.227113.12641.540918.330106 1.143972.56917 1.703203-.486643-.32769-1.015205-.629217-1.501848-.849639-1.525427-.691354-2.052023-.328998-2.331696.285829-.279017.615482-.205006 1.249277 1.319766 1.940631.484024.219768 1.057123.418606 1.621708.567734-.561965.168096-1.131135.386556-1.610573.622676-1.501193.741063-1.554246 1.378129-1.254269 1.983799.299321.605017.838362.949712 2.339555.208649.455205-.224346.946433-.523911 1.402293-.847677-.188632.532415-.34255 1.094262-.433591 1.598551-.296702 1.646299.184702 2.067521.850152 2.187216s1.263439-.107922 1.56014-1.75422c.102176-.570351.155229-1.23685.153264-1.868683.334035.537647.733567 1.075294 1.124584 1.505673 1.125895 1.237504 1.753357 1.113884 2.253755.659958.500397-.453925.684444-1.066136-.44145-2.304294-.305217-.336193-.676585-.684159-1.064983-1.003346.605848.096803 1.247064.14782 1.808374.137355 1.674106-.028779 1.995041-.582124 1.983252-1.257126-.012445-.675001-.351719-1.216573-2.025825-1.18714"/><path d="m181.545254 246.28439c-.870456.203416-1.740912-.337501-1.944608-1.206762-.203041-.868607.33731-1.738522 1.207766-1.941285.871111-.203416 1.741567.336847 1.944608 1.206108.203696.869262-.33731 1.738523-1.207766 1.941939m5.899321-3.101608c-.998175.017006-2.159438.165481-3.202807.400292.650386-.553998 1.276538-1.170788 1.779556-1.761415 1.653801-1.944555 1.34269-2.868758.556725-3.535911-.78662-.666499-1.750082-.823476-3.403883 1.120425-.471579.555307-.949053 1.221806-1.372164 1.905965-.057637-.868608-.182737-1.759453-.363508-2.530604-.580959-2.484164-1.509708-2.783728-2.514433-2.548917-1.004725.233504-1.704234.913738-1.12262 3.397902.193216.824785.503017 1.744409.867836 2.597319-.741427-.500365-1.548351-.959523-2.291088-1.295716-2.325801-1.054363-3.130105-.501673-3.556491.436266-.426386.937938-.313076 1.905964 2.01338 2.960982.738807.334231 1.612538.637066 2.473825.865337-.857357.25705-1.725848.589318-2.456795.950366-2.289778 1.13089-2.370995 2.102186-1.91448 3.025735.457825.922895 1.279813 1.449423 3.569591.318533.694924-.342734 1.44421-.798621 2.139134-1.2931-.287532.812357-.522011 1.669191-.660865 2.439033-.452585 2.510981.281637 3.153934 1.296187 3.33642 1.01586.181832 1.927579-.164826 2.380164-2.675807.156538-.87057.237754-1.887651.234479-2.851098.508912.820205 1.11869 1.640411 1.714714 2.295791 1.717333 1.888959 2.675555 1.699932 3.438596 1.007924.763696-.692661 1.044678-1.626676-.672655-3.515635-.466339-.512792-1.032889-1.04259-1.624982-1.529873.924163.147166 1.90269.223692 2.758082.209303 2.553731-.044477 3.042994-.888229 3.025309-1.918392-.018339-1.030163-.536421-1.856256-3.090807-1.811125"/><path d="m186.523359 267.088839c-.567205.132776-1.135064-.219114-1.267368-.78554-.132959-.567081.219415-1.134161.787274-1.266283.567205-.132123 1.135065.219768 1.267369.786194.132304.56708-.22007 1.133506-.787275 1.265629m3.845333-2.021736c-.651041.011773-1.407532.107922-2.087391.261629.423766-.361702.831812-.763302 1.159953-1.14855 1.078082-1.267591.875041-1.869991.362199-2.304948-.512188-.434304-1.140304-.536993-2.218386.730598-.307837.361701-.618948.796005-.89469 1.242736-.037334-.566426-.119205-1.147242-.236445-1.650223-.379228-1.618827-.984421-1.814395-1.639392-1.661996-.654315.153053-1.11083.596513-.732257 2.215341.126409.537647.32814 1.13743.56655 1.693391-.484024-.325728-1.009965-.625292-1.493334-.844406-1.516912-.68743-2.040888-.327036-2.318596.284521-.277708.610903-.204351 1.242082 1.311906 1.929511.482059.21846 1.051228.41599 1.613193.564464-.559345.167442-1.125239.38394-1.601403.619406-1.492679.736484-1.545731 1.37028-1.247719 1.972026.298011.601746.833777.944479 2.326456.20734.452584-.222384.941193-.520641 1.394432-.843098-.187321.529798-.340584 1.088375-.43097 1.590702-.294737 1.636487.183391 2.055093.845567 2.174134.66152.119695 1.256234-.107267 1.550971-1.743755.102175-.567734.155228-1.230308.152608-1.858871.33207.53503.728982 1.069407 1.118035 1.496516 1.119345 1.231616 1.743532 1.108651 2.24131.656688.497778-.450656.680515-1.059596-.438831-2.291213-.303906-.333577-.673309-.679581-1.059087-.996805.602573.095494 1.239859.145857 1.797894.136046 1.664936-.028779 1.983907-.578853 1.972117-1.24993-.011789-.671732-.349754-1.210033-2.01469-1.181254"/><path d="m195.534709 290.172988c-.390363-.429725-.864562-.873839-1.360374-1.28198.77352.123619 1.592888.187718 2.309426.175945 2.139135-.037936 2.548492-.744333 2.533427-1.6064-.015064-.86272-.44931-1.554728-2.587789-1.517446-.836398.015044-1.808374.138663-2.682105.335539.54428-.463737 1.068912-.980453 1.489403-1.474932 1.385263-1.628638 1.124585-2.402405.466339-2.960328-.658245-.559231-1.465169-.690699-2.849778.937285-.395602.465045-.795134 1.023622-1.149473 1.596589-.047813-.727982-.153263-1.473624-.303907-2.119846-.487298-2.079948-1.265403-2.331112-2.106386-2.134236-.840982.196221-1.427181.765264-.939883 2.845211.161123.691354.421147 1.461196.727018 2.175443-.153918-.103998-.310456-.204725-.468959-.302836l1.342035 1.818974c.168982-.36628.494503-.656688.918269-.755453.728982-.170059 1.457965.281905 1.628257 1.010541.170293.727327-.282292 1.455309-1.011275 1.626022-.045193.010465-.089731.011119-.134924.017005l3.653427 4.953285c.436211.062791.783345-.115771 1.091182-.395059.639251-.580162.874386-1.361778-.56393-2.943323"/><path d="m199.169927 256.953933c-.241029.680235-.436865 1.397751-.55345 2.04332-.378573 2.102186.23579 2.640487 1.085287 2.79354.850807.152399 1.614503-.138009 1.993076-2.240195.131649-.729944.199111-1.580891.196491-2.38867.427041.686775.936608 1.374205 1.436351 1.923625 1.165193 1.281326 1.913169 1.420643 2.494783 1.118462-1.040093-1.930819-2.10966-3.899575-3.208046-5.899072-.102831.501673-.484679.923549-1.016515 1.048477-.728982.169405-1.45862-.282559-1.628257-1.009886-.170948-.727982.282292-1.456618 1.011275-1.626677.272467-.063445.54428-.039898.787274.052326-.999485-1.811124-2.019929-3.643179-3.058713-5.488315-.406082.374129-.578994 1.081181-.247579 2.500516.161778.6907.421801 1.460542.727018 2.174134-.620913-.417952-1.296842-.802546-1.917755-1.084451-1.948538-.882342-2.621848-.419914-2.978807.365626s-.262643 1.595935 1.685895 2.479586c.618947.279943 1.349895.533722 2.071672.724057-.718502.21519-1.44552.494478-2.057263.796659-1.917754.946442-1.985871 1.759453-1.602713 2.53322.382503.773766 1.070877 1.213957 2.988631.266861.581614-.286483 1.209076-.668461 1.791345-1.083143"/><path d="m203.620781 274.562784c-.567204.132777-1.135064-.219768-1.267368-.786194-.132959-.566426.22007-1.133506.787275-1.265629.567204-.132776 1.135064.219769 1.267368.786195.132304.56708-.22007 1.133506-.787275 1.265628m3.845334-2.021735c-.650386.011773-1.407533.107922-2.087392.261628.423766-.361701.831813-.763301 1.159953-1.148549 1.078082-1.267591.875041-1.869991.362199-2.304949-.512187-.434303-1.140304-.536993-2.218386.730598-.307836.361702-.618947.796005-.89469 1.242082-.037334-.565772-.119205-1.146587-.236445-1.649568-.379228-1.618828-.984421-1.814395-1.639391-1.661996-.654316.153052-1.110831.596513-.731603 2.21534.125755.537647.328141 1.136777.565895 1.693392-.484023-.326382-1.009965-.625293-1.493333-.845061-1.516258-.687429-2.040889-.327036-2.318597.285175-.277707.610903-.204351 1.242082 1.312562 1.929512.481403.21846 1.050573.415989 1.612538.563809-.559345.167443-1.12524.384595-1.601404.619406-1.492678.737139-1.545731 1.37028-1.247719 1.97268.298011.601746.833778.94448 2.326456.207341.452585-.223038.941193-.520641 1.394433-.843098-.187322.529798-.340585 1.087721-.430971 1.590702-.294737 1.636487.183392 2.055093.845567 2.174134.661521.119041 1.256234-.107268 1.550971-1.743755.102175-.567734.155228-1.230309.152608-1.858872.33207.535031.728983 1.069407 1.118035 1.496516 1.119345 1.231617 1.743532 1.108652 2.24131.656688.497778-.451309.68117-1.059596-.438175-2.291213-.304562-.333576-.67331-.680234-1.059743-.997459.602573.096149 1.23986.146512 1.797895.136701 1.664935-.028779 1.983906-.578853 1.972117-1.249931-.01179-.672385-.349755-1.210686-2.01469-1.181253"/><path d="m216.590643 291.311204c-.728982.170058-1.457965-.282559-1.628257-1.009887-.170947-.727982.282292-1.455963 1.011275-1.626022.728982-.170059 1.457965.281905 1.628257 1.009887.170293.727981-.282292 1.455963-1.011275 1.626022m5.480141.502327c-.418527-.85618-.918269-1.87457-1.493989-3.038163-.575719.056904-1.171087.148474-1.728468.274056.451275-.38394.884866-.803854 1.260819-1.217881-.453895-.916355-.950362-1.911198-1.482199-2.974064-.20828.183794-.43097.411411-.672.69397-.395602.465045-.795134 1.022968-1.149473 1.596589-.048468-.727982-.153263-1.473623-.304562-2.119192-.486643-2.080602-1.264093-2.331766-2.105731-2.13489-.840982.196222-1.427181.765264-.940538 2.845212.161778.690699.421801 1.461196.727673 2.175442-.621567-.41926-1.297497-.803854-1.91841-1.085759-1.948538-.882343-2.621848-.41926-2.978807.36628-.356959.784886-.261988 1.595935 1.685895 2.478931.618948.280597 1.349895.533723 2.071673.724712-.718503.215189-1.444866.493824-2.057263.796005-1.917755.947096-1.985872 1.760761-1.602714 2.533219.382503.773767 1.070877 1.213957 2.988632.267516.581614-.287138 1.209731-.669116 1.791345-1.083143-.239065.675656-.433591 1.387286-.550176 2.029584h3.162199c.074012-.585394.112-1.215919.10938-1.821589.402152.646877.877661 1.289175 1.348585 1.821589h3.46807c.016374-.487937-.265263-1.119116-1.064327-1.998188-.390363-.429726-.864562-.87384-1.360375-1.281981.773521.12362 1.592889.187719 2.309427.175945.174223-.00327.332725-.013081.485334-.0242"/><path d="m146.009881 259.945788c-.672.156977-1.344655-.259667-1.501848-.931398-.157193-.671078.260678-1.342809.932678-1.499786.672655-.156324 1.344655.260974 1.501848.932052.157193.671077-.260678 1.342809-.932678 1.499132m4.555976-2.39521c-.771555.013081-1.667555.127543-2.473824.310029.502362-.428416.986386-.904581 1.374128-1.361123 1.277193-1.501094 1.036819-2.214686.429661-2.72944-.607158-.515409-1.350549-.637066-2.628397.864682-.364164.428417-.732913.943172-1.059088 1.471661-.044538-.671077-.141474-1.358506-.280983-1.953712-.44931-1.919046-1.166503-2.150587-1.941988-1.969409s-1.315836.706397-.867181 2.624789c.149333.636412.389052 1.346734.67069 2.005384-.5731-.386557-1.195977-.741063-1.769076-1.00073-1.796585-.813665-2.417497-.38721-2.746948.336847-.328795.724711-.241684 1.472315 1.554901 2.28598.57048.259013 1.245099.49317 1.91055.669116-.662176.198183-1.332866.455234-1.897451.733868-1.768421.873186-1.831298 1.622752-1.478269 2.336344.35303.712938.987696 1.119116 2.756772.245931.535766-.264245 1.114761-.61679 1.651837-.998113-.222035.627254-.403462 1.288521-.510878 1.883726-.349099 1.938668.217451 2.435108 1.001451 2.575734.784.141279 1.488748-.12689 1.837848-2.066212.121169-.671732.183392-1.457272.180772-2.201606.393637.633796.863906 1.266283 1.325005 1.773189 1.325661 1.458579 2.065778 1.312721 2.655252.777691.590129-.534377.806269-1.255818-.520047-2.713743-.360234-.397022-.797099-.806471-1.254924-1.182562.713918.113809 1.4691.173329 2.129965.161556 1.972772-.034012 2.35069-.686121 2.336281-1.480818-.013755-.795351-.413942-1.433725-2.386059-1.399059"/><path d="m153.534054 282.873418c-.913684.025509-1.641357.491862-1.577825 2.751025.018339.644915.098901 1.366356.22662 2.067521-.55345-.538301-1.164538-1.051093-1.740912-1.452693-1.856842-1.292446-2.646082-.940555-3.169404-.191643-.522011.748258-.580304 1.60967 1.276538 2.90277.616328.429071 1.366269.852255 2.112281 1.197605-.784655.10923-1.588959.284521-2.277988.501673-2.157474.681542-2.35986 1.52137-2.084117 2.39194.275742.869915.924818 1.440919 3.082292.759377.685755-.216498 1.440936-.533723 2.143719-.893462-.404116.66192-.768935 1.376167-1.034853 2.034163h2.397193l.637941-3.235693c-.195181-.036628-.386433-.110538-.559345-.231541-.649731-.451963-.809544-1.344117-.356304-1.992956.33862-.485321.923509-.695932 1.468445-.582778l.966736-4.904883c-.298011-.92682-.863906-1.138739-1.511017-1.120425"/><path d="m138.035415 232.154808c-.436865-.202762-.626807-.721441-.423111-1.157707.203041-.436266.722433-.625292 1.159298-.421876.436866.203416.626152.721441.423111 1.157053-.203695.436265-.722432.625946-1.159298.42253m3.534877.643606c-.429005-.324419-.970666-.646877-1.491368-.893462.459789-.018968.931368-.072601 1.340725-.156323 1.349895-.275364 1.525427-.77115 1.414082-1.314684-.112-.544187-.468304-.930744-1.816889-.655379-.385123.078488-.809544.202762-1.216936.352544.265264-.387864.508258-.807124.68903-1.19368.580304-1.246661.286222-1.682273-.218106-1.917084-.503672-.234158-1.026994-.177908-1.607953 1.068753-.192561.414027-.367438.907197-.496468 1.389902-.148023-.45785-.33731-.920933-.540351-1.310106-.635976-1.219843-1.160608-1.252547-1.653801-.996151s-.767625.704435-.132304 1.924279c.202386.387864.471579.80647.761076 1.189102-.448655-.175945-.928093-.323111-1.358409-.412719-1.34793-.281251-1.706199.103997-1.819509.647531-.11331.543533.060257 1.03932 1.407532 1.320571.408702.085029.878971.140625 1.338106.162209-.392328.248548-.776796.533723-1.092492.814974-1.027649.914392-.930713 1.430454-.56131 1.845136.370059.414681.873076.57035 1.900726-.344042.356304-.317879.729637-.722095 1.048608-1.132198-.056328.517371-.071392 1.067445-.036679 1.543609.099556 1.371588.568515 1.609016 1.123275 1.569772.554105-.040553.984421-.343388.884866-1.714322-.026854-.373475-.090386-.78554-.179462-1.189756.342549.370204.732257.727327 1.099696 1.005308 1.098386.829363 1.586994.633795 1.922339.191643.335345-.443461.390362-.966064-.708024-1.795427"/><path d="m131.137394 249.306266c-.531836-.247239-.761731-.87711-.514807-1.407562.246924-.531106.878316-.760685 1.409497-.5141s.761731.876456.514807 1.407562c-.247579.530452-.878316.760685-1.409497.5141m4.299228.78227c-.521357-.393751-1.180912-.786848-1.814269-1.087067.56-.022893 1.132445-.0883 1.631532-.190335 1.640702-.334885 1.854223-.93663 1.718644-1.598551-.135579-.66192-.568515-1.132198-2.209217-.796659-.468304.096148-.984421.246585-1.480234.428417.322901-.470932.618293-.981762.837708-1.451385.706058-1.516792.348444-2.04659-.264608-2.331765-.613053-.283868-1.249029-.216498-1.955743 1.29964-.234479.503635-.44669 1.103419-.603883 1.690775-.180117-.557269-.410667-1.119771-.656936-1.593319-.772865-1.484088-1.412117-1.523332-2.01207-1.211994-.599298.311992-.933333.857488-.160468 2.340268.245614.471586.573755.981107.926129 1.446152-.546901-.213881-1.12917-.392443-1.652491-.501673-1.639392-.342079-2.074948.126236-2.212491.787503-.138199.661266.072701 1.26432 1.712093 1.605746.497123.103997 1.068257.171366 1.626947.196875-.476818.303489-.945122.650147-1.328935.991573-1.250339 1.112575-1.13179 1.741138-.68248 2.244773.449965.50429 1.061053.69397 2.312047-.419259.432936-.385249.88683-.87711 1.275228-1.376167-.069427.629217-.087111 1.297678-.045193 1.877185.12117 1.667883.691649 1.956983 1.366269 1.908581.673965-.048401 1.197287-.417297 1.076117-2.084526-.032748-.453926-.110035-.955598-.218105-1.446152.416561.448693.890105.883651 1.338105 1.221806 1.335486 1.008578 1.929544.770496 2.336936.232195.408047-.538301.475509-1.174059-.860632-2.182637"/><path d="m147.202451 275.471028c-.409356-.190335-.586853-.675656-.396257-1.085105.189942-.408795.676585-.586702 1.086597-.396367.409356.190335.586853.676964.396257 1.085759-.189942.409449-.67724.586048-1.086597.395713m3.315462.603708c-.402807-.304143-.911064-.606978-1.399672-.837866.431626-.018314.873731-.068677 1.258199-.146512 1.264748-.259012 1.429801-.722749 1.325661-1.233579-.104796-.509522-.438831-.872531-1.703579-.613519-.361544.073256-.759111.189681-1.141614.330306.248888-.363664.476818-.757415.645801-1.11977.544935-1.168826.268538-1.576967-.203696-1.796735-.472889-.219768-.963462-.167442-1.508398 1.002038-.180117.387864-.343859.850293-.465684 1.30291-.138199-.429725-.315696-.863374-.506292-1.229-.596024-1.143317-1.088562-1.174059-1.550971-.934015-.46241.240699-.719813.661267-.12379 1.804584.189287.363664.442106.755453.713918 1.114538-.421146-.164826-.870456-.302835-1.274573-.386556-1.263438-.263591-1.598783.097456-1.705543.606978-.106761.510176.055672.974567 1.320421 1.238812.383157.079797.823298.132122 1.254269.15109-.368094.234158-.728983.501673-1.024375.76461-.964117.858142-.873076 1.342155-.526596 1.731328.347134.387864.818058.534376 1.782175-.323112.33469-.298256.684445-.676964.983766-1.062212-.053052.485975-.066807 1.002038-.034713 1.448115.093006 1.285904.533146 1.508943 1.053193 1.471661s.922854-.321803.829848-1.607708c-.025544-.349275-.085146-.737139-.168328-1.115192.321591.347312.68641.682196 1.031579.942517 1.030269.777691 1.488094.594551 1.80248.179215.314386-.415335.366128-.905235-.663486-1.682926"/><path d="m134.912449 290.094434c-.5469-.254434-.784-.903273-.529871-1.449422.254783-.54615.904514-.782924 1.451415-.52849.546901.25378.784.901964.529216 1.448114-.254128.54615-.903859.783578-1.45076.529798m1.753357 3.043396c-.034059-.466354-.11331-.983724-.22531-1.488013.429661.462428.916959.910467 1.378058 1.257779 1.374784 1.038666 1.986527.794043 2.405708.239391.419836-.554653.489263-1.209379-.88552-2.247391-.537731-.406178-1.215626-.80974-1.867977-1.118462.576374-.024201 1.166503-.090916 1.679345-.195567 1.68917-.34535 1.908585-.96541 1.769731-1.646299-.140164-.680888-.585544-1.164901-2.274714-.820206-.482058.098765-1.013239.25378-1.523462.441499.332071-.485321.636632-1.010541.861942-1.495208.727018-1.560615.358924-2.106111-.272468-2.399135-.630737-.293024-1.285707-.223038-2.012725 1.337577-.241684.518679-.459789 1.135468-.622222 1.740484-.185357-.574274-.422456-1.153782-.67593-1.641065-.796444-1.526603-1.45338-1.567156-2.071018-1.246661-.617637.320495-.960842.882343-.165052 2.408946.252819.485321.590128 1.009233.952982 1.488667-.56262-.220422-1.162573-.404216-1.700959-.516717-1.687859-.35189-2.135859.130161-2.277988.810395-.142129.680889.074667 1.301603 1.762526 1.653493.511532.107268 1.100351.1766 1.675415.202762-.491228.311993-.973286.669116-1.368233 1.021006-1.287018 1.14528-1.165848 1.791502-.702784 2.310181.463719.519333 1.092491.714246 2.379509-.431033.44669-.397676.913029-.903273 1.313216-1.416719-.071392.647531-.089731 1.336268-.046503 1.932782.060912.838519.233825 1.335614.474199 1.621443h1.702269c.261988-.297602.408702-.831325.337965-1.803929"/><path d="m125.10996 272.963971c-.810199-.376091-1.161918-1.33823-.784655-2.147317.376608-.80974 1.339415-1.160323 2.149614-.783577.810854.376091 1.161918 1.337576.78531 2.147317-.376608.809086-1.339415 1.159669-2.150269.783577m6.559532 1.193681c-.797099-.601092-1.801824-1.200221-2.768561-1.658071.854082-.03532 1.727813-.134739 2.488889-.289754 2.502643-.511484 2.828819-1.430455 2.621848-2.439687-.206316-1.008579-.867181-1.726095-3.37048-1.214611-.714573.145204-1.501848.376091-2.257029.654071.491228-.719478.942503-1.497824 1.277193-2.21534 1.077427-2.313452.531836-3.12123-.403462-3.555534-.935298-.434957-1.905965-.33096-2.983392 1.982492-.358269.76788-.681824 1.682926-.921544 2.57835-.275087-.850947-.626152-1.709089-1.002105-2.431184-1.179602-2.263088-2.154199-2.323263-3.069193-1.848407-.914994.476164-1.423906 1.307489-.244304 3.570577.374643.718825.874386 1.495208 1.412117 2.20553-.833778-.326382-1.722573-.59913-2.520982-.765918-2.500679-.521295-3.164819.193605-3.37572 1.201529-.2109 1.008579.111345 1.928858 2.612024 2.450153.758456.158939 1.630222.261628 2.482339.300219-.727673.462428-1.441591.992226-2.027135 1.512867-1.907275 1.697316-1.727158 2.654877-1.040748 3.424065.686409.769188 1.618433 1.057634 3.526362-.639028.660866-.588664 1.352515-1.338884 1.945264-2.09957-.105451.958869-.132305 1.979875-.068772 2.86418.184701 2.543685 1.055157 2.985183 2.084117 2.911273 1.028959-.074564 1.826713-.637066 1.642011-3.181405-.050433-.690699-.168327-1.457271-.33338-2.205529.636632.685467 1.358409 1.348696 2.040889 1.864104 2.037614 1.539031 2.944094 1.176021 3.566316.354507s.724397-1.790848-1.312562-3.329879"/><path d="m25.7747368 279.949914c-.4054269-.188372-.580959-.669115-.3923274-1.073985.1879766-.404871.6693801-.580162 1.074807-.391789.4054269.188372.581614.668461.3929824 1.073331-.1886315.405525-.6700351.580162-1.075462.392443m3.2800936.596514c-.3982222-.300219-.9012398-.599784-1.3846082-.828709.427041-.01766.8645614-.06737 1.2444445-.145204 1.2516491-.255742 1.4147368-.7149 1.3112514-1.21919-.1028304-.504943-.4335906-.864028-1.6852397-.608286-.3569591.072602-.7505965.188372-1.1285147.327036.2456141-.35974.471579-.748912.6385965-1.107344.538386-1.157052.2659182-1.561269-.201731-1.77842-.4676491-.217152-.9536374-.164826-1.4920234.990918-.178807.384594-.3405847.842444-.4604444 1.289829-.1375439-.425146-.313076-.854871-.5017076-1.215265-.5894737-1.132198-1.0767719-1.162285-1.5345965-.924203-.4571696.238082-.7119532.654072-.1218246 1.784962.1873217.359739.4375205.748258.7060585 1.103418-.4172163-.163518-.8612865-.299564-1.2608187-.382632-1.2503392-.261628-1.5824093.096149-1.6878596.600438s.0556725.964102 1.3060117 1.225076c.379228.079143.8154386.130815 1.2411696.149783-.3641638.231541-.7211229.49644-1.0132398.756107-.9536374.848985-.8639064 1.328419-.5207018 1.713013.3432047.38394.8095439.52849 1.7631813-.319841.3307603-.294332.6765848-.669115.9732866-1.049785-.0530527.479435-.066807.990265-.0347135 1.431763.0923509 1.272823.5272515 1.493245 1.0420585 1.455963s.9136842-.317878.8206784-1.590702c-.0248889-.34535-.0838363-.728636-.1663626-1.102765.3183158.342734.6798596.674348 1.0210994.932707 1.0184795.768534 1.4717193.587356 1.7828304.176599s.3621988-.895424-.6562807-1.665266"/><path d="m116.68684 228.461592c-.371369.798622-1.321731 1.144626-2.120796.773113-.799719-.371513-1.146198-1.319916-.774175-2.118538.371368-.797967 1.321076-1.144625 2.120795-.772458.79972.370858 1.146199 1.319262.774176 2.117883m6.659742-2.37755c-.203695-.994843-.856046-1.702548-3.324631-1.198259-.704749.143896-1.480889.371513-2.226901.645569.485334-.709014.930714-1.476894 1.260164-2.185254 1.063018-2.282056.524632-3.079369-.398222-3.507786-.922199-.428417-1.879766-.326382-2.942129 1.956328-.353029.757415-.672655 1.65938-.909754 2.543031-.270503-.839174-.616983-1.686197-.988351-2.397827-.353029-.678272-.687719-1.153128-1.008-1.476893v11.511006c.246269-.276672.487953-.560539.712608-.849639-.10414.947096-.130994 1.954366-.068117 2.825589.182737 2.510327 1.040749 2.945285 2.055953 2.871375 1.01455-.073256 1.801825-.627909 1.619088-3.137582-.049123-.682196-.165708-1.437649-.32814-2.175442.627462.675656 1.34007 1.330382 2.01338 1.839249 2.00945 1.517447 2.903485 1.159669 3.517193.349275.613707-.810395.714573-1.766648-1.294877-3.284748-.78531-.593243-1.776936-1.18387-2.730573-1.635833.842292-.034012 1.704888-.132777 2.45483-.285175 2.468585-.504944 2.790175-1.410833 2.586479-2.406984"/><path d="m53.1876211 212.255398c-.5108772-.473548-1.1226199-.954944-1.7572866-1.39121.9372632.068023 1.9223392.060829 2.7764211-.028125.4591345-.047093.8475321-.115771 1.1776374-.2008-.9169591-1.695354-1.9858714-2.857639-2.5236024-3.383513-.7361871.128198-1.5018479.311992-2.2092163.536339.4185263-.424492.8206783-.87711 1.1802573-1.327111-.427041-.229579-.9529825-.332269-1.299462-.376091-.0209591.139317-.0288187.216497-.0288187.216497-.4814035.663883-.962807 1.339539-1.4455205 2.020427.068117.109885.1283743.226309.1702924.353853.2783626.852256-.1873216 1.767956-1.0400936 2.045936-.2816374.09157-.5678596.095495-.8377076.039245-.7027836 1.016427-1.4068772 2.049206-2.1116257 3.095066-.1041403.522604-.1912515 1.041283-.2357895 1.523333-.2357894 2.549571.5534503 3.129733 1.5843743 3.224573 1.030924.095495 1.9131696-.330306 2.1489591-2.879877.0818713-.884959.0753216-1.907927-.0111345-2.872028.5803041.776383 1.2601637 1.543609 1.9131696 2.148625 1.880421 1.741138 2.821614 1.469699 3.5257076.71163.7034386-.758069.9038596-1.716284-.9765614-3.456769"/><path d="m57.5696374 231.732539c-.2030409.436266-.7224327.625293-1.1592982.42253-.4368655-.203416-.6261521-.720786-.4231111-1.157706.2036959-.436266.7224327-.625293 1.1592982-.422531.4368655.202763.626807.721441.4231111 1.157707m2.3762339 1.066137c-.4290058-.32442-.9706666-.646877-1.4920233-.894116.4604444-.018968.9313684-.072602 1.3413801-.156323.2534737-.051672.4532397-.113154.6294269-.179216l-.2763977-1.877185c-.2102456.001308-.4552047.025509-.7558362.086991-.3857778.078489-.8095439.202762-1.2169357.352545.2646082-.387865.5082573-.807779.6883742-1.194335.5809591-1.24666.2868772-1.682272-.2174502-1.91643-.5043275-.234157-1.0276492-.178561-1.6079533 1.068753-.1925614.414028-.3674386.906544-.4964678 1.389902-.1480234-.458504-.3373099-.921586-.5410058-1.310105-.6353217-1.219844-1.1606082-1.252547-1.6531462-.996805-.493193.25705-.7682807.705089-.1323041 1.924933.201731.38721.4715789.805816.761076 1.188448-.44931-.175945-.9280936-.323112-1.3590643-.412719-1.3472749-.280597-1.7055439.103997-1.8188538.64753-.113965.544188.0596023 1.03932 1.4075321 1.321225.4087018.085029.8789708.140626 1.3381053.160902-.3923275.249201-.7774503.53503-1.0924912.815627-1.0283041.915046-.9307135 1.431763-.56131 1.845136.3700585.415336.8724211.571005 1.9007252-.344042.3563041-.317224.7296374-.721441 1.0486081-1.131543-.0569824.51737-.0713918 1.06679-.0366783 1.543609.0995555 1.371588.5685146 1.60967 1.1232748 1.568463.5541053-.039244.9844211-.342079.8848655-1.714321-.0275087-.372167-.0910409-.784886-.1801169-1.187794.3432047.368896.7322573.726673 1.1003509 1.003999 1.0983859.830017 1.5869941.63445 1.9216842.191643.336-.44346.3910175-.966063-.7073685-1.794772"/><path d="m168.259696 210.469521c.567205-1.003346 1.381988-2.213378 2.399158-3.163744-.508258-.202108-.913029-.639682-1.047298-1.211995-.218106-.930744.361543-1.862142 1.294222-2.079948.779415-.181832 1.554245.19753 1.915134.869915-.454549-1.81374-1.622362-5.080174-4.491789-8.066665-.748632.389827-1.152094 1.274132-.645146 3.442379.20697.882997.539041 1.868029.930058 2.781767-.794479-.536339-1.659041-1.028201-2.454175-1.38794-2.490854-1.128928-3.352796-.537647-3.808655.467007-.45717 1.004654-.336 2.042011 2.156163 3.170939.791205.358431 1.726503.682851 2.649357.927474-.918269.27471-1.848327.631833-2.631672 1.018389-2.452211 1.210033-2.539322 2.250661-2.050059 3.240271.489918.988302 1.370199 1.552112 3.823064.340771.744047-.366934 1.547041-.855525 2.291088-1.385323-.120514.341425-.22924.689391-.32945 1.036703"/><path d="m173.03476 205.886507c-.004585-.026163-.007859-.047094-.013099-.075873-.00131.028125-.008515.054288-.01179.081105.008515-.001962.01703-.00327.024889-.005232"/><path d="m159.469726 237.285149c-.814783.189681-1.628912-.315262-1.819508-1.129581-.190597-.813011.315695-1.626022 1.130479-1.816357.814129-.190335 1.628912.315916 1.819509 1.128927.189941.813011-.315696 1.626677-1.13048 1.817011m3.031205-2.629367c-.170947.032703-.34255.064099-.508257.101381.184701-.156978.366128-.32115.54428-.487284.153264-1.589394.33469-3.232422.549521-4.889839-.548866.041206-1.216936.44019-2.092632 1.469045-.442105.519333-.88814 1.142663-1.283742 1.783653-.054363-.813011-.171603-1.646952-.340585-2.367739-.543626-2.324571-1.412772-2.605822-2.352655-2.386054-.939883.219114-1.594854.855526-1.050573 3.179443.180117.771804.470924 1.633216.812163 2.43053-.693614-.468316-1.44945-.897387-2.143719-1.211995-2.176468-.986994-2.929029-.469623-3.327906.408141s-.293427 1.783653 1.883696 2.769993c.691649.313954 1.508397.597167 2.314666.809741-.802339.240698-1.614503.552036-2.298947.890191-2.142409 1.057634-2.218386 1.966794-1.79069 2.830822.427696.863375 1.196631 1.355891 3.339696.298257.649731-.321149 1.351204-.748258 2.00159-1.210687-.269193.760031-.488608 1.561923-.618292 2.283364-.423111 2.348771.263298 2.950517 1.213006 3.12123.950362.170713 1.803789-.153707 2.2269-2.503786.146714-.814319.222691-1.765994.218761-2.667958.477473.76788 1.047953 1.535106 1.605333 2.148625.199766.219768.388398.408795.567205.571659.10938-2.168248.279672-4.687732.531181-7.370733"/><path d="m129.809899 210.721797c-.852772.27798-1.770386-.187065-2.048748-1.03932-.278363-.852256.187322-1.767302 1.040748-2.045282.852772-.278635 1.770386.18641 2.048094 1.038665.279018.852256-.187322 1.767956-1.040094 2.045937m6.019182.114462c2.549801-.264245 2.966362-1.149858 2.859602-2.178058-.10676-1.028855-.696234-1.810471-3.24669-1.546226-.996866.103998-2.145029.351891-3.168749.67631.603229-.609594 1.176328-1.280018 1.627603-1.914467 1.486128-2.087143 1.095111-2.984529.251509-3.583659-.045848-.032049-.092351-.062791-.139509-.092224-.930714.815627-2.169918 1.538377-3.610199 2.174788-.268538.429071-.529216.886921-.765006 1.354583-.049123-.32115-.11069-.642299-.178152-.960832-1.057778.41926-2.192842.798622-3.36786 1.140047.154574.339463.317661.678927.491883 1.005962-.481403-.267515-.985731-.5141-1.482198-.729944-1.513638.406833-3.064609.754799-4.569076 1.051094-.00131.738446.54428 1.455309 2.398503 2.110689.767625.270785 1.6669.498402 2.548491.652763-.835743.329652-1.67476.737793-2.374924 1.161631-2.192842 1.327112-2.190222 2.305603-1.653146 3.189908.537076.88365 1.404257 1.339538 3.596444.011773.66545-.402908 1.376094-.923549 2.028444-1.477548-.21745.837212-.378573 1.714322-.450619 2.496592-.236445 2.549571.552795 3.129078 1.584374 3.224573 1.030924.09484 1.913169-.330307 2.148959-2.880532.081871-.884305.074667-1.907927-.01179-2.871374.580305.775729 1.260819 1.543609 1.91317 2.148625 1.880421 1.741139 2.821614 1.469699 3.526363.71163.703438-.758069.903204-1.716284-.976562-3.456769-.510877-.473547-1.123275-.954944-1.757286-1.39121.936608.067369 1.921684.060829 2.776421-.028125"/><path d="m90.0613614 207.385639c-.9320234.217152-1.8647018-.361048-2.082807-1.292446-.2174503-.93009.3615438-1.861488 1.2935672-2.079293.9326784-.217806 1.8653568.360393 2.0828071 1.291791.2181052.930744-.3615439 1.862142-1.2935673 2.079948m3.4346667.448039c.9896608.157631 2.036959.240698 2.9539181.223692 1.0341988-.01766 1.7520468-.158285 2.2439298-.385902-1.7579415-.871877-3.3973333-2.051169-4.883462-3.350809-.2921169.051672-.5803041.108576-.8606315.171367.177497-.151091.3536842-.307414.5259415-.466353-.9621521-.865337-1.8568421-1.776459-2.6709708-2.68104-.1604678.234812-.3183158.47224-.4683041.715555-.0314386-.473548-.0825263-.953637-.1493333-1.41999-1.254924-1.45858-2.2930526-2.862871-3.0646082-3.985258-1.0034152.280596-1.6682105 1.053709-1.0715322 3.603934.2069708.883651.539041 1.868683.9300585 2.781767-.7944795-.535685-1.6590409-1.027547-2.4535204-1.38794-2.4915088-1.128274-3.3527954-.536993-3.809965.467661-.4558596 1.004654-.33469 2.042012 2.1561638 3.170939.7918596.358432 1.7271579.682851 2.6500117.927474-.918924.27471-1.8483275.631833-2.6310176 1.017735-2.4528655 1.210687-2.5399766 2.251315-2.0500584 3.240925.4892631.988303 1.3695438 1.552112 3.8224093.340772.7440468-.366935 1.5470409-.85618 2.2910877-1.385324-.3078362.870569-.55869 1.787578-.7073684 2.613016-.4846784 2.688889.3012866 3.377626 1.388538 3.573193 1.0872515.195568 2.0644679-.176599 2.5484912-2.866141.1683275-.932707.2547837-2.021082.2508538-3.053861.5462457.879072 1.1985965 1.756836 1.837193 2.459309 1.8398129 2.023698 2.8648421 1.820282 3.6829006 1.079219.8180585-.742372 1.1186901-1.742447-.7204678-3.764837-.4997427-.548766-1.1062456-1.117808-1.7402573-1.639103"/><path d="m70.0840982 195.105182c-.4997426.744988-1.5083976.943172-2.2537543.444769-.7460117-.499056-.9451228-1.506327-.4453802-2.251314.4997427-.74368 1.5090527-.943172 2.2537544-.444115.7453568.498403.9451228 1.506327.4453801 2.25066m4.8821521-1.873915c-.694269-.057558-1.4730292-.05952-2.2419649-.011773.7794152-.523911 1.5496608-1.136777 2.1672982-1.731982 1.8443977-1.779729 1.6243275-2.733365.9051696-3.477044-.0956257-.098765-.1964912-.188373-.3019415-.266208-.9732866.221077-1.9229942.461121-2.8432281.714901-.1178947.102689-.2390643.213227-.3654737.335538-.7204678.695279-1.4710643 1.597897-2.0756023 2.484164.0818713-.717516.1178947-1.452693.1061053-2.132927-1.2955322.405524-2.5052632.822822-3.6029942 1.228346.0438831.302182.089076.605017.1493333.906544-.2482339-.23285-.5076023-.45785-.7689356-.675656-1.6767252.634449-3.0554386 1.221805-4.0274152 1.657417.2030409.166788.4375204.340117.7073684.519987.7067134.474202 1.5653801.936631 2.4174971 1.312722-.8868304.139971-1.7939649.355161-2.5694503.615481-2.4299415.816936-2.6408421 1.772534-2.3107369 2.752334.3301053.980453 1.0774269 1.613594 3.5073685.796005.7722105-.259013 1.6210526-.633796 2.4096374-1.056326-.4538948.775729-.8619415 1.612941-1.1514386 2.378205-.9051696 2.395864-.2986667 3.163744.6700351 3.528716.9687017.365626 1.9328187.189027 2.8379883-2.206838.2744327-.726673.5121871-1.57435.6831345-2.412216.3458245.793389.761076 1.582199 1.187462 2.242158 1.3898479 2.152549 2.3696842 2.122462 3.2394853 1.561923.8698012-.56054 1.3014269-1.439612-.088421-3.590853-.4820585-.74695-1.12-1.547534-1.7834854-2.252623.9359532.253126 1.9459181.438228 2.8334035.511484 2.555041.211919 3.1287953-.582124 3.2139415-1.612287.0858012-1.030162-.3490994-1.907273-2.9041403-2.119192"/></g><path d="m112.481404 294.941824h.65497v-84.555762h-.65497z" fill="#e0b3c8" mask="url(#e)"/><path d="m125.383083 223.517073c0 2.219919-1.80117 4.018616-4.02414 4.018616-2.222316 0-4.023486-1.798697-4.023486-4.018616 0-2.219265 1.80117-4.018616 4.023486-4.018616 2.22297 0 4.02414 1.799351 4.02414 4.018616" fill="#d1aabf" mask="url(#e)"/><path d="m125.383083 243.594651c0 2.219265-1.80117 4.018616-4.02414 4.018616-2.222316 0-4.023486-1.799351-4.023486-4.018616 0-2.219919 1.80117-4.018616 4.023486-4.018616 2.22297 0 4.02414 1.798697 4.02414 4.018616" fill="#d1aabf" mask="url(#e)"/><path d="m125.383083 263.67223c0 2.219265-1.80117 4.018616-4.02414 4.018616-2.222316 0-4.023486-1.799351-4.023486-4.018616 0-2.219919 1.80117-4.01927 4.023486-4.01927 2.22297 0 4.02414 1.799351 4.02414 4.01927" fill="#d1aabf" mask="url(#e)"/><path d="m125.383083 283.749155c0 2.219919-1.80117 4.018616-4.02414 4.018616-2.222316 0-4.023486-1.798697-4.023486-4.018616 0-2.219265 1.80117-4.018616 4.023486-4.018616 2.22297 0 4.02414 1.799351 4.02414 4.018616" fill="#d1aabf" mask="url(#e)"/><path d="m50.5932819 205.763868-.0727018.384594c-.0137544.096149-.0196491.153053-.0196491.153053-.0039298.005887-.0085146.012427-.0130994.018314l-.0163743.086338c10.3432983 1.948479 10.7637895 42.431588 10.7664094 42.837766l.2102456-.285175.1519532-.205378.0399532.203416.067462.342733c.3549942.237428-.246269-41.489071-11.1141988-43.535661" fill="#e0b3c8" mask="url(#e)"/><path d="m172.986161 205.763868.072702.384594c.013755.096149.019649.153053.019649.153053.00393.005887.008515.012427.0131.018314l.016374.086338c-10.343298 1.948479-10.76379 42.431588-10.766409 42.837766l-.210246-.285175-.151953-.205378-.039953.203416-.067462.342733c-.354995.237428.246269-41.489071 11.114198-43.535661" fill="#e0b3c8" mask="url(#e)"/><path d="m121.180463 222.095252c0 .575583-.467649 1.04259-1.044023 1.04259-.576375 0-1.044024-.467007-1.044024-1.04259s.467649-1.04259 1.044024-1.04259c.576374 0 1.044023.467007 1.044023 1.04259" fill="#fff3f9" mask="url(#e)"/><path d="m121.180463 242.051435c0 .575583-.467649 1.04259-1.044023 1.04259-.576375 0-1.044024-.467007-1.044024-1.04259 0-.576237.467649-1.04259 1.044024-1.04259.576374 0 1.044023.466353 1.044023 1.04259" fill="#fff3f9" mask="url(#e)"/><path d="m121.180463 262.194159c0 .575583-.467649 1.04259-1.044023 1.04259-.576375 0-1.044024-.467007-1.044024-1.04259s.467649-1.04259 1.044024-1.04259c.576374 0 1.044023.467007 1.044023 1.04259" fill="#fff3f9" mask="url(#e)"/><path d="m121.180463 282.337537c0 .575583-.467649 1.041936-1.044023 1.041936-.576375 0-1.044024-.466353-1.044024-1.041936 0-.576237.467649-1.04259 1.044024-1.04259.576374 0 1.044023.466353 1.044023 1.04259" fill="#fff3f9" mask="url(#e)"/><path d="m112.302531 205.221577c-13.1917661 0-24.2424328-8.69719-27.1884912-20.394607-1.3950878.662575-5.1723041 2.31803-5.1723041 2.31803-1.5555556 3.794269 2.4685848 4.779955 2.4685848 4.779955-1.2202106 2.622828.5351111 5.659682 3.4202573 5.916078l-.178807.777691c-.560655 2.440342 1.4736842 4.696889 3.9625731 4.394708l.7931696-.095495-.0170293 1.051093c-.0379883 2.380167 2.3002573 4.076829 4.5553216 3.305024l.9962106-.341425.2279298 1.163593c.4453801 2.271591 3.0141754 3.4136 5.0026668 2.224498l1.018479-.609595.410667.963448c.935953 2.191794 3.765427 2.792231 5.512889 1.170134l.767626-.712938.524631.745641c1.408842 2.003422 4.38241 2.003422 5.791907 0l.523976-.745641 1.001451.929435c1.633497 1.516792 4.279579.955599 5.153965-1.093607l.535766-1.256472 1.011929.60567c1.991766 1.191065 4.564492.047748 5.010527-2.227768l.22662-1.156398 1.057777.362355c2.224936.76134 4.532398-.913084 4.495065-3.261201l-.018339-1.115846.672655.081105c2.547181.308722 4.629988-2.000805 4.056233-4.498705l-.151953-.659304.738807-.066061c2.525567-.224347 4.062784-2.882494 2.994527-5.178285l-.312422-.671732s4.084398-1.392518 2.80786-5.137078c0 0-4.117146-1.298332-5.512234-1.960907-2.946058 11.697417-13.996725 20.394607-27.188491 20.394607" fill="#fff" mask="url(#e)"/><path d="m139.490891 184.827232c-.672655 2.974718-1.933473 5.816005-3.621988 8.372117-1.705544 2.547609-3.857778 4.797615-6.314573 6.646021-4.918831 3.713165-11.088655 5.677342-17.25193 5.703505-6.16393-.024201-12.3330994-1.990994-17.2525848-5.702197-2.4567953-1.848406-4.6083743-4.09972-6.3145731-6.646675-1.6885146-2.556112-2.9486784-5.398053-3.6206784-8.372771 1.6099182 5.887953 5.3360468 11.085206 10.2345731 14.614576 4.8887022 3.55815 10.9157432 5.477196 16.9532632 5.453649 6.038175.025509 12.064561-1.896153 16.953918-5.452341 4.899181-3.530024 8.624655-8.727277 10.234573-14.615884" fill="#be9ba9" mask="url(#e)"/></g><g transform="translate(39 7)"><path d="m124.780497 60.4688691c0 49.7032909-17.573298 90.2868389-62.7558897 90.2868389-45.1780104 0-61.88939788-41.07003-61.88939788-90.7733215 0-49.7124826 42.04515708-59.72378259 62.65183248-59.72378259s61.9934551 10.49778259 61.9934551 60.21026519" fill="#fedec8"/><path d="m40.3643979 120.957303c6.8409686 4.160378 14.164267 6.730004 21.5863874 6.633495 7.4666231 0 14.6204189-2.897887 21.7336388-6.633495-2.6132199 3.089591-5.8802356 5.651995-9.5863875 7.498134-3.6982984 1.87437-7.8854712 2.897887-12.1099476 2.964196-4.2212042.007222-8.4384817-.937513-12.1623037-2.783652-3.7212041-1.816596-7.0804973-4.378344-9.4613874-7.678678" fill="#cd9881"/><g fill="#e4c8b6"><path d="m24.7236911 88.7460483-7.3625654-4.0349826 8.0955497 2.2078826z"/><path d="m25.5203534 98.9221352-8.1590314 2.8926348 7.2990838-4.6632739z"/><path d="m25.1394634 93.8610748-13.296466-.3164435 13.1982984-1.6504956z"/><path d="m100.694895 86.918817 8.09555-2.2078827-7.361911 4.0349827z"/><path d="m101.491558 97.1513648 7.299083 4.6639302-8.159031-2.8932911z"/><path d="m101.110668 91.89407 13.198298 1.6504957-13.296466.3164434z"/></g><path d="m47.872644 92.3005226c0 6.8258565-5.5837697 12.3636174-12.4620419 12.3636174-6.8828534 0-12.4554974-5.5377609-12.4554974-12.3636174 0-6.826513 5.572644-12.3616478 12.4554974-12.3616478 6.8782722 0 12.4620419 5.5351348 12.4620419 12.3616478" fill="#a5693c"/><path d="m44.6675393 92.2979622c0 4.7637217-3.8553665 8.6332608-8.6020943 8.6332608-4.7506544 0-8.6007853-3.8695391-8.6007853-8.6332608 0-4.7558435 3.8501309-8.6266957 8.6007853-8.6266957 4.7467278 0 8.6020943 3.8708522 8.6020943 8.6266957" fill="#2a1d01"/><path d="m32.441623 87.8267209c0 1.3767261-1.1164921 2.5026608-2.4856021 2.5026608-1.3743455 0-2.4908377-1.1259347-2.4908377-2.5026608 0-1.3760696 1.1164922-2.490187 2.4908377-2.490187 1.36911 0 2.4856021 1.1141174 2.4856021 2.490187" fill="#fff"/><path d="m78.3556937 92.3005226c0 6.8258565 5.5837697 12.3636174 12.4620419 12.3636174 6.8828534 0 12.4554974-5.5377609 12.4554974-12.3636174 0-6.826513-5.572644-12.3616478-12.4554974-12.3616478-6.8782722 0-12.4620419 5.5351348-12.4620419 12.3616478" fill="#a5693c"/><path d="m81.5608639 92.2979622c0 4.7637217 3.8553665 8.6332608 8.6014398 8.6332608 4.7513089 0 8.6014398-3.8695391 8.6014398-8.6332608 0-4.7558435-3.8501309-8.6266957-8.6014398-8.6266957-4.7460733 0-8.6014398 3.8708522-8.6014398 8.6266957" fill="#2a1d01"/><path d="m82.0478403 87.8267209c0 1.3767261 1.1164922 2.5026608 2.4856021 2.5026608 1.3743456 0 2.4908377-1.1259347 2.4908377-2.5026608 0-1.3760696-1.1164921-2.490187-2.4908377-2.490187-1.3691099 0-2.4856021 1.1141174-2.4856021 2.490187" fill="#fff"/><path d="m37.9948953 124.037965c.4581152-.7248.8900523-1.405613 1.3462042-2.074608.4522251-.66834.9018324-1.333396 1.375-1.984009.4731675-.649957.9600785-1.293348 1.479712-1.922952.5157068-.632887 1.0530105-1.255926 1.6989529-1.831039-.1734293.846256-.4744764 1.631456-.8383508 2.382517-.3697644.747122-.7853403 1.473235-1.2827225 2.1442-.4895288.676217-1.0431937 1.309104-1.6636126 1.879622-.6191099.565265-1.3036649 1.094421-2.1151832 1.406269" fill="#e4c8b6"/><path d="m86.6341623 124.037965c-.8115183-.311848-1.4960733-.841004-2.1151832-1.406269-.6210733-.570518-1.1740838-1.203405-1.6636126-1.879622-.4973822-.670965-.9129581-1.397078-1.283377-2.1442-.3632199-.751061-.6649214-1.536261-.8376963-2.382517.6459424.575113 1.1832461 1.198152 1.6989529 1.831039.5196335.629604 1.0065445 1.272995 1.479712 1.922952.4731676.650613.9227749 1.315669 1.375 1.984009.4561518.668995.888089 1.349808 1.3462042 2.074608" fill="#e4c8b6"/></g><g transform="translate(33)"><path d="m135.078909 47.911695c-1.497952-12.5801-34.328612-47.63525-67.1208803-47.63525-32.7922679 0-65.54549281 35.05515-67.04409569 47.63525-3.4370909 28.86715 8.56214355 55.82005 8.56214355 55.82005-.04099522-47.24395 30.36378944-57.7291 58.52034454-57.7291 28.156555 0 58.5619899 10.48515 58.5203449 57.7291 0 0 11.999234-26.9529 8.562143-55.82005" fill="#d3d5d6"/><path d="m70.5488612 42.54094c-1.4517512-2.587-2.0543157-5.4756-2.1441148-8.3577-.1008612-2.9029.5849952-5.7317 1.2858182-8.489.7255502-2.76445 1.5779904-5.48795 2.4278277-8.21145.8374737-2.72545 1.7445742-5.43335 2.3783733-8.216-.5817417 2.79435-1.4380862 5.5224-2.2241532 8.2628-.7971291 2.7378-1.5975119 5.47625-2.2684019 8.2433-.6481148 2.7664-1.2682488 5.5705-1.1140287 8.3928.1307943 2.7963.8101436 5.6472 2.2039809 8.021z" fill="#e8e8e8"/></g><g transform="translate(34)"><g fill="#e8e8e8"><path d="m6.656503 33.8146753c.081875 1.2941559-1.553005 28.4746753 9.781115 29.435065 0 0 6.861125-11.522078 15.635505-14.1623377 0 0-7.448005.9597403-10.11189-6.4818182-2.663885-7.4415584-2.98811-21.7181818-2.98811-21.7181818s-6.04303 4.924026-12.31662 12.9272727"/><path d="m89.837311 32.7601299c-2.663885 7.4415584-7.08186 9.7967532-7.08186 9.7967532 8.77438 2.6402598 15.635505 6.1720779 15.635505 6.1720779 9.28397-.7870129 6.812-26.664935 5.61335-36.0032467-4.314485-2.89740261-8.92634-5.50909092-13.72225-7.62402599.590155 6.89740259 1.58248 21.99545459-.444745 27.65844159"/><path d="m8.117153 69.2568831c1.67156 2.0025974 3.677825 1.6694805 3.677825 1.6694805 3.427615-.6181818 1.15411-3.851948 1.15411-3.851948-2.13006.9090909-5.249825-3.3428572-7.861965-9.6603896-1.795355-4.3435065-3.09684-11.4123377-3.735465-15.4090909-.288855.5844155-.545615 1.15-.767005 1.6948052 1.209785 13.0571428 5.969015 23.6844155 7.5325 25.5571428"/><path d="m117.259999 23.2957143c-.56592 3.7084415-1.93487 11.6649351-3.888735 16.3915584-2.61214 6.3188312-7.91502 12.3649351-10.045735 11.4551948 0 0 2.83222 1.5707793 3.8383 2.724026 0 0 1.50519-.3331169 3.177405-2.3363636 1.64012-1.9649351 6.798245-13.5727273 7.682496-27.5123377-.252175-.2409091-.506971-.4818182-.763731-.7220779"/><path d="m40.127396 44.1896753c1.355195 1.1701299 3.629355.9538961 4.459895.6071429.831195-.3474026 3.3798-.8019481 3.3798-.8019481-3.72302-1.2655844-4.467755-4.9954545-4.467755-4.9954545 1.48947 3.5467532 6.14259 4.7668831 6.89453 4.5818182.751285-.1857143 5.249825-.9798702 6.635805-1.0376624 1.385325-.0577922 3.432855-.7064935 3.432855-.7064935.423785-1.0967532-2.33442-2.8902597-5.75221-7.8285714-4.140255-5.9811688-4.7422-23.9051948-4.807045-31.46298702-4.889575 1.60519481-9.650115 3.78831169-14.169615 6.3512987-.629455 5.74155842-1.47244 15.01688312-1.170485 21.33961042.465705 9.7467532 4.208375 12.7824675 5.564225 13.9532467"/><path d="m70.9504515 22.0984416c-1.494055 9.6532467-.341255 19.4766233-.341255 19.4766233.99429 0 4.774295.262987 4.774295.262987 1.57462-6.1837662 2.30298-11.5110389 1.613265-15.6136363-.689715-4.1038961.689715-11.4551948 1.661735-16.66948054.64976-3.48831168.42968-6.74740259.21353-8.52727272-1.10957-.25779221-2.222415-.48051948-3.33919-.67012987.42051 7.30714285-3.166925 12.59480523-4.58238 21.74090913"/></g><path d="m58.824633 42.7901948c-2.11958-2.2350649-4.16056-4.5331169-5.9998-7.0077922-.898005-1.2428571-1.804525-2.525974-2.337695-3.9987013-.54627-1.45-.89866-2.9480519-1.19341-4.4519481-.580985-3.0097402-.87377-6.0603896-1.05717-9.1097402-.16768-3.0506494-.19912-6.1077922-.105455-9.15974027-.0393 3.05324677.04716 6.10649347.26855 9.14870127.23711 3.0402598.58426 6.0785715 1.215025 9.0571429.318985 1.4857143.69561 2.9662337 1.25367 4.3675325.53448 1.4045454 1.43969 2.6415584 2.350795 3.8564935 1.85889 2.4110389 3.93786 4.6694805 6.073815 6.8448052z" fill="#d3d5d6"/><path d="m130.943081 39.6175974c-1.526805-2.5746753-3.57499-5.4084416-6.05875-8.3454545.02751 8.051948-.658275 26.8928571-7.466346 31.6980519 0 0 2.957326 3.1344156 5.323841 9.2642857 0 0 8.61456 1.4935065 8.201255-32.6168831" fill="#e8e8e8"/><path d="m85.239866 44.2207792c1.065685-.6175324 2.03574-1.5876623 2.831565-2.6123376.79255-1.0454546 1.495365-2.1688312 2.053425-3.3662338.58688-1.1837662 1.0349-2.4337662 1.43314-3.6954546l.533825-1.9162337.389725-1.9519481c.06026-.325974.138205-.65.18471-.9792208l.12314-.988961.245625-1.9792208c.071395-1.3272727.177505-2.6545454.20567-3.9850649-.017685-1.3311688.01048-2.6642857-.04454-3.9954545l-.248245-3.9902598.33012 3.987013c.08253 1.3305195.081875 2.6662338.126415 4-.000655 1.3337662-.07991 2.6688312-.12445 4.0038961l-.206325 1.9941558-.10349.998052c-.039955.3324675-.11135.6597403-.165715.9896104l-.353045 1.9779221-.499765 1.9493506c-.37859 1.287013-.807615 2.5662338-1.38205 3.7883117-.54496 1.2344156-1.24188 2.4038961-2.04229 3.5032468l-.638625.8-.702815.7493506c-.510245.4720779-.994945.9324675-1.651255 1.3z" fill="#d3d5d6"/><path d="m121.083562 71.0794156c.328155-.0298701.791895-.2084416 1.14887-.4525974.37466-.2435065.722465-.5428572 1.034245-.8818182.168335-.1564935.311125-.338961.451295-.5246753.139515-.185065.291475-.3616883.422475-.5545455.239075-.4012987.51483-.7818182.72574-1.201948.90783-1.6506494 1.5065-3.4649351 2.02395-5.287013.239075-.9181818.4978-1.8331169.667445-2.7694805.193225-.9305195.393-1.861039.52269-2.8038961.328155-1.8766234.51614-3.772078.73491-5.6649351-.164405 1.8980519-.298025 3.8-.573125 5.6883117-.102835.9493506-.27641 1.887013-.443435 2.8279221-.1441.9448052-.376625 1.8720779-.591465 2.8045454-.47029 1.8519481-1.019835 3.7019481-1.905395 5.4298701-.205015.4383117-.480115.8441559-.71788 1.2681819-.131.2058441-.286235.3980519-.42837.5974026-.14279.2006493-.288855.3987013-.46636.5740259-.325535.3733767-.69692.7149351-1.11743 1.0051948-.21353.1422078-.4323.2785715-.67858.3785715-.248245.1090909-.48077.1876623-.81875.2162337z" fill="#d3d5d6"/><path d="m124.845292 79.0117532c-1.617195-1.6032467-1.763915-1.8941558-2.498825-6.1207792-.73491-4.225974-6.90894-11.5116883-9.11367-13.5525974-2.205385-2.0396104.294095-2.6227272-1.3231-3.9980519s-1.617195.7928571-4.703555-.8103896c-3.087015-1.6032468-13.5237845-6.9954546-14.4054145-6.9954546-.882285 0 0-2.7681818-1.02966-2.4155844-1.02835.3532468-1.322445 1.5415584-2.792265.812987s-9.995955-1.8941558-10.584145-1.8941558c-.587535 0-2.96584-2.1766234-1.91391-5.9162338-1.79732 2.1876623-3.08374 4.8954546-9.377635 4.4837662-6.29455-.412987-15.75537 2.3064935-18.989105 2.5136364s-9.130045 2.2220779-12.72534-9.1201299c1.24057 8.0766234 6.25787 11.5357143 4.19986 11.9727273-2.05801.4376623-2.54926-1.0558441-3.821925-1.7480519.292785 2.5292207-.882285 3.3512987-3.087015 4.225974-2.20473.874026-12.935595 8.7435065-13.670505 10.0551948s-2.48114 4.3584415-4.538495 4.3584415c-2.05801 0-.088425 3.1298702-.088425 4.587013 0 1.4577922-2.88855 2.1603896-2.88855 2.1603896s-4.831935 12.6474026-3.245525 28.0961039c.000655.0103897.001965.0194806.003275.0298702 1.35716-44.3961039 31.18062-54.3876624 58.85175-54.3876624 26.85369 0 55.7346045 9.4097403 58.6578695 50.5428572.579675-7.1733766-.80696-12.3694805-.91569-12.7993507-.147375-.5831169 1.617195-2.4772727 0-4.0805195" fill="#c2c4c6"/><path d="m63.4252875 40.4146753s-11.372765-3.2467532-5.881245 8.8396104c5.49283 12.0863637-1.18293 11.4642857-1.18293 11.4642857s3.165615-.9337662 1.939455-4.2006493c-1.226815-3.2662338-5.249825-10.5097403-4.661635-14.0097403s6.86702-7.8837662 9.786355-2.0935065" fill="#e8e8e8"/><path d="m80.954201 41.6709091c-.104145-.5435065.04716-1.1220779.366145-1.6136364.32357-.4915584.80434-.8844156 1.323755-1.1383117.539065-.2577922.996255-.4370129 1.76719-.475974.705435.0389611 1.386635.3116883 1.892295.7071429 1.03359.8012987 1.52222 1.9168831 1.770465 2.9980519.22401 1.0974026.227285 2.1967533.06419 3.2584416-.16768 1.062987-.536445 2.0766234-1.03752 3.0032467l-.39431.6766234-.37466.6051948c-.23318.4090909-.465705.8246753-.647795 1.2558442-.37728.8487013-.693645 1.7668831-.64059 2.6688311.020305.4441559.13755.8928572.425095 1.2084416.2751.3220779.740805.4707792 1.20782.3805195l.050435.1876623c-.48732.1779221-1.112845.1051948-1.546455-.2701299-.435575-.3701298-.64452-.9142857-.738185-1.4324675-.19519-1.061039.032095-2.1032467.32226-3.0844156.152615-.4935065.355665-.9623376.563955-1.4292208l.33667-.6883116.28689-.6318182c.350425-.8422078.57378-1.7272728.624215-2.6201299.03668-.8902597-.08384-1.7811688-.37859-2.5792208-.284925-.787013-.667445-1.5448052-1.161315-2.0188311-.2358-.2636364-.50042-.385065-.77159-.4818182-.22401-.0688312-.743425-.0181818-1.13708.0461039-.80434.1487013-1.588375.5694805-1.97679 1.4714285z" fill="#e8e8e8"/><path d="m123.927375 76.6743506c.104145-.5435064.4585-1.0266233.93796-1.3688311.48208-.3396104 1.074855-.5298701 1.65191-.5772727.596705-.0441559 1.08861-.0448052 1.819591.2.642554.2915584 1.175069.7922077 1.499949 1.3448051.664825 1.1201299.7074 2.3363637.53841 3.4331169-.19781 1.1019481-.60129 2.1259741-1.145594 3.0545455-.548891.9279221-1.266771 1.7376623-2.075696 2.4168831l-.61701.4863636-.57247.4266234c-.368765.2961039-.73884.598052-1.066995.9331169-.66548.6525974-1.298865 1.3915584-1.583134 2.2493506-.145411.4214286-.202396.8818182-.051746 1.2792208.13755.4.515485.7077922.98381.7935065l-.02227.1935065c-.519415-.0116883-1.074855-.3071428-1.339475-.8142857-.26855-.5025974-.261345-1.0844156-.156545-1.6006494.21091-1.0584415.80696-1.9461038 1.43969-2.7525974.324225-.4032467.68775-.7662337 1.053895-1.1253246l.56723-.5175325.50042-.4837662c.637315-.6558442 1.173105-1.398052 1.54973-2.2103896.363525-.8149351.58033-1.6883117.601945-2.5376624.025545-.8357143-.04978-1.6792208-.334049-2.3-.121831-.3311688-.322916-.5396104-.539721-.7285714-.182745-.1461039-.684475-.2876623-1.074855-.3707792-.803684-.1545455-1.68859-.0474026-2.383545.6506493z" fill="#c2c4c6"/><path d="m49.9984425 41.9087013c-.83447.0506493-1.66239-.1597403-2.429395-.487013-.397585-.1454545-.747355-.3727273-1.11481-.5811688-.356975-.2207792-.67334-.4954546-1.013285-.7454546-1.29821-1.0935065-2.079625-2.6162337-2.705805-4.0967532-.350425-.7344156-.552165-1.5168831-.801065-2.2785714-.20829-.7733767-.36025-1.5590909-.520725-2.3363637-.088425-.7915584-.20305-1.575974-.26724-2.362987l-.08777-2.3636364.130345-.0077922.358285 2.3207793c.146065.7675324.3406 1.5233766.50697 2.2798701.22008.7428571.430335 1.488961.691025 2.2123377.29999.7084415.552165 1.4357142.938615 2.0941558.697575 1.3597403 1.659115 2.525974 2.662575 3.6006493 1.027695 1.0564936 2.213245 1.9889611 3.666035 2.6227273z" fill="#fff"/><path d="m44.6519395 43.9474675c-1.30607-.0805194-2.510615-.6571428-3.555995-1.3993506-1.06241-.7487013-1.818935-1.8279221-2.492275-2.8922078-.64059-1.0935065-1.18948-2.2305195-1.542525-3.4253247-.20829-.5863636-.291475-1.2077922-.440815-1.8038961-.10742-.6071428-.165715-1.2207792-.24104-1.8266234l.12969-.0194805c.174885.585065.32226 1.1733766.50304 1.748052.22663.5610389.38514 1.1422078.66286 1.6766233.45981 1.1051948 1.095815 2.1181819 1.792735 3.0623377.725085.9357143 1.632915 1.674026 2.460835 2.4772727.84626.8006494 1.75278 1.5389611 2.762135 2.2792208z" fill="#fff"/><path d="m118.960838 63.1914286c1.619815-1.4506494 2.654715-3.3376624 3.512765-5.2545455.21091-.4844156.43754-.9584415.61046-1.4616883.181435-.4974026.42575-.9714286.567885-1.487013l.519415-1.514935.39955-1.5577923c.144755-.5175324.240385-1.0474026.332085-1.577922l.2882-1.5915585c.118555-1.0720779.269205-2.1448052.356975-3.2240259.06419-1.0805195.16506-2.1636364.20043-3.2493507l.042575-3.2642857.130345-.0064935.22008 3.2688312c.051745 1.0915584.038645 2.1863636.060915 3.2837662-.022925 1.0954545-.11004 2.1909091-.165715 3.2896104l-.195845 1.6409091c-.060915.5480519-.126415 1.0961039-.243005 1.6383117-.34846 2.1772727-.891455 4.3798701-1.94535 6.3798701-.51745 1-1.16983 1.9409091-1.918495 2.7896104-.76111.8357143-1.651255 1.5902597-2.71432 2.014935z" fill="#fff"/><path d="m16.859831 61.0696104c-.63142.1051948-1.25629-.088961-1.81959-.3564935-.548235-.2902598-1.06503-.6655844-1.479645-1.1149351-.869185-.887013-1.31786-2.0350649-1.727235-3.1233766-.194535-.5519481-.3668-1.1084416-.52138-1.6655844-.125105-.5649351-.286235-1.1194805-.377935-1.6863637-.080565-.5694805-.18995-1.1311688-.245625-1.7l-.151305-1.7032467.12969-.0188312.418545 1.6467533c.136895.5474026.32488 1.0805194.484045 1.6188311.152615.5396104.371385 1.0558442.552165 1.5818182.2096.5149351.434265 1.0233766.67465 1.5168831.49256.9909091 1.170485 1.8389611 1.763915 2.6928572.62094.8428571 1.30083 1.6435065 2.307565 2.1824675z" fill="#fff"/><path d="m98.237555 45.0172078c.49387-.3935065.87115-.9253247 1.16983-1.4811688.30261-.5577922.550855-1.1396104.75849-1.7409091.22139-.5902598.371385-1.2175325.54365-1.824026.12183-.6298701.291475-1.2428571.387105-1.875974.4454-2.5162338.76504-5.0902598.900625-7.6837663.03275-1.2987013.110695-2.5993506.0655-3.9025974-.02096-1.3032467-.01572-2.6084415-.109385-3.9110389-.08122-2.6123377-.32226-5.2175325-.5371-7.8285715l.12969-.0168831c.388415 2.5909091.80434 5.1831169 1.060445 7.7987013.15982 1.3051948.220735 2.6188312.30785 3.9318182.110695 1.3123377.09825 2.6318182.130345 3.9506494-.022925 2.6331168-.00524 5.3136363-.666135 7.9266233-.15196.6519481-.371385 1.2941559-.56068 1.9363637-.11266.3181818-.25283.6292208-.377935.9428571-.12576.3136364-.253485.6253247-.429025.9207792-.170955.2967533-.308505.6045455-.505005.8863637-.205015.277922-.379245.5681818-.607185.8266233-.456535.5077923-.95106 1.0103897-1.610645 1.2649351z" fill="#fff"/></g></g></svg>