<svg height="35" viewBox="0 0 29 35" width="29" xmlns="http://www.w3.org/2000/svg"><path d="m6.74998391 21.4296555c.2578117 0 .4687487-.09375.63281099-.2812493l10.371069-10.3359129c.1640623-.1640623.2460932-.3749993.2460932-.632811s-.0820309-.4687487-.2460932-.63281099l-1.3007781-1.26562198c-.1640623-.18749937-.3691398-.28124933-.6152329-.28124933-.2460932 0-.4628897.09374996-.6503891.28124933l-8.43747989 8.43747987-3.93749062-3.9374906c-.18749937-.1874994-.40429591-.2812493-.65038907-.2812493s-.45117062.0937499-.61523291.2812493l-1.30077815 1.265622c-.16406228.1640623-.24609316.3749993-.24609316.632811s.08203088.4687487.24609316.632811l5.87107976 5.8359236c.16406228.1874993.37499928.2812493.63281099.2812493z" fill="#148839"/></svg>