<svg height="32" viewBox="0 0 36 32" width="36" xmlns="http://www.w3.org/2000/svg"><path d="m17.9996422 0c9.4478439 0 17.9989264 6.10184784 18.0003578 14.5543507 0 7.45311-7.2385042 14.4884185-17.8643765 14.4884185-1.9273573 0-3.962784-.2297216-6.0883879-.7315-2.51565571 1.495619-8.06369651 3.0051184-11.96707815 3.6887308 1.45571659-2.7809491 3.07246377-6.6008502 2.99015924-9.2624273-1.96242619-2.2722305-3.07031669-5.2003124-3.07031669-8.181834 0-8.40877939 8.49239578-14.5557387 17.9996422-14.5557387zm0 2.90934328c-8.27124714 0-15.00017897 5.22460311-15.00017897 11.64639542 0 3.5957318 1.78207193 5.6319944 3.03739488 7.0866661.18178565 2.2062982-.09876543 4.2064718-.90177133 6.2031751 4.01717659-1.1381972 4.90821252-1.7551834 6.40830202-2.6470026 1.515119.3595037 3.6850957.9369306 6.5908034.9369306 7.1490427 0 14.8649132-4.427865 14.8649132-11.5797692 0-6.42179231-6.7289318-11.64639542-14.9994632-11.64639542zm-.0674754 16.09065672c.7284717 0 1.3460891.1991366 1.8370157.5912719.4942606.3962272.7451416.8940686.7451416 1.4805667 0 .5844521-.2492141 1.0843394-.7401407 1.4860224-.4909266.402365-1.1110444.6062754-1.8420166.6062754-.7451416 0-1.3752613-.2025465-1.8745228-.6021835-.5025955-.401683-.757644-.9036162-.757644-1.4901143 0-.589226.2567154-1.0884314.7626449-1.4839766.498428-.3900894 1.1277143-.587862 1.8695219-.587862zm-.9409342-13h2.0175188c.2708356 0 .5327349.12204858.7190203.33414519.1602624.18307286.2553761.42191506.2701903.67106755l.0006453.12522498-.4303124 8.25613968c-.0467432.9049455-.7396423 1.6134226-1.5768954 1.6134226-.7926867 0-1.4547738-.6339355-1.5635327-1.4679719l-.0133628-.1491717-.4131273-8.25316287c-.0144354-.29395846.0852376-.58345173.2715229-.79629254.1596732-.1817971.3748995-.29688969.6032566-.32606315l.1150764-.00733784h2.0175188z" fill="#148839" fill-rule="evenodd"/></svg>