<svg height="32" viewBox="0 0 36 32" width="36" xmlns="http://www.w3.org/2000/svg"><path d="m22.5 10.128005c.756638 0 1.3726229.615357 1.3726229 1.371995s-.6159849 1.3726229-1.3726229 1.3726229-1.3726229-.6159849-1.3726229-1.3726229.6159849-1.371995 1.3726229-1.371995m10.4617241-9.79038227c1.654138 0 2.9966897 1.32729545 2.9966897 2.96263636v20.73722731c0 1.6353409-1.3425517 2.9626363-2.9966897 2.9626363h-29.96503444c-1.65413794 0-2.99668966-1.3272954-2.99668966-2.9626363v-20.73722731c0-1.63534091 1.34255172-2.96263636 2.99668966-2.96263636zm-1.4983448 2.96263636h-26.96834482v20.73722731h26.96834482zm-13.9630799 13.69977181c1.001131-.0005729 2.0082496.2824647 2.8273568.8101521.8143171.5276875 1.4579868 1.2942953 1.6723438 2.189817-.8652119-.3798662-1.6100725-.6445694-2.347748-.8124439-.7328854-.1707392-1.4394252-.2457958-2.1519526-.2469417-.7131262.0040107-1.4190673.0784943-2.1519526.2492335-.7370768.1684475-1.4813386.4320047-2.3483468.8101521.2119619-.8972406.8556317-1.6649943 1.6711463-2.1921088.8191072-.5282604 1.8274233-.811298 2.8291531-.8078603zm4.9997006-9.0000309c1.9295838 0 3.5 1.57041622 3.5 3.5 0 1.9295838-1.5704162 3.5-3.5 3.5s-3.5-1.5704162-3.5-3.5c0-1.92958378 1.5704162-3.5 3.5-3.5zm-10 0c1.9295838 0 3.5 1.57041622 3.5 3.5 0 1.9295838-1.5704162 3.5-3.5 3.5s-3.5-1.5704162-3.5-3.5c0-1.92958378 1.5704162-3.5 3.5-3.5zm21.2108966 4.9282136c-.414 0-.7491725.3319773-.7491725.7406591s.3351725.7406591.7491725.7406591c.4133793 0 .7491724-.3319773.7491724-.7406591s-.3357931-.7406591-.7491724-.7406591zm-21.2108966-2.8002086c-.756638 0-1.371995.615357-1.371995 1.371995s.615357 1.3726229 1.371995 1.3726229 1.371995-.6159849 1.371995-1.3726229-.615357-1.371995-1.371995-1.371995z" fill="#148839" fill-rule="evenodd" transform="translate(0 2)"/></svg>