<svg height="32" viewBox="0 0 36 32" width="36" xmlns="http://www.w3.org/2000/svg"><path d="m23.2419229 20.2155238c-1.6342156.8730957-3.1133095-.385598-3.7698578-1.925674-.627928-1.467704-.2467064-3.1490501 1.0108668-4.498064.8660484-.9292564 1.3474408-2.0414692 1.1654161-2.8890899-.0675437-.3230686-.2587269-.7538267-.7698844-.96573191-.5128746-.21480007-1.0440663-.14763886-1.472225.09379411-.6880305.3861769-1.2352495 1.3264339-1.4235707 2.4519631l-1.9496106-.3334902c.2924989-1.7386647 1.1940364-3.1843676 2.4132585-3.86640126.9639296-.54018454 2.1104563-.64324226 3.1837153-.19627284 1.0068599.4185996 1.7172142 1.29169532 1.953045 2.3958024.3216915 1.5134431-.3308499 3.2532658-1.6634082 4.6827574 2.7154882.6849285 3.0474829 3.9862493 1.322255 5.0504071m-15.20593248-7.5492672c0-2.5214402 1.09214829-4.78118332 2.81394178-6.33052293l-1.82711597-2.11326217c-2.2964879 2.06404922-3.75039599 5.07703999-3.75039599 8.4437851 0 3.366745 1.45390809 6.3797358 3.75039599 8.443785l1.82711597-2.1132622c-1.72179349-1.5493396-2.81394178-3.8108196-2.81394178-6.3305228m-.58041842 10.5489415-1.82826081 2.118473c-3.44301463-3.0969423-5.62731119-7.6181654-5.62731119-12.6674145 0-5.04924918 2.18429656-9.56989329 5.62731119-12.6662566l1.82826081 2.117315c-2.86946506 2.58107472-4.69257422 6.34905012-4.69257422 10.5489416 0 4.1998914 1.82310916 7.9667088 4.69257422 10.5489415m16.1698621 8.7848019c-3.1659708 0-4.9770594-2.5208612-5.9421339-5.6380677-.3508841-1.1469513-.6828788-2.381328-2.2833225-4.0279356-2.9181195-3.006622-4.1705411-6.4382124-4.1705411-9.8020626 0-5.61085576 4.3708827-9.86401299 9.1716414-9.86401299 5.6908482 0 9.998194 5.04230143 7.1682249 12.91811109l-2.524305-.9182558c2.2289441-6.4463181-1.1848779-9.01870819-4.7217669-9.08644837-3.0680895-.0602135-5.8362389 2.68007961-6.2151709 5.87950067-.3291327 2.7924009.3932421 6.1695675 3.032028 8.7303781 2.286757 2.2192148 2.5981452 3.6880767 3.0160007 5.1424643.9633572 3.3545865 2.481947 3.8704541 3.5655093 3.7986611 2.5351806-.169061 3.6382046-2.8601411 1.2444079-5.918292l2.4018104-1.3669622c1.108748 1.6523973 1.6221951 3.4292745 1.6320556 4.8199747.0210493 3.2665822-2.5564893 5.3329473-5.3744379 5.3329473" fill="#148839" fill-rule="evenodd" transform="translate(3)"/></svg>