<svg height="32" viewBox="0 0 36 32" width="36" xmlns="http://www.w3.org/2000/svg"><path d="m2.32485 11.4346 2.1925.932.0305.134c-1.3145 1.4685-2.048 3.1085-2.135 4.523-.174 2.7745 2.618 3.621 5.335 3.334.4035 2.865 3.3715 3.868 5.59 2.8265 1.78896.8376 3.1848576 2.6438016 4.3372132 5.4973463l.1427868.3621537.002.007.134-.0425c-.263-1.8625-.1085-3.9215.4325-5.342 4.6945.8095 8.2295-1.3605 8.038-5.6955l-.0133125-.151375-.0166875-.152125 2.289-1.117c.101.578.154 1.1585.154 1.7345 0 5.3675-4.5455 8.2105-8.5865 8.017-.1685357 1.5864643.0392985 2.9142551.3809038 4.039018l.0810962.255982-4.47 1.4035c-.406-1.332-1.1935-4.5095-3.307-6.228-3.2775.946-5.9705-.7625-6.9495-3.0995-3.404.0545-5.9865-2.1655-5.9865-5.371 0-1.9015.8185-4.001 2.325-5.867zm10.2132239 3.5654.4619261 3-2-2.3551952zm12.0654555-4 .2074265 2.4402112 2.1890441 1.2181079-2.3280147.9449201-.5172794 2.3967608-1.6455147-1.855879-2.5091912.2631992 1.3109559-2.0926084-1.0335294-2.2334475 2.4561764.5628567zm-5.7413266-3 1.1377972 1.04132231c-.2993692.33987604-.6254246.82271138-.9078117 1.27884619-.2886949.4683725-.556526.960108-.8098011 1.4663064-.2455119.5095359-.484231 1.0301971-.6943232 1.5686586-.2159146.5356802-.4056283 1.0869358-.588064 1.6448665.1193595-1.1826128.3212033-2.3652257.6108685-3.5350445.1499272-.5835188.3197477-1.1642562.5196507-1.7383185.2091218-.58240623.4099951-1.12142403.7316836-1.726637zm-10.44264502-4 2.63077272 2.88450692 3.9496695-.45902001-2.0254844 3.30911254 1.6724413 3.48893985-3.8824709-.8390324-2.91611582 2.6154931-.37410531-3.8282365-3.47426487-1.87243328 3.65078641-1.52683529zm16.58044222-4-4.0159744 7.19002915-1.1789138-2.27440233-3.8051118 4.08437318 4.0298722-8.39072886 1.3926518 2.24973761z" fill="#148839" fill-rule="evenodd" transform="translate(3)"/></svg>