<svg height="32" viewBox="0 0 36 32" width="36" xmlns="http://www.w3.org/2000/svg"><path d="m13.8408834 7.37396999c-.4402759-.05182509-.8619724-.05467262-1.3180127-.00284753l.6592878-2.99332609zm-3.5892059.67999075c-.38397464.21926-.74092469.48465002-1.06015288.79161402l-.67111113-1.98245208zm6.0321179.11162327 1.7053655-1.19653313-.6609769 2.00807988c-.3124721-.31208956-.665481-.58545267-1.0443886-.81154675zm-7.89005976 3.26668919c-.09233408.4447846-.12161074.8867216-.09346011 1.3297977l-1.10181583-.6144975zm9.63708816.0683408.9627517.5820356-.8743587.7500401c.0304027-.433964.0028151-.8776095-.088393-1.3320757zm-5.0901977 7.1843243h-1.864135c-.0168904-3.4267205-1.84893367-3.8373347-1.84893367-6.1962305 0-2.2598018 1.74928037-3.80259486 3.95460107-3.80259486h.0258986c2.1923714.01195964 3.9287026 1.55019666 3.9287026 3.80259486 0 2.3588958-1.8337324 2.76951-1.8511858 6.1962305h-1.864135c0-3.64655 1.7374572-4.8191639 1.7374572-6.2013561 0-1.1418605-.9148956-1.7774298-1.9767376-1.797932h-.0253355c-1.0517077.0296144-1.952528.6657531-1.952528 1.797932 0 1.3821922 1.7363311 2.5548061 1.7363311 6.2013561zm1.7425243 1.314421h-3.0042357c-.1818531 0-.3293625-.1475022-.3293625-.3331613 0-.1839506.1475094-.3331613.3293625-.3331613h3.0042357c.1818531 0 .3299254.1492107.3299254.3331613s-.1463833.3331613-.3299254.3331613zm-1.2155444 1.3337842h-.5889113c-.1542655 0-.3045899-.0523946-.4059321-.1452242l-.7831507-.5216679h2.9659508l-.7831506.5216679c-.1002163.0916906-.2488516.1452242-.4048061.1452242zm-.0827629-18.66728363c-5.64814327.06378472-10.20291591 3.39710619-10.70512323 8.65080353-.25279269 2.6544697.61030576 5.3146345 1.99869504 7.6068982.80510815 1.3337841 1.72000377 2.1225506 1.92944448 5.1671323.11992171 1.7506629-.06587248 3.5144245-.31753915 5.2428767h11.34132756c.1863572-.8605243.4616704-1.980174.9058874-2.7427432.5922894-1.0216947 1.4463796-1.4659097 2.5391872-1.6720711 1.1040679-.1976187 1.6316108-.0791614 1.9620993-1.0467529.2798173-.7722508.8073602-2.9614337 1.0956227-5.2030112 1.5860067-.4464931.8067971-.214704 2.2025056-.745484-.2713721-.3120896-2.527927-3.0855862-2.6951417-3.466586-.443091-1.0120131-.0608054-1.5872146.2967076-2.5508196.1131656-.3348698.0788218-.4761074-.0123862-.8178113-1.3821962-5.26508747-5.1290456-8.42243143-10.5412866-8.42243143zm6.3823118 29.33414013h-16.61506738s.9672558-5.2411682.8343848-7.5812704c-.05461223-.965883-.21225578-1.9653668-.71221105-2.8059584-.85014916-1.3332147-3.47435129-4.959832-3.26209551-9.9071349.29501865-6.94513157 6.1858204-11.7056363 13.34790484-11.7056363 6.7201194 0 11.2135237 4.00192208 12.9943328 9.97775365.4323937 1.43914285.4098732 2.05477945-.1987435 3.47626755l-.0084452.0176548 2.308352 2.856075c.3428748.5079998.5444333 1.054726.5444333 1.6521383 0 .7289683-.3074049 1.3930129-.8039821 1.8651337-.485317.4601613-1.0111708.6025379-1.6451231.8559683 0 0-.7595041 3.4563349-1.1507979 4.3880475-.9227778 2.1908914-2.5971776 2.2125327-3.9151903 2.4659631-.5190976.1104842-.6457755.1771165-.8974422.9077933-.2741872.788197-.4785608 1.9135418-.8203095 3.5372048z" fill="#148839" fill-rule="evenodd" transform="translate(4)"/></svg>