<svg height="32" viewBox="0 0 36 32" width="36" xmlns="http://www.w3.org/2000/svg"><g fill="none" fill-rule="evenodd"><path d="m0 0h36v32h-36z" fill="#fff"/><path d="m16.5072247 3.02650795c1.7972753.56656997 3.2739497 1.67730319 4.2288517 3.23563736 2.079128 3.39408489 1.5095839 8.44573369-1.6040655 14.22666799-.5196493.965623-.3413018 1.3497383-.2823834 1.4761762.4766548 1.0259078 3.1757524 1.6383582 5.5574341 2.178787l.1608311.0362775c.5966147.1355073 1.2425935.7063453 1.92042 1.696509l.5116873.7479577-.6523483.6337901c-.1990485.1936581-4.9634734 4.7416892-12.8781725 4.7416892-7.90886033 0-12.59207342-4.4530693-12.78740634-4.6424594l-.68207286-.6615318.56689013-.7586276c.52389564-.7010103 1.31849725-1.5748724 2.12955354-1.7594612l.25902844-.0586842c2.23040478-.5057518 5.00699865-1.1352739 5.4767531-2.1590477.05785677-.125371.23355024-.5078857-.29459177-1.4644394-3.14815106-5.7083792-3.73574223-10.74402318-1.65449113-14.17865357.91190753-1.50551832 2.30153145-2.60024674 3.99370909-3.19775933l-.2818527 2.53516055c-.73780641.43959855-1.35512216 1.03017572-1.80789115 1.77706645-1.66510704 2.7490914-1.06212279 7.0197059 1.69907795 12.0260078.6969352 1.2643793.8206107 2.4076556.3662493 3.3978194-.92146187 2.0086025-3.87321841 2.6776032-6.99801445 3.3866159l-.22824228.0517489c-.02760139.0181388-.08970452.0666867-.18949417.161115 1.51701496 1.1219366 5.20870112 3.3668767 10.4327953 3.3668767 5.2670887 0 9.0192856-2.3292321 10.5554092-3.4847787-.0276014-.0266747-.049364-.0458805-.0658187-.0592178l-.0504256-.0112034c-3.1598286-.7175486-6.1444945-1.3945517-7.074449-3.3956853-.4586078-.9869628-.3444866-2.1313061.3391786-3.4010203 2.7357226-5.0793905 3.3264985-9.3708113 1.6645762-12.08415863-.5037254-.82157981-1.2043761-1.4591044-2.0573652-1.90083692zm-2.0578961-3.02650795.5483123 6.84952152 1.9241355.38464873-3.3997484 5.44109895-3.3997483-5.44109895 1.9241355-.38464873.5483122-6.84952152z" fill="#148839" transform="translate(5)"/></g></svg>