<svg height="32" viewBox="0 0 36 32" width="36" xmlns="http://www.w3.org/2000/svg"><path d="m18.3479844 9.56338137c-.443173.33721199-.989961.55729363-1.5854356.60599523l-.5449155 3.1711489c.7565149.3261155 1.3476203.9475226 1.6191417 1.7125684l5.4722497-.4204361c.0705332-.3889959.2053576-.7551823.3926138-1.0893119zm-3.0884785.35817215c-1.0373993-.4568082-1.7595839-1.47214302-1.7595839-2.64899438 0-1.60530168 1.3444993-2.90853047 3.0004681-2.90853047 1.6553446 0 2.9992198 1.30322879 2.9992198 2.90853047 0 .37851584-.0742783.74038684-.2109753 1.07389998 1.8226268 1.32480542 3.6078023 2.69769588 5.3998439 4.06380518.636671-.4839331 1.44-.7736765 2.3119896-.7736765 2.069805 0 3.7494929 1.6287278 3.7494929 3.6359713 0 2.0072436-1.6796879 3.6365879-3.7494929 3.6365879-1.7564629 0-3.2326658-1.1743855-3.6396359-2.7568776-1.8014044.1430223-3.6053055.2515219-5.4085825.3698852-.2546684 1.3568621-1.4805722 2.3869924-2.9517816 2.3869924-1.6559688 0-3.0004681-1.3032288-3.0004681-2.9097635 0-1.5017338 1.176593-2.7402327 2.6852536-2.8925021.1797659-1.0634199.3782575-2.1231409.5742523-3.18532788zm-12.2471782 3.61254528c-.21721717 3.4214379 3.26824447 4.4657471 6.66007802 4.1106573.50371908 3.53302 4.20889468 4.7696694 6.97778938 3.4855514 2.3263459 1.0757494 4.1208842 3.4467134 5.593342 7.224474l.0031209.0086307.166658-.0524004c-.3283225-2.2963705-.1354486-4.8350158.539922-6.5858057 5.8604941.9974571 10.273498-1.6780457 10.0350585-7.0228866-.2496749-5.56923789-5.4853576-11.6519997-14.7639012-11.79502197-9.45331598-.05918163-14.93555265 6.18941203-15.2120676 10.62680127zm32.9876723 1.5553672c0 6.6178624-5.6744863 10.1231409-10.7191678 9.884565-.2259557 2.1064961.0917556 3.843107.5767491 5.2955228l-5.5802341 1.7304462c-.5074642-1.6422902-1.4893108-5.5599908-4.1277503-7.6788164-4.0927959 1.1663713-7.45342005-.9395083-8.67557869-3.8215304-4.25009103.0678123-7.47401821-2.6699545-7.47401821-6.6221777 0-6.10742079 6.90663199-13.8774755 17.9847074-13.8774755 11.2984135 0 18.0152926 7.82060569 18.0152926 15.089466z" fill="#148839" fill-rule="evenodd"/></svg>