<svg height="32" viewBox="0 0 36 32" width="36" xmlns="http://www.w3.org/2000/svg"><g fill="none" fill-rule="evenodd"><path d="m0 0h36v32h-36z" fill="#fff"/><path d="m30.1754223 19.1980118c1.4222947-.0625615 1.3814599 1.9834851.0055369 2.1107409l-2.3158141.1336542c-.9648072.1272559-.8623743 1.6244672.1854866 1.5825225 0 0 .9018248-.0227496 1.5025799-.0554522 1.4042997-.0753583 1.3364725 1.9301655.0526007 2.0951005-.5571519.0710927-2.2936664.154982-2.2936664.154982-1.066548.0973969-.9288173 1.6678337.1432676 1.5412888l1.0132552-.0419447c1.0803902-.1002406 1.3191696 1.1140219-.3841234 2.2429733-2.0597318 1.190091-6.1598163.1770207-8.4354878-.8289404-2.9435616-1.3031284-5.8345226-2.6119441-9.1490575-2.7093411v-8.1031408c4.291108-1.0116485 8.3199047-3.0441875 10.9402491-12.30684958 1.1807468-4.17598257 2.2071521-2.60838952 2.2071521.77490994 0 2.79678506-.6443583 5.11298374-1.2105077 7.47254904 1.3946101.7329652 4.4316072 1.8931974 8.0465196 2.1014988 1.3863047.0796238 1.3461621 1.9642901-.0678272 2.1384671l-1.8327184.2260747s-.7986997 1.500055.1868709 1.5071642c0 0 .2643876.0135077 1.4056839-.0362572zm-25.1754223 7.8019882h2v-11h-2zm20.2389726-15.2482069c1.0788094-4.37700422 1.6705051-11.7517931-2.9282972-11.7517931-2.4811915 0-3.1346538 2.22359676-3.7775877 4.43877081-2.0635652 7.11438659-5.2613893 9.08810949-8.5329122 9.86791249v-.9735254h-8.0001755v16.0003509h8.0001755v-1.2051501c3.1704503.3039196 5.4916102 1.1518062 8.2254831 2.3274769 1.6754184.7215459 4.070277 1.5441644 7.1143866 1.5441644 3.3838257 0 5.7267443-1.3286833 6.679213-4.9146542.6660964-2.5022483 1.9807418-9.6664693 1.9807418-11.0000658 0-2.1976267-1.5567985-3.2616964-3.4582264-3.3410103-1.6136518-.0687855-3.8267202-.3713014-5.302801-.9924766z" fill="#148839"/></g></svg>