<svg height="32" viewBox="0 0 36 32" width="36" xmlns="http://www.w3.org/2000/svg"><path d="m10.7253818 3.31693846.1949922.00492681c1.7409944.08833654 3.2273215 1.35520589 3.5702057 3.04403516l.0333476.18934572.5465454 3.65130765c.0370909-.0064615.0741818-.012923.1107273-.0183076.1707273-.0247693.3441818-.0376924.516-.0371539.9496364 0 1.8283636.3844615 2.4692727 1.0117692.2525455-.0996153.5181818-.1701538.7936364-.2105384.1701818-.0247693.3436364-.0376923.5154545-.0376923 1.6629495 0 3.1089114 1.1808779 3.4397369 2.7752434l.0331722.1857566.4816364 3.2183846c.0294545.1978846.0417273.3987981.0363579.5991058l-.011267.1999711-.4849091 5.6608462c-.006.0753846-.0136364.1814615-.0229091.3096153-.1720588 2.4448372-.3667266 5.2062002-2.3499988 5.6540414l-.1852739.0342663-9.78 1.4269231c-.0981818.014-.1974546.021-.2961818.021-1.6167273 0-2.30345457-1.5873846-3.09818185-3.4256923-.10472727-.2418461-.2395102-.5537143-.32637582-.7355416l-.03907872-.0791507-3.22636364-4.0535385c-1.03208727-1.2974769-.9994752-3.0951699.05392114-4.3502476l.13698795-.1539831.18109091-.1916923-3.50890909-6.035077c-1.05436364-1.8135384-.41781818-4.1364615 1.41981818-5.17784612.58145455-.32953846 1.242-.50346153 1.91072728-.50346153 1.15926136 0 2.24996804.52010967 2.97279252 1.38906907l.13957111.17839246-.02945454-.19707692c-.30981818-2.06823077 1.14327272-4.00023077 3.23890907-4.30661538.1865455-.02692308.3763637-.04038462.564-.04038462zm0 1.841c-.096 0-.1930909.007-.2912727.021-1.0309091.1505979-1.75765741 1.06117085-1.68306947 2.07138488l.01616037.14492281 1.2529091 8.36661535-.55309092.0807693-3.91090909-6.72753849c-.36545454-.62838462-1.032-.98053846-1.71709091-.98053846-.33327273 0-.67145454.08346153-.98181818.25953846-.90008182.50949231-1.23995727 1.61185769-.80590616 2.52226829l.07499707.1420394 4.19290909 7.2121538-1.11709091 1.1851539c-.51570909.5472923-.58287515 1.3647631-.18242877 1.9835401l.09297423.129383 3.28254545 4.1246154c.34612364.4347323 1.27436335 3.2286188 1.8682935 3.4514341l.0724338.0141043.024-.0016154 9.7794545-1.426923c.729526-.1059231.8965791-3.3361319.9652918-4.240722l.0072537-.0906627.4854545-5.6608461c.0069091-.0832821.0075152-.1670428.0016566-.2503248l-.0136566-.1244444-.4821818-3.2183847c-.1205455-.8082307-.8241818-1.3886923-1.6276364-1.3886923-.0801818 0-.1614545.0059231-.2427272.0177693-.8531484.1239595-1.456137.8727909-1.4040831 1.7071617l.0148103.1397613-.3256363.0473847-.1930909-1.2869231c-.1210909-.8082308-.8247273-1.3892308-1.6276364-1.3897693-.0801818 0-.1614545.0064616-.2432727.0183077-.8526316.1244697-1.4555931.8728447-1.4035377 1.7067082l.0148104.1396765.1925455 1.2874615-.3261819.0473846-1.2523636-8.36661538c-.1450909-.96976923-.9894545-1.66653846-1.9538182-1.66653846zm5.2746182-1.33936241.4820743-1.81857605c2.5139014.72479545 5.8990345 2.70510814 7.3766278 5.93593596l.1412979.32725098-1.6658288.73681306c-1.0305322-2.53494904-3.7535947-4.36398662-6.0858743-5.10608948l-.2482969-.07533447.4820743-1.81857605zm4.00158-3.62507605c1.3314.5 3.2328 1.402 4.7256 2.8625l-.7806.5545c-1.0686-1.045-2.6196-1.982-4.3662-2.6375z" fill="#148839" fill-rule="evenodd" transform="translate(4 1)"/></svg>