<svg height="32" viewBox="0 0 36 32" width="36" xmlns="http://www.w3.org/2000/svg"><g fill="none" fill-rule="evenodd"><path d="m0 0h36v32h-36z" fill="#fff"/><path d="m14.3292212 6.51104835c0-.4301379.3489096-.77903307.7790654-.77903307s.778567.34889517.778567.77903307c0 .43013789-.3484112.77853464-.778567.77853464s-.7790654-.34839675-.7790654-.77853464zm3.6350515-6.19104835c11.5036364 0 17.9198182 9.20871795 17.9198182 9.20871795s-6.3578182 10.47128205-17.9198182 10.47128205c-10.73509088 0-17.96454543-10.47128205-17.96454543-10.47128205s6.64745455-9.20871795 17.96454543-9.20871795zm0 2.81128205c-6.9687272 0-11.93890906 4.14153846-14.17090906 6.45692308 2.31436363 2.62974357 7.56218186 7.60051277 14.17090906 7.60051277 7.1634546 0 12.1150909-4.9579487 14.2101818-7.54051277-2.1545454-2.2825641-7.1067272-6.51692308-14.2101818-6.51692308zm.0354781.86871795c.9546168 0 1.8555364.2248729 2.6566116.62193305l.2632638.13865841-2.8216823 2.51054993-.0981931-.00947002c-1.5102804 0-2.7384424 1.22811099-2.7384424 2.73832863 0 1.5102176 1.228162 2.738827 2.7384424 2.738827s2.7389408-1.2286094 2.7389408-2.738827c0-.08207343-.0093043-.16193166-.0200854-.24134685l-.0163009-.11901201 2.2838629-2.97607576c.64.95397906 1.0138318 2.10134573 1.0138318 3.33643462 0 3.3135072-2.6861059 6-6.0002492 6-3.3136449 0-5.9997508-2.6864928-5.9997508-6 0-3.31350723 2.6861059-6 5.9997508-6zm4.7258853.92307692.351287.29581769-.47804.58870165-2.1077218 2.59586135-.8701983 1.0713001c.1650376.47770889.0693261 1.02142669-.3104156 1.42334759-.305242.3222213-.7274072.4865101-1.1516418.4865101-.3662904 0-.7341329-.1222387-1.0285103-.3711168-.6358346-.5368724-.6901573-1.45904125-.1226141-2.06045573.3042072-.32075439.7232683-.48113158 1.1454334-.48113158l.158894.00763992.1577299.02267528z" fill="#148839" transform="translate(0 6)"/></g></svg>