<svg height="32" viewBox="0 0 36 32" width="36" xmlns="http://www.w3.org/2000/svg"><g fill="none" fill-rule="evenodd"><path d="m0 0h36v32h-36z" fill="#fff"/><g fill="#148839" transform="translate(4)"><path d="m3.67087145 28.3671997h20.65893115v-12.7811855h-20.65893115zm5.28117477-20.8714217c0-2.75612452 2.26413098-4.99718533 5.04795378-4.99718533 2.7831488 0 5.0479538 2.24106081 5.0479538 4.99718533v4.4567688h-10.09590758zm12.62089548 4.4567688v-4.4567688c0-4.13852345-3.3918151-7.495778-7.5729417-7.495778-4.18112662 0-7.57226769 3.35725455-7.57226769 7.495778v4.4567688h-6.42773231v20.0474532h28v-20.0474532z"/><path d="m13.2501614 22.3435187v2.6564813h2.4996772v-2.6564813c.7448045-.404889 1.2501614-1.148993 1.2501614-2.0099845 0-1.2881736-1.1204337-2.3335342-2.4996773-2.3335342-1.379889 0-2.5003227 1.0453606-2.5003227 2.3335342 0 .8621966.5066477 1.6050955 1.2501614 2.0099845"/></g></g></svg>