<svg height="32" viewBox="0 0 36 32" width="36" xmlns="http://www.w3.org/2000/svg"><g fill="none" fill-rule="evenodd"><path d="m0 0h36v32h-36z" fill="#fff"/><path d="m19.9837008 5v4.37448948c.3384282-.37386114.7383336-.65786994 1.1984986-.84951304.460165-.19227144.9653726-.28840717 1.5156229-.28840717.825984 0 1.5637089.1815897 2.214392.54476909.650683.36317939 1.1613688.8752749 1.5320573 1.53754324.3700798.6628966.5557284 1.4263273.5557284 2.2915488s-.1856486 1.6317939-.5557284 2.2990889c-.3706885.6679234-.8813743 1.1831606-1.5320573 1.5457116-.6506831.3638077-1.388408.5447691-2.214392.5447691-.5819018 0-1.1138916-.1011624-1.5947518-.3041156-.4126877-.1739599-.7694758-.4222432-1.0692145-.7452456l-.1451099-.1677296v1.1052466h-1.8887461v-11.8881558zm2.4919518 4.93496701c-.4765994 0-.9051129.10995919-1.2855403.32799249-.3810361.2186616-.6829434.531574-.905113.9374803-.2215609.4059064-.3329501.8759033-.3329501 1.4099906 0 .5340874.1113892 1.0040842.3329501 1.4099906.2221696.4059064.5240769.7181904.905113.936852.3804274.21929.8089409.3286208 1.2855403.3286208.729812 0 1.330583-.2456802 1.8017044-.7370405.4705126-.4913604.7060733-1.1379202.7060733-1.9384229 0-.801131-.2355607-1.4470625-.7060733-1.9390512-.4711214-.490732-1.0718924-.73641219-1.8017044-.73641219zm-12.4749431-2.93496701 2.6600745 1.78029871.9212486-1.00159617 2.4179674 4.22129746-5.3095956-1.0768441.9206279-1.00159621-2.6110323-1.8338844zm25.0382813-4c.1095184 0 .2006881.04909213.2735092.1466039l.5779817.65971755c.0728211.08540686.1095183.19569603.1095183.32952253 0 .13449899-.0366972.24478817-.1095183.33019502l-4.6095184 5.38802959c-.0728211.09751177-.1668578.14593141-.2809633.14593141-.1146789 0-.2087156-.04841964-.2815367-.14593141l-2.6095183-3.04236718c-.0728211-.08540686-.108945-.19569603-.108945-.32952253 0-.13449899.0361239-.24478816.108945-.33019502l.5779816-.65971755c.0733945-.09751177.1645642-.1466039.2740826-.1466039.1089449 0 .2052752.04909213.2884174.1466039l1.7505734 2.0524546 3.75-4.39811701c.0831422-.09751177.1794725-.1466039.2889908-.1466039zm-31.15505234-2.4219c1.26215385 0 2.22769231.2886 2.89661539.8646.57827219.49901538.90695311 1.21735385.98459073 2.15501538l.0141785.23898462.00430769.2148v4.7886h-1.89353846v-.9948c-.24676923.3576-.59692308.63-1.05169231.819-.45476923.1884-1.00246154.2826-1.64492308.2826-.64184615 0-1.20307692-.1044-1.68492307-.3126-.48123077-.2094-.85353846-.5004-1.11569231-.873-.26215385-.372-.39261539-.7926-.39261539-1.2618 0-.7344.28553847-1.3236.85846154-1.767.48964103-.38005 1.22024787-.59675 2.19134651-.65148646l.27080734-.01091354.24184615-.003h2.21476923v-.1224c0-.5712-.1796923-1.0104-.53784615-1.3164-.35815385-.3054-.89046154-.4584-1.59630769-.4584-.48123077 0-.95569231.0714-1.42092308.2136-.31901538.0984-.60416.222912-.85511877.373536l-.18180431.117864-.14215384.1056-.78646154-1.392c.44923077-.3264.98953846-.5766 1.62092308-.75.63076923-.1734 1.2996923-.2604 2.00615384-.2604zm1.89353846 4.7586h-2.07015384c-1.15569231 0-1.73353846.3624-1.73353846 1.086 0 .3474.14461538.6228.43323076.8262.28923077.204.69046154.306 1.20369231.306.50276923 0 .94892308-.1092 1.34030769-.3288.33494506-.18771429.58489168-.44507755.75061494-.77171195l.0758466-.16908805z" fill="#148839" transform="translate(0 7)"/></g></svg>