<svg height="32" viewBox="0 0 36 32" width="36" xmlns="http://www.w3.org/2000/svg"><path d="m17.9847074 0c11.2977893 0 18.0152926 7.82075635 18.0152926 15.0891402 0 6.6179899-5.6744863 10.1239524-10.7191678 9.8853719-.2265799 2.1065367.0911314 3.8431811.5761249 5.2956249l-5.5802341 1.729863c-.50684-1.6423218-1.4893108-5.5594814-4.1277503-7.6789643-4.0921717 1.1663937-7.45342003-.9395265-8.67557868-3.8209875-4.24946684.0671971-7.47339402-2.6706225-7.47339402-6.6223053 0-6.1075385 6.9060078-13.8777429 17.9847074-13.8777429zm.2390637 2.90735354c-9.45269178-.05979926-14.93555263 6.18891479-15.21206759 10.62700596-.00873862.1473405-.00249675.2848171.00124838.4235267l3.43427828-2.4110813.43318595-.3039282.20535761.4044156c.13544864.2669389.35953186.5647022.60046814.7983509.24592978.239197.53118336.4414048.85451236.5690176.32208062.1288459.68098829.1800143 1.04488946.146724.3626528-.0357563.72717811-.1473405 1.06923281-.3100931-.3058518.2219354-.6491548.4056486-1.02928482.5166163-.38013004.1078852-.79708713.1306953-1.20343303.0505519-.40572172-.0782938-.79146944-.2533762-1.13539662-.48086-.20723017-.1411755-.39573472-.2922149-.57425228-.4648313l-3.21706112 3.2131312c1.05487647 1.7064365 3.64150846 2.2242857 6.17695709 1.9591962.50371908 3.5324716 4.20827048 4.7691449 6.97778938 3.4850021 2.3263459 1.0757701 4.12026 3.4473963 5.593342 7.2246132l.0024967.0086308.166658-.0524014c-.3283225-2.2964147-.1348244-4.8351089.5405462-6.5859325 1.7296229.2946809 3.3275422.2607741 4.7226008-.0585663-.5361769-.3976342-1.079844-.9765157-1.2358908-1.7477411-.0524317-.1880286-.0480624-.3797561-.0518076-.5677847.003121-.1800143.0262159-.315025.043069-.4740787.0436931-.3063941.1079844-.6090893.193498-.9068526.166658-.531412.3782575-1.0215193.7352926-1.4912825l-.4388036-.9056197c-.0917556.0764444-.1878804.1448745-.2908713.2102222-.1947464.1195985-.410091.2114551-.6379194.2521432-.2259558.0450036-.4637711.0191111-.6710013-.0573333-.213472-.0684301-.3863719-.2071397-.5461638-.3427669.1828868.1078853.370143.2102222.5748764.2385806.19974.0369892.4044734.0234265.5879844-.0474695.1841353-.0671971.3507933-.1744659.4981015-.3033117.143563-.1276129.2821326-.2854336.3757607-.43524l.1635371-.26324.2016124.2805017.8894669 1.2379062.1098569.1535053-.1429389.2422795c-.2297009.3902364-.3813784.9321286-.4375552 1.4308667-.0268401.2570752-.0355787.5147668-.0274643.7724585.0081145.1226809.0112354.2706378.0312094.3723582.0255917.0924731.0312094.1861791.0792718.265706.1310793.3273547.4575292.5844298.8638752.7860211.400104.1917276.926918.3396845 1.346996.3834551l-.0131079.0653476c2.0336021-1.17934 3.2382835-3.2618337 3.1109493-6.1124704-.086762-1.9345367-.7883485-3.9264068-2.0385956-5.71483612-.3795058.34769877-.8351625.63189936-1.3295188.78725413l-.2908713.0912401-.1235891-.096172c-.1379454-.10726877-.3420546-.21946943-.5286866-.3076271-.193498-.08939064-.3957347-.16213613-.6060858-.21392105-.4169571-.09802146-.8744863-.09432254-1.3039272.10356985.3345644-.3273547.8251756-.52031518 1.3282705-.57086713.2509233-.024043.5062159-.02219354.7596359.00246595.1491807.01602866.2927438.0382222.4388036.0671971.2521717-.216387.4569051-.47469513.6048375-.77307492.0443173-.09000713.0749025-.18679562.1117295-.28111816-2.4842653-2.77049338-6.46658-4.80798351-11.7859038-4.88935981zm-5.6191209 7.53575436c0-3.39006303 4.4891547-4.18039959 6.0852016-1.47463737 1.5848114-2.68541815 6.0852015-1.92713892 6.0852015 1.47463737 0 2.3340204-2.8244473 4.7210588-6.0852015 7.9169283-3.2601301-3.1958695-6.0852016-5.5829079-6.0852016-7.9169283z" fill="#148839" fill-rule="evenodd"/></svg>