<svg height="32" viewBox="0 0 36 32" width="36" xmlns="http://www.w3.org/2000/svg"><g fill="none" fill-rule="evenodd"><path d="m0 0h36v32h-36z" fill="#fff"/><path d="m27.8601041 0c2.2865387 0 4.1401199 1.85360476 4.1401199 4.13960352v23.72079298c0 2.2859987-1.8535812 4.1396035-4.1401199 4.1396035h-19.71976022c-2.28653865 0-4.14011988-1.8536048-4.14011988-4.1396035v-23.72079298c0-2.28599876 1.85358123-4.13960352 4.14011988-4.13960352zm-.159301 2.71896169h-19.40058926c-.88981002 0-1.61349182.72369099-1.61349182 1.61351231v23.3356209c0 .8892524.7236818 1.6129434 1.61349182 1.6129434h19.40058926c.8892411 0 1.6129229-.723691 1.6129229-1.6129434v-23.3356209c0-.88982132-.7236818-1.61351231-1.6129229-1.61351231zm-3.9389865 21.28103831c.1096674 0 .2021165.057443.2298865.1355722l.0085209.0490659v.6307238c0 .0849335-.0741712.1565321-.1750529.178039l-.0633545.0065991h-3.523662c-.1096674 0-.2017854-.057443-.2294451-.1355722l-.0084855-.0490659v-.6307238c0-.0849335.0738401-.1565321.1746114-.178039l.0633192-.0065991zm-9.4763762-2.9640645.0588753.0449194.5750635.5751356c.0898276.0898388.1047988.2263381.0449138.3320205l-.0449138.0590917-.9230094.9226237.8964372.8965496c.0898275.0902566.1047988.2264774.0449137.3320554l-.0449137.0590568-.628208.6282867c-.0898275.0898388-.2266579.1048119-.332153.0449194l-.0589102-.0449194-.8964372-.8965496-.9295271.9296437c-.0898276.0902567-.2263097.1052994-.3316888.0451283l-.0588731-.0451283-.5755648-.5751355c-.0902453-.0898389-.1052862-.2266863-.0451227-.3321947l.0451227-.0589176.9295272-.9296436-.8964372-.8965496c-.0902454-.0898388-.1052863-.2263381-.0451227-.3320206l.0451227-.0590916.6282079-.6282867c.0898276-.0902567.2266579-.1052995.3321531-.0451284l.0589101.0451284.8964372.8965495.9230094-.9226237c.0902454-.0898388.2267972-.1048119.3321879-.0449194zm9.4763762-.0359355c.1096674 0 .2021165.0574642.2298865.1356223l.0085209.049084v.6309568c0 .0846571-.0741712.1562308-.1750529.1777371l-.0633545.0065998h-3.523662c-.1096674 0-.2017854-.0574642-.2294451-.1354085l-.0084855-.0489284v-.6309568c0-.0849649.0738401-.1565899.1746114-.1781048l.0633192-.0066015zm-9.7752853-8c.1420499 0 .2605468.1025231.291504.2395356l.0078875.0710653v1.423025h1.4149098c.1415841 0 .2604136.1021097.2914755.2390041l.0079159.0710342v.9132343c0 .1471014-.0986032.2698122-.2307966.3018703l-.0685948.008168h-1.4149098v1.4224623c0 .1471013-.0982041.2702255-.2306255.3024018l-.068766.0081991h-.9628341c-.1415842 0-.2604137-.1021097-.2914755-.2393584l-.007916-.0712425v-1.4224623h-1.4246903c-.1420498 0-.2605467-.1016964-.291504-.2388269l-.0078874-.0712114v-.9132343c0-.1466191.098204-.2696744.2306255-.3018408l.0687659-.0081975h1.4246903v-1.423025c0-.146619.0986033-.2700877.2307966-.3023723l.0685949-.0082286zm9.7752853 2c.1096674 0 .2021165.0574642.2298865.1356223l.0085209.049084v.6309568c0 .0846571-.0741712.1562308-.1750529.1777371l-.0633545.0065998h-3.523662c-.1096674 0-.2017854-.0574642-.2294451-.1354085l-.0084855-.0489284v-.6309568c0-.0849649.0738401-.1565899.1746114-.1781048l.0633192-.0066015zm2.2384074-9v4h-16v-4z" fill="#148839"/></g></svg>