<svg height="32" viewBox="0 0 36 32" width="36" xmlns="http://www.w3.org/2000/svg"><path d="m11.1850341 12.4318166-2.18411983-3.4303397 3.43090233 2.1835572c-.4759829.3522048-.8957029.7724875-1.2467825 1.2467825zm1.3401786 8.4534777-3.52542369 2.1149167 2.11885509-3.5214854c.386525.5440608.8613826 1.0183558 1.4065686 1.4065687zm6.9535129-9.7666502 3.5197975-2.1171672-2.1177298 3.5186722c-.3865251-.5429355-.8596948-1.01498-1.4020677-1.401505zm3.5214854 11.8815669-3.4309023-2.1858077c.4742949-.3516422.8928898-.7719249 1.2467824-1.2450946zm-7.000211-5.000633c-1.1044377 0-2.0001407-.8957029-2.0001407-1.999578 0-1.1044377.895703-2.0001407 2.0001407-2.0001407 1.1038751 0 1.999578.895703 1.999578 2.0001407 0 1.1038751-.8957029 1.999578-1.999578 1.999578zm2.1436107-5.3652155-2.1436107-7.30121671-2.1481117 7.30290461c-.5721921.3668331-1.0335466.8771362-1.3587453 1.4757718l-7.15999721 1.8881778 7.15999721 1.8881778c.3240734.5986356.7854279 1.110064 1.3587453 1.4757718l2.1481117 7.3029046 2.1571137-7.3057177c.5705043-.3662705 1.0279204-.8788241 1.3519938-1.478585l7.1571841-1.8825515-7.1571841-1.8842394c-.3251986-.602574-.7893663-1.114565-1.3654968-1.4813981zm-2.1436107-12.6343625c-8.83606442 0-16 7.16393558-16 16 0 8.8360644 7.16393558 16 16 16 8.8360644 0 16-7.1639356 16-16 0-8.83606442-7.1639356-16-16-16zm0 2.66685421c7.3518532 0 13.3331458 5.98073001 13.3331458 13.33314579 0 7.3518532-5.9812926 13.3331458-13.3331458 13.3331458-7.35241578 0-13.33370842-5.9812926-13.33370842-13.3331458 0-7.35241578 5.98129264-13.33314579 13.33370842-13.33314579z" fill="#148839" fill-rule="evenodd" transform="translate(2)"/></svg>