<svg height="32" viewBox="0 0 36 32" width="36" xmlns="http://www.w3.org/2000/svg"><g fill="none" fill-rule="evenodd"><path d="m0 0h36v32h-36z" fill="#fff"/><path d="m28.5421303 23.0807157c-.4228421 1.5748419-8.1919227 5.6666546-11.7325819 5.6446774-2.6675102-.0196638-4.9133226-.3626243-6.0622631-.5760347.0085828-.0127237.0160211-.0271824.0246038-.0393277.2271561-.3458521.513819-.6228809.8411069-.8160491.6002184-.3759263 1.6856467-.3441172 2.660644-.3926984.9996011-.0347009 2.0249504-.0734502 3.0297011-.2781854.9950236-.1995301 2.0066405-.5939635 2.6949749-1.3429243-.7907548.6350262-1.7863507.8513284-2.7510487.9028014-.9744251.0508946-1.9499946-.0560998-2.9392964-.169456-.4960814-.0555214-.9950237-.117983-1.5197141-.1474788-.2654922-.0115669-.5286957-.0254473-.8268023.0069402-.3032562.0312308-.6093733.0994759-.8948919.2186156-.5761868.2313392-1.07913432.6124706-1.46993429 1.0549069-.34445327.3944334-.61509512.7853967-.85083391 1.2752575-.08010541.1075728-.14590628.2290259-.18653117.363781-.00171654.0069402-.22086206.7119465-.77530595.9045364-1.03335981-.1075727-3.47142523-4.6528104-5.26063681-9.7347551 1.26166023-.9166817 4.34400203-2.5250678 7.62317423.4713537.4297084.3932767 1.0860006.3961684 1.5231472.0109886.0200264-.0179288 2.0604256-1.69803 4.5797408-1.5788903 2.6938306.1272366 5.2165789 1.4701609 5.2165789 1.4701609s.012588-2.9420568-.3221382-4.5492861c-.1172972-.5638894-.1470507-1.2422917-.1779485-1.9606001-.0583625-1.3354057-.1184415-2.716501-.7615735-3.8234592l-.0389084-.06708838c-1.0865727-1.87153443-2.1073445-3.63607447-3.590439-3.58402314-.6013627.02255558-1.0327876.22382072-1.4138605.40195193-.3478863.16309416-.6763185.3163564-1.2582271.39154166-.9732808.12550153-1.5328743.14863546-1.8521516.13417675.0354753-.10525935.0680896-.22150732.0841107-.35337068.0715227-.57429966-.2443215-.97104645-.4525956-1.23361648-.1785206-.22382072-.346742-.43549612-.3833616-.74086391-.0583625-.48754744.3301487-1.09596964.6139508-1.53956262l.1138641-.18044461c.2122793-.33949033.4834934-.67030544.668308-.86058196 1.0602523.21572384 4.0281578 1.00112055 5.1828201 1.75759985 1.2713873.83282126 2.3110412 1.63672511 2.8059782 2.4880535l.1241633.2128321c.5779034.98319176 6.2281958 9.15698539 7.1505524 11.90413879.4983701 1.4840412 1.0573914 2.5909995.5836251 4.3543828m1.2982799-5.6712814c-.970992-2.4840051-6.4450526-10.71332008-7.0647251-11.768227l-.1190138-.20357853c-.5504386-.94791252-1.8080936-2.12716428-3.533793-3.25783481-1.7508754-1.14686427-6.0456699-2.17979396-6.6590484-2.17979396-.9830079 0-1.9082254 1.24634014-2.3722646 1.98893909l-.10127611.16078077c-.41998123.65584674-1.12147576 1.75470812-.96355366 3.07334177.09555431.79638532.44973466 1.35738298.71865997 1.71538044-.12702429.45284656-.21685679 1.16190132.2786524 1.82873668.680896.91899512 2.0438324.93981565 4.1683423.66567865.9326559-.1202964 1.5088427-.38980661 1.9293961-.58644497.2036966-.09542743.3209938-.14805711.4176925-.17234773.4417241.34064703 1.2507888 1.7350443 1.651888 2.4255919l.0394805.06651c.3547526.6124707.4022436 1.7015001.4485903 2.754672.0337587.7796132.0686618 1.5858305.2248674 2.3353696.0680896.3261883.1630717.6951744.2746471 1.0815109-.8817317-.4464847-1.8058049-.7096331-2.7682142-.7871317-2.4025901-.1902765-4.4029367.8484366-5.456895 1.5511296-5.23660524-3.9454907-10.9538429.9508042-10.9538429.9508042s4.63467024 12.9474788 7.80856109 12.9474788c.21742897 0 .43657449-.0352792.65514783-.1081511.91720696-.3059461 1.4916772-.9259353 1.83784698-1.4718959 1.2353399.2330743 3.6167594.6344479 6.4913993.6188325 4.9430761-.026604 13.3209577-4.9789988 13.9577958-7.351961.6517147-2.4250135-.0886882-4.1756732-.9103408-6.2773902" fill="#148839" transform="translate(2)"/></g></svg>