<svg height="32" viewBox="0 0 36 32" width="36" xmlns="http://www.w3.org/2000/svg"><g fill="none" fill-rule="evenodd"><path d="m0 0h36v32h-36z" fill="#fff"/><path d="m33 18.6666165c0 7.3642813-6.1554038 13.3333835-13.7496569 13.3333835-3.8365389 0-7.2877769-1.5396948-9.77782131-4.0000753h4.51008041c1.5647338.8418042 3.3541774 1.3337599 5.2677409 1.3337599 6.0654023 0 11.0001961-4.7852775 11.0001961-10.6670681 0-5.8811885-4.9347938-10.66706811-11.0001961-10.66706811-1.9135635 0-3.7030071.49255781-5.2677409 1.33375985h-4.51008041c2.49004441-2.45977833 5.94128241-4.00007526 9.77782131-4.00007526 7.5942531 0 13.7496569 5.96970442 13.7496569 13.33338352zm-28.8740441 6.6663907h9.6248774v-2.6663154h-9.6248774zm-4.1259559-5.3326309h11.0001961v-2.6669175h-11.0001961zm2.75063727-5.3344372h11.00019603v-2.6663154h-11.00019603zm25.91987383-8.32169809 1.9341521-1.87689818 1.9441523 1.88532826-1.8159147 1.76188774c-.6353055-.64550364-1.325906-1.23621173-2.0623897-1.77031782zm-12.170217-2.75242271v-3.5918183h5.4995098v3.5918183c-1.9776823-.32395612-3.5635929-.31733248-5.4995098 0zm5.3759782 14.1950586 3.6241823-5.3687597-.6235406-.5413319-5.0506782 4.132548c-.9282519-.1836554-1.9270932.0909245-2.6041641.8243419-1.0117827 1.0965132-.9141339 2.7837344.2188274 3.764635 1.1329614.9815028 2.8712277.8869654 3.8824222-.2113543.6764826-.7334173.8458974-1.7269631.552951-2.600079z" fill="#148839" transform="translate(1)"/></g></svg>