<svg height="32" viewBox="0 0 36 32" width="36" xmlns="http://www.w3.org/2000/svg"><g fill="none" fill-rule="evenodd"><path d="m0 0h36v32h-36z" fill="#fff"/><path d="m16.0001286 19.8554557c-.169023.3676508-.4586868.6505777-.8696199.8477535-.4109331.1982029-.8803016.2967908-1.4087339.2967908-.5403707 0-.9619855-.0919127-1.2661011-.2757381-.3034873-.1843389-.4555451-.4318357-.4555451-.7450578 0-.6526316.6076029-.9792041 1.8228086-.9792041h2.1771914zm11-19.8554557v2.66666667h-22.28206175c-1.85576117 0-1.85576117 2.66666666 0 2.66666666h22.28206175v26.66666667h-22.9497738c-2.23712623 0-4.05022623-1.7907589-4.05022623-3.9996808v-23.99999999c0-2.20956029 1.8131-4.00031921 4.05022623-4.00031921zm-2.8544206 7.91189849h-21.2911589v18.95906151c0 1.3668502 1.12147184 2.4745033 2.50537454 2.4745033h18.78578436zm-10.1538699 6.08810151c1.2976126 0 2.290013.3099646 2.9772012.9292812.6871881.6199293 1.0310893 1.5547237 1.0310893 2.8056085v5.1499456h-1.9467261v-1.0695617c-.2530129.3840866-.6128809.6775116-1.080218.880275-.467337.203376-1.0304751.3044514-1.6906425.3044514-.6595532 0-1.2368158-.1121018-1.7317878-.3369181-.494972-.2248162-.8769479-.5372311-1.1465418-.9378573s-.4040838-.8533215-.4040838-1.358086c0-.7896134.2941583-1.4230194.8824748-1.9002178.5883166-.4771985 1.5143932-.7154915 2.7794581-.7154915h2.2765026v-.1317043c0-.6138034-.1848468-1.0861013-.5526982-1.4150558-.3684655-.3289545-.9156368-.4937381-1.6408997-.4937381-.494972 0-.9819605.0765723-1.4603516.2303294-.478391.1537572-.8824748.367547-1.2122514.6419821l-.8081677-1.4971413c.4618101-.3510074 1.0169648-.6199292 1.6660782-.8067656.6484992-.1862238 1.3356874-.2793357 2.0615644-.2793357z" fill="#148839" transform="translate(4)"/></g></svg>