<?xml version="1.0" encoding="utf-8"?>
<!-- Generator: Adobe Illustrator 23.0.2, SVG Export Plug-In . SVG Version: 6.00 Build 0)  -->
<svg version="1.1" id="Layer_1" xmlns="http://www.w3.org/2000/svg" xmlns:xlink="http://www.w3.org/1999/xlink" x="0px" y="0px"
	 viewBox="0 0 124 124" style="enable-background:new 0 0 124 124;" xml:space="preserve">
<style type="text/css">
	.st0{fill:#004152;}
</style>
<path class="st0" d="M81.1,61.8L110,32.9c3.6-3.6,3.6-9.3,0-12.9l-6.4-6.4c-3.6-3.6-9.3-3.6-12.9,0L61.8,42.5L32.9,13.6
	c-3.6-3.6-9.3-3.6-12.9,0L13.6,20c-3.6,3.6-3.6,9.3,0,12.9l28.9,28.9L13.6,90.7c-3.6,3.6-3.6,9.3,0,12.9L20,110
	c3.6,3.6,9.3,3.6,12.9,0l28.9-28.9L90.7,110c3.6,3.6,9.3,3.6,12.9,0l6.4-6.4c3.6-3.6,3.6-9.3,0-12.9L81.1,61.8z"/>
</svg>
