<?xml version="1.0" encoding="UTF-8"?>
<svg width="60px" height="60px" viewBox="0 0 60 60" version="1.1" xmlns="http://www.w3.org/2000/svg" xmlns:xlink="http://www.w3.org/1999/xlink">
    <!-- Generator: Sketch 54.1 (76490) - https://sketchapp.com -->
    <title>deel</title>
    <desc>Created with Sketch.</desc>
    <g id="deel" stroke="none" stroke-width="1" fill="none" fill-rule="evenodd">
        <rect fill="#000000" x="0" y="0" width="60" height="60"></rect>
        <path d="M46.2465794,47.9943028 L46.2465794,26.7585645 C46.2465794,25.9797981 46.8782056,25.348172 47.656972,25.348172 C48.4357383,25.348172 49.0673645,25.9797981 49.0673645,26.7585645 L49.0673645,50.8150879 L8,50.8150879 L8,11.4129196 L33.0577944,11.4129196 C33.8365607,11.4129196 34.4681869,12.0445458 34.4681869,12.8233121 C34.4681869,13.6020785 33.8365607,14.2337047 33.0577944,14.2337047 L10.820785,14.2337047 L10.820785,47.9943028 L46.2465794,47.9943028 Z M40.1874542,9 L52.5687626,9.21173832 L52.3570243,21.1229159 L48.8319402,21.0601121 L48.9449869,14.6577196 L48.7485009,14.8210093 C45.1354916,17.8167477 38.5985196,23.6682617 35.2528748,29.310729 L32.2113794,27.5262056 C35.4969121,21.9797383 41.3152299,16.4727477 45.6316411,12.8211589 L45.8702953,12.6192897 L40.1246505,12.5250841 L40.1874542,9 Z" fill="#FFFFFF"></path>
    </g>
</svg>