<svg height="60" viewBox="0 0 60 60" width="60" xmlns="http://www.w3.org/2000/svg"><path d="m18.4056822 49.1324112c-.2153271-3.4398505-.516785-8.256-.5643364-9.0096448.0035888-.9635888.0475514-1.5700935.1336822-1.8051589.0870281-.0574206.3723365-.2153271 1.0658692-.3759253l.1516262-.0349906c3.3438504-.772486 6.8016448-1.5700935 8.1070654-4.4285608.4934579-1.0793271.8281121-2.8423177-.3732337-5.1140187-2.1604486-4.0795514-2.7678504-7.6459065-1.627514-9.540785.7419813-1.2327477 2.1039253-1.4920374 3.1168598-1.4920374 1.0120374 0 2.3748785.2592897 3.1159627 1.4920374 1.1412336 1.8948785.5329345 5.4612336-1.6266169 9.540785-1.202243 2.271701-.8666916 4.0346916-.3741308 5.1140187 1.3063177 2.8584673 4.7632149 3.6560748 8.1070654 4.4285608l.1516262.0349906c.6944299.1605982.9797383.3185047 1.0658691.3759253.0861309.2350654.1309907.8415701.1336823 1.8051589-.0466542.7536448-.3490094 5.5697943-.5643365 9.0096448-3.0818691 1.4920374-6.4840374 2.2833645-10.0091215 2.2833645s-6.9281495-.7913271-10.0100187-2.2833645zm-12.99140183-20.7180561c0-6.1431028 2.39282243-11.9192523 6.73704673-16.2643738 4.3442243-4.34422429 10.1203738-6.73704672 16.2643738-6.73704672s11.9201496 2.39282243 16.2643739 6.73704672c4.3442243 4.3451215 6.7370467 10.121271 6.7370467 16.2643738 0 6.144-2.3928224 11.9201496-6.7370467 16.2652711-.9312898.9303925-1.9316636 1.7656822-2.9840748 2.5139439.2090467-3.3761495.4324486-6.9748037.4324486-6.9748037 0-2.8835888-.2269907-4.5478879-3.6318505-5.334729-3.9297196-.9079626-7.588486-1.7037757-5.8174205-5.0521122 5.3939439-10.1894579 1.4292336-15.6381308-4.2634767-15.639028-5.6927102.0008972-9.6574205 5.4495701-4.2643738 15.639028 1.7719626 3.3483365-1.8877009 4.1441496-5.8165234 5.0521122-3.405757.7868411-3.6318504 2.4511402-3.6318504 5.334729 0 0 .2225046 3.5986542.4315514 6.9748037-1.0524112-.7482617-2.0527851-1.5835514-2.9831776-2.5139439-4.3442243-4.3451215-6.73704673-10.1212711-6.73704673-16.2652711zm52.13517753 22.5510281-7.4592897-7.4592897c7.1892337-10.2998131 6.1960374-24.5777944-2.9966355-33.76957014-5.1570841-5.1579813-11.9183551-7.73652336-18.6778318-7.73652336-6.7603738 0-13.5207476 2.57854206-18.67872894 7.73652336-10.31596261 10.31596264-10.31596261 27.04059814 0 37.35656074 5.15798134 5.1579813 11.91835514 7.7365234 18.67872894 7.7365234 5.2871776 0 10.5707664-1.5853458 15.0917384-4.7398879l7.4583925 7.4583925z" fill="#fff" fill-rule="evenodd"/></svg>