<?xml version="1.0" encoding="utf-8"?>
<!-- Generator: Adobe Illustrator 23.0.2, SVG Export Plug-In . SVG Version: 6.00 Build 0)  -->
<svg version="1.1" id="Layer_1" xmlns="http://www.w3.org/2000/svg" xmlns:xlink="http://www.w3.org/1999/xlink" x="0px" y="0px"
	 viewBox="0 0 60 60" style="enable-background:new 0 0 60 60;" xml:space="preserve">
<style type="text/css">
	.st0{fill-rule:evenodd;clip-rule:evenodd;fill:#004152;}
</style>
<path class="st0" d="M18.4,49.1c-0.2-3.4-0.5-8.3-0.6-9c0-1,0-1.6,0.1-1.8c0.1-0.1,0.4-0.2,1.1-0.4l0.2,0c3.3-0.8,6.8-1.6,8.1-4.4
	c0.5-1.1,0.8-2.8-0.4-5.1c-2.2-4.1-2.8-7.6-1.6-9.5c0.7-1.2,2.1-1.5,3.1-1.5c1,0,2.4,0.3,3.1,1.5c1.1,1.9,0.5,5.5-1.6,9.5
	c-1.2,2.3-0.9,4-0.4,5.1c1.3,2.9,4.8,3.7,8.1,4.4l0.2,0c0.7,0.2,1,0.3,1.1,0.4c0.1,0.2,0.1,0.8,0.1,1.8c0,0.8-0.3,5.6-0.6,9
	c-3.1,1.5-6.5,2.3-10,2.3S21.5,50.6,18.4,49.1z M5.4,28.4c0-6.1,2.4-11.9,6.7-16.3c4.3-4.3,10.1-6.7,16.3-6.7s11.9,2.4,16.3,6.7
	c4.3,4.3,6.7,10.1,6.7,16.3c0,6.1-2.4,11.9-6.7,16.3c-0.9,0.9-1.9,1.8-3,2.5c0.2-3.4,0.4-7,0.4-7c0-2.9-0.2-4.5-3.6-5.3
	c-3.9-0.9-7.6-1.7-5.8-5.1c5.4-10.2,1.4-15.6-4.3-15.6c-5.7,0-9.7,5.4-4.3,15.6c1.8,3.3-1.9,4.1-5.8,5.1c-3.4,0.8-3.6,2.5-3.6,5.3
	c0,0,0.2,3.6,0.4,7c-1.1-0.7-2.1-1.6-3-2.5C7.8,40.3,5.4,34.6,5.4,28.4z M57.5,51l-7.5-7.5c7.2-10.3,6.2-24.6-3-33.8
	C41.9,4.6,35.2,2,28.4,2C21.7,2,14.9,4.6,9.7,9.7c-10.3,10.3-10.3,27,0,37.4c5.2,5.2,11.9,7.7,18.7,7.7c5.3,0,10.6-1.6,15.1-4.7
	l7.5,7.5L57.5,51z"/>
</svg>
