<svg height="60" viewBox="0 0 60 60" width="60" xmlns="http://www.w3.org/2000/svg"><path d="m46.2465794 47.9943028v-21.2357383c0-.7787664.6316262-1.4103925 1.4103926-1.4103925.7787663 0 1.4103925.6316261 1.4103925 1.4103925v24.0565234h-41.0673645v-39.4021683h25.0577944c.7787663 0 1.4103925.6316262 1.4103925 1.4103925 0 .7787664-.6316262 1.4103926-1.4103925 1.4103926h-22.2370094v33.7605981zm-6.0591252-38.9943028 12.3813084.21173832-.2117383 11.91117758-3.5250841-.0628038.1130467-6.4023925-.196486.1632897c-3.6130093 2.9957384-10.1499813 8.8472524-13.4956261 14.4897197l-3.0414954-1.7845234c3.2855327-5.5464673 9.1038505-11.0534579 13.4202617-14.7050467l.2386542-.2018692-5.7456448-.0942056z" fill="#fff" fill-rule="evenodd"/></svg>