<?xml version="1.0" encoding="utf-8"?>
<!-- Generator: Adobe Illustrator 23.0.2, SVG Export Plug-In . SVG Version: 6.00 Build 0)  -->
<svg version="1.1" id="Layer_1" xmlns="http://www.w3.org/2000/svg" xmlns:xlink="http://www.w3.org/1999/xlink" x="0px" y="0px"
	 viewBox="0 0 60 60" style="enable-background:new 0 0 60 60;" xml:space="preserve">
<style type="text/css">
	.st0{fill-rule:evenodd;clip-rule:evenodd;fill:#004152;}
</style>
<path class="st0" d="M46.2,48V26.8c0-0.8,0.6-1.4,1.4-1.4s1.4,0.6,1.4,1.4v24.1H8V11.4h25.1c0.8,0,1.4,0.6,1.4,1.4s-0.6,1.4-1.4,1.4
	H10.8V48H46.2z M40.2,9l12.4,0.2l-0.2,11.9l-3.5-0.1l0.1-6.4l-0.2,0.2c-3.6,3-10.1,8.8-13.5,14.5l-3-1.8c3.3-5.5,9.1-11.1,13.4-14.7
	l0.2-0.2l-5.7-0.1L40.2,9z"/>
</svg>
