<?xml version="1.0" encoding="utf-8"?>
<!-- Generator: Adobe Illustrator 23.0.2, SVG Export Plug-In . SVG Version: 6.00 Build 0)  -->
<svg version="1.1" id="Layer_1" xmlns="http://www.w3.org/2000/svg" xmlns:xlink="http://www.w3.org/1999/xlink" x="0px" y="0px"
	 viewBox="0 0 60 60" style="enable-background:new 0 0 60 60;" xml:space="preserve">
<style type="text/css">
	.st0{fill-rule:evenodd;clip-rule:evenodd;fill:#004152;}
</style>
<path class="st0" d="M5,17.7L13.3,8l3.4,2.9l-2.2,2.6l1.6,1.4l2.2-2.6l3.8,3.2l-1.4,1.6l1.6,1.4l1.4-1.6l3.8,3.2l-2.2,2.6l1.6,1.4
	l2.2-2.6l3.8,3.2l-1.4,1.6l1.6,1.4l1.4-1.6l3.8,3.2l-2.2,2.6l1.6,1.4l2.2-2.6l3.8,3.2l-1.4,1.6l1.6,1.4l1.4-1.6l3.8,3.2L47,41.4
	l1.6,1.4l2.2-2.6l3.3,2.9L46,52.7L5,17.7z M24.9,38.3c0,0-0.3-0.7-0.9-1.5l1.3,1.1L24.9,38.3z M53,8.8c0.1-0.1,0.2-0.1,0.3-0.1
	c0.1,0,0.2,0,0.3,0.1c0.1,0.2,0.1,0.4,0,0.6L37.4,25.8l-2.8-2.4L53,8.8z M57.3,42.8l-11,12.9L27.6,39.9L26.5,41l0,0l0,0
	c-2.6,1.1-6.5,3-6.5,3l-5-5.6c0,0,2.3-3.7,3.7-6.2l0,0l0.1-0.1L2,17.9L13,5l19.3,16.5l18.9-15c0.7-0.5,1.5-0.8,2.3-0.7
	c0.9,0,1.7,0.4,2.4,1.1c1.2,1.3,1.2,3.4-0.1,4.7L39.7,27.8L57.3,42.8z M6.4,44.3l7.8-3.7l3.6,4L13.3,52c0,0-5.2,1.1-8.5,2.9L4,54.1
	L8,50.4c0.4-0.3,0.8-0.5,1.3-0.5c0.3,0,0.5-0.1,0.7-0.3c0.5-0.5,0.6-1.2,0.1-1.7c-0.5-0.5-1.2-0.6-1.7-0.1c-0.2,0.2-0.3,0.4-0.4,0.7
	c-0.1,0.5-0.3,0.9-0.7,1.2l-4.1,3.6l-0.8-0.8C4.8,49.3,6.4,44.3,6.4,44.3z"/>
</svg>
