<svg height="60" viewBox="0 0 60 60" width="60" xmlns="http://www.w3.org/2000/svg"><path d="m44.1527255 53.5556614c.2058847 0 .3726674-.1647426.3726674-.3681091v-31.5202233c0-.2033664.1667826-.368109.3734653-.368109h1.7284744c.2058848 0 .3726674.1647426.3726674.368109v33.8526316c0 .2656376-.2170568.4800394-.4859838.4800394h-38.02803241c-.26812899 0-.48598379-.2144018-.48598379-.4800394v-47.03992119c0-.26484933.2178548-.48003941.48598379-.48003941h24.09490101c.2058847 0 .3726673.16474259.3726673.36810904v1.70812056c0 .2033664-.1667826.368109-.3726673.368109h-21.7328123c-.2066827 0-.3734654.1647426-.3734654.3681091v42.3751046c0 .2033665.1667827.3681091.3734654.3681091zm-5.1356304-43.381328c-.7588201 1.1150708-1.9582198.4320502-1.9582198-.42172544v-4.7493753c0-.85298145 1.1993997-1.53679619 1.9582198-.42172547.0415792.06115417.0623688.13660411.0623688.21046563v5.17268919c0 .07306729-.0207896.14851729-.0623688.20967139zm4.1705524 2.6555997c-.5101446 0-1.0202893-.2398514-1.0730628-1.1746364-.0055972-.1024531.0375811-.2049062.1103447-.2779735l3.5894033-3.56441412c.5901046-.58612692 1.6111935-.31609554 1.8046967.80929991.0191904.11436623-.0255872.2327035-.107946.31450712l-3.6501729 3.62556829c-.2022987.1342215-.4037979.2676487-.673263.2676487zm7.1253934 3.010135c.0895551 0 .1807095.0293858.2470763.0889515.8379805.7552937.3846075 1.918017-.5701146 1.918017h-4.7816066c-.8595697 0-1.5472255-1.1913149-.425387-1.9450201.0615691-.0412989.1343327-.0619484.2086955-.0619484zm-20.1950113 31.1529634h9.8998446c.8507741 0 1.3657164 1.1674886.4845574 1.921988-.0663668.0571832-.1551223.0849805-.2414791.0849805h-10.356416c-.0735632 0-.1503248-.0214437-.2110944-.0619484-1.122638-.7537052-.4349822-1.9450201.4245875-1.9450201zm9.9001644-7.0909444c.8507742 0 1.3657164 1.1674886.4837579 1.9227822-.0655672.056389-.1543228.0841863-.2414792.0841863h-12.2298782c-.8595698 0-1.5472255-1.1913149-.4245875-1.9450201.0607696-.0412989.1367316-.0619484.2110943-.0619484zm0-7.0904678c.8507742 0 1.3657164 1.1674885.4837579 1.921988-.0655672.0571831-.1543228.0849804-.2414792.0849804h-12.2298782c-.8595698 0-1.5472255-1.1913148-.4245875-1.9450201.0607696-.0412989.1367316-.0619483.2110943-.0619483zm0-7.1575786c.8507742 0 1.3657164 1.1674885.4837579 1.921988-.0663668.0571831-.1543228.0849804-.2414792.0849804h-12.2298782c-.8595698 0-1.5472255-1.1913149-.4245875-1.9450201.0607696-.0412989.1367316-.0619483.2110943-.0619483zm-12.4125868-5.1456861c-1.122638-.7537052-.4341827-1.9450201.4245875-1.9450201h11.9204331c.8595698 0 1.5472256 1.1913149.4245875 1.9450201-.0607696.0412989-.1375312.0619484-.2110943.0619484h-12.3466199c-.0743627 0-.1503247-.0206495-.2118939-.0619484zm-10.6200441 4.0753293-1.8182898-3.0775634c-.3366315-.5345033-.1351324-1.1365144.3366315-1.4041631.5389302-.3343624 1.1450268-.1342215 1.414492.3343624l.9883053 1.6694292c.1519239.257324.5317338.2398514.6604694-.03018l3.6709624-7.7268682c.2694651-.4677897.8763614-.7354384 1.3473256-.4677897.4717639.2676488.741229.8696599.4717639 1.3374495l-4.4449751 9.3653233c-.2694651.4010761-.7412289.6687248-1.2801592.6687248-.5381306 0-1.0098945-.2009351-1.346526-.6687248zm4.662866 18.1307006c-.0591704-.0841863-.1359319-.1604304-.2206895-.219202-2.6682644-1.8513033-5.5812063 1.0420034-3.7173393 3.6922819.0583708.0841863.135932.1604304.2206895.219202 2.6682644 1.8513033 5.5812063-1.0420035 3.7173393-3.6922819zm-6.548722 1.736937c0-2.4755523 2.0205886-4.5492344 4.5793078-4.5492344 3.5030465 0 5.9969982 3.885275 3.6813573 7.366297-.1455272.2184077-.3270363.4129892-.5341326.575008-3.5798082 2.7860884-7.7265325.0953052-7.7265325-3.3920706zm6.3281924-9.8844983c.083958-.0587716.1615191-.1350157.2206895-.219202 1.8638671-2.6502784-1.0490748-5.5435852-3.7173392-3.6922819-.0847576.0579774-.1615192.1350157-.2206896.219202-1.8646666 2.6502785 1.0490749 5.5443794 3.7173393 3.6922819zm-1.7487247-6.5045792c2.5595189 0 4.5801074 2.0736821 4.5801074 4.5484402 0 3.4881699-4.1467243 6.1789531-7.727332 3.3928647-.2070963-.1620188-.3886055-.3566002-.5341326-.575008-2.3148413-3.481022.1791103-7.3662969 3.6813572-7.3662969z" fill="#fff" fill-rule="evenodd"/></svg>