<svg height="60" viewBox="0 0 60 60" width="60" xmlns="http://www.w3.org/2000/svg"><path d="m5.02714019 17.680972 8.25689721-9.65383181 3.405757 2.91319621-2.2241495 2.6018692 1.6302056 1.3951402 2.2250467-2.6018692 3.7996262 3.2496449-1.403215 1.6400748 1.6311028 1.3951401 1.403215-1.6400747 3.7987289 3.2487476-2.2241495 2.6018692 1.6311028 1.3951402 2.2250467-2.600972 3.798729 3.2487477-1.4032149 1.640972 1.632 1.3951401 1.4032149-1.6409719 3.798729 3.2487476-2.2250467 2.6018692 1.6311028 1.3951402 2.2250467-2.600972 3.7996262 3.2487477-1.403215 1.640972 1.6311028 1.3951401 1.403215-1.6409719 3.7987289 3.2496448-2.2250467 2.600972 1.632 1.3951402 2.2250467-2.600972 3.3375701 2.8539813-8.2568972 9.6538318zm19.90609341 20.6543551s-.2915887-.7150654-.8622056-1.5422804l1.2946542 1.1071402zm28.082243-29.49084112c.0825421-.06011215.1758505-.08792523.2781309-.08164486.0816448.00358879.2000747.03229907.2978691.14265421.1480374.16418691.146243.41719626-.0035887.57958878l-16.2114393 16.32269159-2.7759252-2.3739813zm4.2536075 33.97592522-11.0471776 12.9169346-18.573757-15.8848598-1.1663551 1.1744299-.0035888-.0035888.0026916.0197383c-2.5758505 1.1430281-6.5432523 3.0056075-6.5432523 3.0056075l-4.9767477-5.5554393s2.2923364-3.7341308 3.7170841-6.1565607l-.0008972-.0017944.0942056-.0744673-16.7712897-14.3434766 11.0471776-12.9169346 19.2690841 16.4797009 18.857271-15.00919623c.676486-.52127103 1.4884486-.75274766 2.2842617-.70878504.8810467.04844859 1.7414579.43424299 2.3721869 1.13764486 1.2004486 1.34041121 1.1645608 3.37973831-.082542 4.67618691l-16.0849346 16.187215zm-50.91104298 1.4487028 7.82714018-3.7161869 3.6210841 4.0418692-4.5505794 7.3749532s-5.20373834 1.0542056-8.53143927 2.9463926l-.75723365-.8586169 4.05891589-3.6372336c.35618692-.3194019.80657944-.5087103 1.28299066-.5428037.26467289-.0170468.52396261-.11843.73659817-.31043.5096074-.4566729.5526729-1.2381308.096-1.7486355-.45487855-.5096074-1.23902808-.5526729-1.74773836-.096-.21353271.1911028-.34272897.438729-.39028037.6980187-.08433645.4692337-.32209346.8971963-.67828038 1.215701l-4.05891589 3.6372336-.75813084-.8451589c2.27170094-3.1348037 3.84986916-8.1591028 3.84986916-8.1591028z" fill="#fff" fill-rule="evenodd"/></svg>