<svg height="60" viewBox="0 0 60 60" width="60" xmlns="http://www.w3.org/2000/svg"><path d="m25.1015327 19.8166729-2.5695701-.3310654c.5598505-4.315514 3.2442617-7.5122243 7.6100187-8.3214954l.4737196 2.546243c-4.2114392.7805608-5.2629532 4.1620935-5.5141682 6.1063178zm7.8504673 35.3602991c-.4109159.4674392-1.0066542.7374953-1.6266168.7374953h-2.3668038c-.6208598 0-1.2157009-.2700561-1.6266168-.7374953l-3.1392897-3.5878879h11.8977196zm3.6794019-6.8330468c0 .5966355-.484486 1.0811215-1.0820187 1.0811215h-10.815701c-.5966355 0-1.0811215-.484486-1.0811215-1.0811215 0-.5975327.484486-1.0820187 1.0811215-1.0820187h10.815701c.5975327 0 1.0820187.484486 1.0820187 1.0820187zm0-4.3262803c0 .5975327-.484486 1.0820187-1.0820187 1.0820187h-10.815701c-.5966355 0-1.0811215-.484486-1.0811215-1.0820187 0-.5966356.484486-1.0811215 1.0811215-1.0811215h10.815701c.5975327 0 1.0820187.4844859 1.0820187 1.0811215zm8.6516635-25.4507664c0 9.0069533-8.1115514 15.0980187-8.1115514 22.2056075h-4.3092336c.0026916-4.4967477 2.1550654-8.2757383 4.2580934-11.9246355 1.974729-3.4281869 3.8364112-6.6688598 3.8364112-10.280972 0-6.7235888-5.4459813-10.24059813-10.8237757-10.24059813-5.3688224 0-10.8067289 3.51700933-10.8067289 10.24059813 0 3.6121122 1.8625794 6.8527851 3.8373084 10.280972 2.1021308 3.6488972 4.2527103 7.4278878 4.2545047 11.9246355h-4.3065421c0-7.1075888-8.1115514-13.2004486-8.1115514-22.2056075 0-9.39454205 7.5660561-14.5668785 15.1330093-14.5668785 7.5750281 0 15.1500561 5.17861682 15.1500561 14.5668785z" fill="#fff" fill-rule="evenodd"/></svg>