<?xml version="1.0" encoding="utf-8"?>
<!-- Generator: Adobe Illustrator 23.0.2, SVG Export Plug-In . SVG Version: 6.00 Build 0)  -->
<svg version="1.1" id="Layer_1" xmlns="http://www.w3.org/2000/svg" xmlns:xlink="http://www.w3.org/1999/xlink" x="0px" y="0px"
	 viewBox="0 0 60 60" style="enable-background:new 0 0 60 60;" xml:space="preserve">
<style type="text/css">
	.st0{fill-rule:evenodd;clip-rule:evenodd;fill:#004152;}
</style>
<path class="st0" d="M25.1,19.8l-2.6-0.3c0.6-4.3,3.2-7.5,7.6-8.3l0.5,2.5C26.4,14.5,25.4,17.9,25.1,19.8z M33,55.2
	c-0.4,0.5-1,0.7-1.6,0.7H29c-0.6,0-1.2-0.3-1.6-0.7l-3.1-3.6h11.9L33,55.2z M36.6,48.3c0,0.6-0.5,1.1-1.1,1.1H24.7
	c-0.6,0-1.1-0.5-1.1-1.1c0-0.6,0.5-1.1,1.1-1.1h10.8C36.1,47.3,36.6,47.7,36.6,48.3z M36.6,44c0,0.6-0.5,1.1-1.1,1.1H24.7
	c-0.6,0-1.1-0.5-1.1-1.1c0-0.6,0.5-1.1,1.1-1.1h10.8C36.1,42.9,36.6,43.4,36.6,44z M45.3,18.6c0,9-8.1,15.1-8.1,22.2h-4.3
	c0-4.5,2.2-8.3,4.3-11.9c2-3.4,3.8-6.7,3.8-10.3c0-6.7-5.4-10.2-10.8-10.2c-5.4,0-10.8,3.5-10.8,10.2c0,3.6,1.9,6.9,3.8,10.3
	c2.1,3.6,4.3,7.4,4.3,11.9h-4.3c0-7.1-8.1-13.2-8.1-22.2C15,9.2,22.6,4,30.1,4C37.7,4,45.3,9.2,45.3,18.6z"/>
</svg>
