<svg height="16" viewBox="0 0 16 16" width="16" xmlns="http://www.w3.org/2000/svg"><path d="m15.3044382 2.14687928-1.9443175-1.9443175c-.2700824-.27008237-.7089662-.27008237-.9783596 0l-4.62860559 4.62860559-4.62791661-4.62860559c-.26939339-.27008237-.70827724-.27008237-.97835962 0l-1.9443175 1.9443175c-.27008237.27008238-.27008237.70827725 0 .97835962l4.6279166 4.62860559-4.6279166 4.62722761c-.27008237.2700824-.27008237.7089662 0 .9783596l1.9443175 1.9450065c.27008238.2693934.70896623.2693934.97835962 0l4.62791661-4.6279166 4.62860559 4.6279166c.2693934.2693934.7082772.2693934.9783596 0l1.9443175-1.9450065c.2700824-.2693934.2700824-.7082772 0-.9783596l-4.6286056-4.62722761 4.6286056-4.62860559c.2700824-.27008237.2700824-.70827724 0-.97835962" fill="#c73d19" fill-rule="evenodd"/></svg>