<svg height="80" viewBox="0 0 80 80" width="80" xmlns="http://www.w3.org/2000/svg"><path d="m29.3889943 35.8195943c6.2223428 0 10.5555714 5.9548857 4.6609428 17.0897714-1.9356285 3.6587714 2.0635429 4.5288 6.3566 5.5204 3.7211429.8605143 3.9685143 2.6788 3.9685143 5.8301429 0 0-.6818571 10.8885714-.8340857 13.3326857-1.4451143.3594286-3.7105714.7093428-6.4813428.7093428-5.9584281 0-14.2484142-1.6234174-21.7081548-8.2806694l-.3988167-.3614734-.5465428-5.4104572c0-3.1460571.2494857-4.9622285 3.9664-5.8216857 4.2053143-.9725714 8.3524857-1.8394285 6.3555428-5.5204-5.9094285-10.9023143-1.6829714-17.0876571 4.6609429-17.0876571zm18.73236 7.4973628c4.6683428 0 7.9158857 4.4653715 3.4970286 12.8157429-1.4514572 2.7443429 1.5466 3.3966 4.7687714 4.1408286 2.7087731.6258907 2.9627206 1.9319624 2.9753154 4.1704929l.0005417.2060785v4.4748857c-3.1492285 3.1143429-7.7678857 6.0236-11.8600857 7.3492572.1332-2.9652858.6057429-11.6898858.5972857-11.9584-.3393428-10.5957429-5.5933428-5.9992858-5.5933428-15.392 0-3.7655429 2.4557428-5.8068858 5.6144857-5.8068858zm-18.73236-4.0669342c-1.1163429 0-2.6206572.2886-3.441 1.6681714-1.2516572 2.1005428-.5793143 5.9718 1.7960857 10.3557714 1.3425714 2.4747714.9863143 4.4082857.4514 5.5944-1.333631 2.9593053-4.741353 3.898087-8.1639235 4.695714l-.6219908.143886-.2653428.0602572c-.7569143.1754857-1.0687715.3478-1.1628572.4112285-.0848967.2312704-.1319614.7940207-.1428572 1.6749474l-.0019714.2268526.3943143 3.8987429c6.6843143 5.6705143 13.875 6.8925714 18.8287715 6.8925714 1.2474285 0 2.3341714-.0792857 3.2264-.1839428.2357428-3.7697715.6046857-9.6612286.6596571-10.5344286-.0031714-1.0529143-.0528571-1.7157429-.1469429-1.9715714-.0868483-.0585495-.3592534-.2098773-.996813-.3708363l-.1671012-.0403923-.1659715-.0380572c-3.6534857-.8436-7.4317143-1.7157428-8.8588571-4.8396-.5391429-1.1787142-.9059714-3.1058857.4080571-5.5880571 2.3606-4.4579714 3.0255429-8.3546 1.7781143-10.4255429-.8118857-1.3478571-2.3003428-1.6301142-3.4071714-1.6301142zm22.0052743 23.1219342c.0655428.6268858.111 1.3045143.1332 2.0339429.0084571.2389143.0095143.2812-.2568857 5.4421714-.0211429.3879715-.0412286.7822857-.0613143 1.1776572 1.4903365-.8692064 2.9455915-1.8862561 4.2447432-2.9776452l.4796282-.412612v-2.9853714c0-.4101714-.0084571-.7304857-.0232571-.9567143-.0535619-.0162095-.1146413-.0328889-.184491-.0506645l-.111509-.0275641-.1236858-.0274857c-1.4123428-.3266571-2.8479428-.6586-4.0964285-1.2157143zm-3.2729143-15.6256285c-1.4905714 0-2.1840572.7558571-2.1840572 2.3775143 0 2.9608866.4579431 3.6080043 1.3712329 4.5281868l.1954529.1951274c.3171428.3150286.6300571.6385143.9313428.9831429.0475714-.0993714.0972572-.1998.1511714-.3002286 1.9166-3.6217714 1.9567715-5.9792 1.3563143-6.9771428-.4017143-.6670572-1.2114857-.8066-1.8214571-.8066zm25.08378-3.3083286.2473714 3.4209143-9.028.6543714-.2473714-3.4209143zm-72.64072573.0002114 9.02905714.6543715-.24842857 3.4209142-9.028-.6543714zm71.33166573-15.8843114 1.8732571 2.8722571-11.7829143 7.6875429-1.8732571-2.8722571zm-70.02281716-.0003171 11.78502856 7.6886-1.8753714 2.8712-11.7829143-7.6875429zm35.01119716-27.4470229 9.2859428 15.1721143 13.4722286-7.58500001-5.6895428 20.86165711v2.9008s-6.9084286-3.2348571-17.0686286-3.2348571c-10.1591429 0-17.0675714 3.2348571-17.0675714 3.2348571v-2.9008l-5.6906-20.86165711 13.4732857 7.58500001zm0 7.26785714-7.9592286 13.00497146-8.7531428-4.9284 3.0572571 11.2067714s6.7910857-2.4166286 13.6551143-2.4166286c6.8650857 0 13.6551143 2.4166286 13.6551143 2.4166286l3.0583143-11.2067714-8.7531429 4.9284z" fill="#fefefe" transform="translate(3 1)"/></svg>