<?xml version="1.0" encoding="UTF-8"?>
<svg width="40px" height="40px" viewBox="0 0 40 40" version="1.1" xmlns="http://www.w3.org/2000/svg" xmlns:xlink="http://www.w3.org/1999/xlink">
    <!-- Generator: Sketch 54.1 (76490) - https://sketchapp.com -->
    <title>Ico / Deel</title>
    <desc>Created with Sketch.</desc>
    <defs>
        <polygon id="path-1" points="0 0.0339954545 17.9111739 0.0339954545 17.9111739 18 0 18"></polygon>
        <polygon id="path-3" points="0.410666667 0.164166667 9.86458333 0.164166667 9.86458333 9.59654167 0.410666667 9.59654167"></polygon>
    </defs>
    <g id="Ico-/-Deel" stroke="none" stroke-width="1" fill="none" fill-rule="evenodd">
        <g id="Group-7" transform="translate(11.000000, 10.000000)">
            <g id="Group-3" transform="translate(0.000000, 2.000000)">
                <mask id="mask-2" fill="white">
                    <use xlink:href="#path-1"></use>
                </mask>
                <g id="Clip-2"></g>
                <path d="M16.680913,16.7138591 L1.23026087,16.7138591 L1.23026087,1.32017727 L10.9287391,1.32017727 C11.2683913,1.32017727 11.5438696,1.03217727 11.5438696,0.677086364 C11.5438696,0.321995455 11.2683913,0.0339954545 10.9287391,0.0339954545 L0,0.0339954545 L0,18.0000409 L17.9111739,18.0000409 L17.9111739,7.03108636 C17.9111739,6.67599545 17.6356957,6.38799545 17.2960435,6.38799545 C16.9563913,6.38799545 16.680913,6.67599545 16.680913,7.03108636 L16.680913,16.7138591 Z" id="Fill-1" fill="#FFFFFF" mask="url(#mask-2)"></path>
            </g>
            <g id="Group-6" transform="translate(10.000000, 0.000000)">
                <mask id="mask-4" fill="white">
                    <use xlink:href="#path-3"></use>
                </mask>
                <g id="Clip-5"></g>
                <path d="M4.11483333,0.164041667 L4.08566667,1.801125 L6.754,1.844875 L6.64316667,1.938625 C4.63858333,3.63445833 1.9365,6.19195833 0.410666667,8.76779167 L1.82316667,9.59654167 C3.37691667,6.976125 6.41275,4.258625 8.09066667,2.867375 L8.18191667,2.79154167 L8.12941667,5.764875 L9.7665,5.79404167 L9.86483333,0.262375 L4.11483333,0.164041667 Z" id="Fill-4" fill="#FFFFFF" mask="url(#mask-4)"></path>
            </g>
        </g>
    </g>
</svg>