<?xml version="1.0" encoding="UTF-8"?>
<svg width="40px" height="40px" viewBox="0 0 40 40" version="1.1" xmlns="http://www.w3.org/2000/svg" xmlns:xlink="http://www.w3.org/1999/xlink">
    <!-- Generator: Sketch 54.1 (76490) - https://sketchapp.com -->
    <title>Ico / Evalueer</title>
    <desc>Created with Sketch.</desc>
    <defs>
        <polygon id="path-1" points="0.261203108 0.422545455 3.35454545 0.422545455 3.35454545 1.57118182 0.261203108 1.57118182"></polygon>
        <polygon id="path-3" points="0.359136364 0.00888888889 1.50777273 0.00888888889 1.50777273 3.44575553 0.359136364 3.44575553"></polygon>
    </defs>
    <g id="Ico-/-Evalueer" stroke="none" stroke-width="1" fill="none" fill-rule="evenodd">
        <g id="Group-27" transform="translate(11.000000, 7.000000)">
            <path d="M5.86765464,14.1590183 C4.54352943,15.0843945 3.09758628,13.638395 4.0229264,12.3142183 C4.05228968,12.2721557 4.09038259,12.2336645 4.1324435,12.2046969 C5.45656872,11.2797176 6.90211506,12.7253202 5.97717174,14.049497 C5.94780846,14.0915595 5.90931875,14.1296539 5.86765464,14.1590183 M4.99985067,10.9090909 C3.26186193,10.9090909 2.02423935,12.8503174 3.17297848,14.5895643 C3.24519628,14.6986888 3.33527013,14.7959089 3.43804161,14.8768594 C5.21491686,16.2688918 7.27272727,14.9244774 7.27272727,13.1816592 C7.27272727,11.9451789 6.27001094,10.9090909 4.99985067,10.9090909" id="Fill-1" fill="#FFFFFF"></path>
            <path d="M5.97718979,17.7687607 C6.90216618,19.0929346 5.45656815,20.5385342 4.1323956,19.6135568 C4.09033318,19.5841925 4.0518421,19.5460982 4.02287458,19.5040357 C3.09789819,18.1798618 4.54349622,16.7342622 5.86766877,17.6592396 C5.90973119,17.6886039 5.94782546,17.7266982 5.97718979,17.7687607 M2.72727273,18.6365966 C2.72727273,20.3790143 4.78515672,21.7234258 6.56169868,20.3313964 C6.66447384,20.250446 6.7545509,20.1532262 6.82677128,20.0441018 C7.9759483,18.3048587 6.73828148,16.3636364 4.99983378,16.3636364 C3.73002491,16.3636364 2.72727273,17.3997221 2.72727273,18.6365966" id="Fill-3" fill="#FFFFFF"></path>
            <path d="M3.71210731,9.68220581 C3.87907573,9.90451077 4.11306948,10 4.37998099,10 C4.64728911,10 4.88128285,9.87280684 5.01493691,9.68220581 L7.21963394,5.23157742 C7.35328799,5.00927246 7.21963394,4.7231822 6.98564019,4.59598904 C6.75204304,4.46879588 6.45102396,4.59598904 6.31736991,4.818294 L4.49658127,8.49028888 C4.43272874,8.61861432 4.24434394,8.62691773 4.16899002,8.50463113 L3.67879295,7.71127794 C3.54513889,7.48859555 3.24451641,7.39348375 2.9772083,7.55238084 C2.74321455,7.679574 2.64327146,7.96566426 2.81023988,8.21967316 L3.71210731,9.68220581 Z" id="Fill-5" fill="#FFFFFF"></path>
            <path d="M9.35815585,8.1537576 C9.38626084,8.17246465 9.42093582,8.18181818 9.45488081,8.18181818 L15.0908432,8.18181818 C15.1244232,8.18181818 15.1594632,8.17246465 15.1872032,8.1537576 C15.6996629,7.81235385 15.3857631,7.27272727 14.9933883,7.27272727 L9.55197076,7.27272727 C9.15996094,7.27272727 8.84569609,7.81235385 9.35815585,8.1537576" id="Fill-7" fill="#FFFFFF"></path>
            <path d="M15.0241745,10 L9.45461321,10 C9.42066805,10 9.38599289,10.0093535 9.35825275,10.0280606 C8.84579033,10.3694643 9.15969182,10.9090909 9.55206867,10.9090909 L15.13477,10.9090909 C15.1745552,10.9090909 15.2147054,10.8964996 15.2450006,10.8705975 C15.6475975,10.528834 15.4125363,10 15.0241745,10" id="Fill-9" fill="#FFFFFF"></path>
            <path d="M15.0241745,13.6363636 L9.45461321,13.6363636 C9.42066805,13.6363636 9.38599289,13.6457172 9.35825275,13.6644242 C8.84579033,14.005828 9.15969182,14.5454545 9.55206867,14.5454545 L15.13477,14.5454545 C15.1745552,14.5454545 15.2150704,14.5328633 15.2450006,14.5069612 C15.6475975,14.1651977 15.4125363,13.6363636 15.0241745,13.6363636" id="Fill-11" fill="#FFFFFF"></path>
            <path d="M15.0241745,17.2727273 L9.45461321,17.2727273 C9.42066805,17.2727273 9.38599289,17.2820808 9.35825275,17.3007879 C8.84579033,17.6421916 9.15969182,18.1818182 9.55206867,18.1818182 L15.13477,18.1818182 C15.1745552,18.1818182 15.2150704,18.1692269 15.2450006,18.1436846 C15.6475975,17.8015613 15.4125363,17.2727273 15.0241745,17.2727273" id="Fill-13" fill="#FFFFFF"></path>
            <path d="M10.4648958,20 C10.06934,20 9.75289537,20.5396266 10.2695096,20.8810303 C10.2974745,20.8993776 10.3327985,20.9090909 10.3666507,20.9090909 L15.1324538,20.9090909 C15.1721934,20.9090909 15.2130368,20.8964996 15.2435774,20.8705975 C15.649068,20.528834 15.4121025,20 15.0205943,20 L10.4648958,20 Z" id="Fill-15" fill="#FFFFFF"></path>
            <g id="Group-19" transform="translate(16.363636, 5.454545)">
                <mask id="mask-2" fill="white">
                    <use xlink:href="#path-1"></use>
                </mask>
                <g id="Clip-18"></g>
                <path d="M3.04218182,0.422545455 L0.622181818,0.422545455 C0.588363636,0.422545455 0.555272727,0.434363636 0.527272727,0.458 C0.0170909091,0.889363636 0.329818182,1.57118182 0.720727273,1.57118182 L2.89527273,1.57118182 C3.32945455,1.57118182 3.53563636,0.905727273 3.15454545,0.473454545 C3.12436364,0.439363636 3.08290909,0.422545455 3.04218182,0.422545455" id="Fill-17" fill="#FFFFFF" mask="url(#mask-2)"></path>
            </g>
            <path d="M15.9859808,4.54545455 C16.1193733,4.54545455 16.2191209,4.47702801 16.3192642,4.40819417 L18.1261983,2.54886597 C18.1669681,2.50691398 18.1891342,2.44622616 18.1796345,2.38757484 C18.0838452,1.81042959 17.5783786,1.67194732 17.2862609,1.97253532 L15.5094094,3.80050136 C15.4733895,3.83797304 15.452015,3.89051484 15.4547857,3.94305664 C15.4809101,4.4224497 15.7334455,4.54545455 15.9859808,4.54545455" id="Fill-20" fill="#FFFFFF"></path>
            <g id="Group-24" transform="translate(12.727273, 0.000000)">
                <mask id="mask-4" fill="white">
                    <use xlink:href="#path-3"></use>
                </mask>
                <g id="Clip-23"></g>
                <path d="M1.47231818,3.14981818 C1.49595455,3.11870707 1.50777273,3.08032323 1.50777273,3.04315152 L1.50777273,0.411636364 C1.50777273,0.374060606 1.49595455,0.335676768 1.47231818,0.304565657 C1.04095455,-0.262707071 0.359136364,0.0851717172 0.359136364,0.519111111 L0.359136364,2.93527273 C0.359136364,3.36961616 1.04095455,3.71709091 1.47231818,3.14981818" id="Fill-22" fill="#FFFFFF" mask="url(#mask-4)"></path>
            </g>
            <path d="M16.8544175,23.3880972 L1.32777273,23.3880972 C1.23141713,23.3880972 1.153663,23.3100941 1.153663,23.2138032 L1.153663,3.14983317 C1.153663,3.05354224 1.23141713,2.97553912 1.32777273,2.97553912 L11.4596199,2.97553912 C11.5556035,2.97553912 11.6333576,2.897536 11.6333576,2.80124506 L11.6333576,1.99247587 C11.6333576,1.89618494 11.5556035,1.81818182 11.4596199,1.81818182 L0.226565872,1.81818182 C0.101564011,1.81818182 0,1.92007106 0,2.04547321 L0,24.3181632 C0,24.4439385 0.101564011,24.5454545 0.226565872,24.5454545 L17.9552523,24.5454545 C18.0806262,24.5454545 18.1818182,24.4439385 18.1818182,24.3181632 L18.1818182,8.28945502 C18.1818182,8.19316409 18.104064,8.11516097 18.0080805,8.11516097 L17.2022649,8.11516097 C17.1059093,8.11516097 17.0281552,8.19316409 17.0281552,8.28945502 L17.0281552,23.2138032 C17.0281552,23.3100941 16.950401,23.3880972 16.8544175,23.3880972" id="Fill-25" fill="#FFFFFF"></path>
        </g>
    </g>
</svg>