<?xml version="1.0" encoding="UTF-8"?>
<svg width="40px" height="40px" viewBox="0 0 40 40" version="1.1" xmlns="http://www.w3.org/2000/svg" xmlns:xlink="http://www.w3.org/1999/xlink">
    <!-- Generator: Sketch 54.1 (76490) - https://sketchapp.com -->
    <title>Ico / Lampje</title>
    <desc>Created with Sketch.</desc>
    <g id="Ico-/-Lampje" stroke="none" stroke-width="1" fill="none" fill-rule="evenodd">
        <path d="M17.765118,15.0268466 L16.2986203,14.8379019 C16.6181366,12.374964 18.1501761,10.5505466 20.6417885,10.0886817 L20.9121484,11.5418663 C18.5086078,11.9873457 17.9084907,13.9172444 17.765118,15.0268466 L17.765118,15.0268466 Z M22.2455144,35.2075759 C22.0109977,35.4743515 21.6709996,35.6284772 21.3171763,35.6284772 L19.9664008,35.6284772 C19.6120654,35.6284772 19.2725794,35.4743515 19.0380626,35.2075759 L17.2464161,33.1599068 L24.0366489,33.1599068 L22.2455144,35.2075759 Z M24.3454122,31.3078389 C24.3454122,31.6483491 24.0689077,31.9248535 23.7278855,31.9248535 L17.5551795,31.9248535 C17.2146693,31.9248535 16.9381649,31.6483491 16.9381649,31.3078389 C16.9381649,30.9668168 17.2146693,30.6903123 17.5551795,30.6903123 L23.7278855,30.6903123 C24.0689077,30.6903123 24.3454122,30.9668168 24.3454122,31.3078389 L24.3454122,31.3078389 Z M24.3454122,28.8387565 C24.3454122,29.1797787 24.0689077,29.4562831 23.7278855,29.4562831 L17.5551795,29.4562831 C17.2146693,29.4562831 16.9381649,29.1797787 16.9381649,28.8387565 C16.9381649,28.4982464 17.2146693,28.2217419 17.5551795,28.2217419 L23.7278855,28.2217419 C24.0689077,28.2217419 24.3454122,28.4982464 24.3454122,28.8387565 L24.3454122,28.8387565 Z M29.283065,14.3135675 C29.283065,19.4539902 24.6536634,22.9302658 24.6536634,26.9866887 L22.1943099,26.9866887 C22.195846,24.4203176 23.4242427,22.2635828 24.6244769,20.1810946 C25.7514886,18.2245695 26.8139826,16.3750619 26.8139826,14.3135675 C26.8139826,10.4763 23.7058676,8.46908244 20.6366681,8.46908244 C17.572589,8.46908244 14.4690824,10.4763 14.4690824,14.3135675 C14.4690824,16.3750619 15.5320885,18.2245695 16.6591002,20.1810946 C17.8588223,22.2635828 19.0861949,24.4203176 19.087219,26.9866887 L16.6294016,26.9866887 C16.6294016,22.9302658 12,19.4529662 12,14.3135675 C12,8.95194115 16.318078,6 20.6366681,6 C24.9598665,6 29.283065,8.95552547 29.283065,14.3135675 L29.283065,14.3135675 Z" id="Fill-46" fill="#FFFFFF"></path>
    </g>
</svg>