<?xml version="1.0" encoding="UTF-8"?>
<svg width="40px" height="40px" viewBox="0 0 40 40" version="1.1" xmlns="http://www.w3.org/2000/svg" xmlns:xlink="http://www.w3.org/1999/xlink">
    <!-- Generator: Sketch 54.1 (76490) - https://sketchapp.com -->
    <title>Ico / Ontwerp</title>
    <desc>Created with Sketch.</desc>
    <defs>
        <polygon id="path-1" points="0 0.193965517 26.8262419 0.193965517 26.8262419 24.5689655 0 24.5689655"></polygon>
    </defs>
    <g id="Ico-/-Ontwerp" stroke="none" stroke-width="1" fill="none" fill-rule="evenodd">
        <g id="Group-6" transform="translate(7.000000, 8.000000)">
            <path d="M1.76159756,18.8111063 C1.76159756,18.8111063 1.03946983,21.2597289 0,22.7874945 L0.346900475,23.1993878 L2.20415225,21.4267599 C2.36713389,21.2715348 2.47592517,21.0629646 2.51451528,20.8342807 C2.53627353,20.7079143 2.5953903,20.5872322 2.69309718,20.4940971 C2.92586945,20.2715348 3.28467539,20.292523 3.49281567,20.5408833 C3.70177702,20.7896808 3.68207143,21.1705291 3.44888863,21.3930914 C3.35159228,21.4866638 3.23294821,21.5360735 3.11184095,21.5443813 C2.89384787,21.5609969 2.68776025,21.6532575 2.52477861,21.80892 L0.667526831,23.5815479 L1.01401677,24 C2.53668407,23.0778312 4.91777608,22.5640577 4.91777608,22.5640577 L7,18.9698295 L5.34308838,17 L1.76159756,18.8111063 Z" id="Fill-1" fill="#FFFFFF"></path>
            <g id="Group-5">
                <mask id="mask-2" fill="white">
                    <use xlink:href="#path-1"></use>
                </mask>
                <g id="Clip-4"></g>
                <path d="M1.46910484,6.28586207 L5.4768629,1.64793103 L7.12995968,3.0475 L6.05039516,4.2975 L6.84166935,4.96775862 L7.92166935,3.71775862 L9.76594355,5.27896552 L9.08484677,6.06689655 L9.87655645,6.73715517 L10.5576532,5.94922414 L12.4014919,7.51 L11.3219274,8.76 L12.1136371,9.43025862 L13.1936371,8.18068966 L15.0374758,9.74146552 L14.356379,10.5298276 L15.1485242,11.2000862 L15.829621,10.4117241 L17.6734597,11.9725 L16.5934597,13.2225 L17.3851694,13.8927586 L18.4651694,12.6431897 L20.3094435,14.2039655 L19.6283468,14.9923276 L20.4200565,15.6625862 L21.1011532,14.8742241 L22.9449919,16.435431 L21.8649919,17.685 L22.6571371,18.3552586 L23.7371371,17.1056897 L25.3571371,18.4768103 L21.349379,23.1147414 L1.46910484,6.28586207 Z M11.1311855,16.2087069 C11.1311855,16.2087069 10.9896532,15.8651724 10.7126855,15.4677586 L11.3410887,15.9996552 L11.1311855,16.2087069 Z M24.7618306,2.04060345 C24.8018952,2.01172414 24.8471855,1.99836207 24.8968306,2.00137931 C24.9364597,2.00310345 24.9939435,2.01689655 25.0414113,2.06991379 C25.1132661,2.1487931 25.1123952,2.27034483 25.0396694,2.34836207 L17.1709113,10.1901724 L15.8235242,9.04965517 L24.7618306,2.04060345 Z M26.8264597,18.3634483 L18.2805242,11.1293966 L26.087879,3.35267241 C26.6932016,2.72982759 26.710621,1.75008621 26.1279435,1.10612069 C25.8217984,0.768189655 25.4041694,0.582844828 24.9765242,0.559568966 C24.59025,0.538448276 24.1961371,0.649655172 23.8677823,0.900086207 L14.7147823,8.11086207 L5.36189516,0.19362069 L-0.000217741935,6.39922414 L8.14028226,13.2901724 L8.09455645,13.3259483 L8.09499194,13.3268103 C7.40344355,14.4906034 6.29078226,16.284569 6.29078226,16.284569 L8.70641129,18.9535345 C8.70641129,18.9535345 10.632121,18.0587069 11.8823952,17.509569 L11.8810887,17.5000862 L11.8828306,17.5018103 L12.4489597,16.9375862 L21.4643468,24.5690517 L26.8264597,18.3634483 Z" id="Fill-3" fill="#FFFFFF" mask="url(#mask-2)"></path>
            </g>
        </g>
    </g>
</svg>