<?xml version="1.0" encoding="UTF-8"?>
<svg width="40px" height="40px" viewBox="0 0 40 40" version="1.1" xmlns="http://www.w3.org/2000/svg" xmlns:xlink="http://www.w3.org/1999/xlink">
    <!-- Generator: Sketch 54.1 (76490) - https://sketchapp.com -->
    <title>Ico / Verdiep</title>
    <desc>Created with Sketch.</desc>
    <defs>
        <polygon id="path-1" points="0 0 30 0 30 30 0 30"></polygon>
    </defs>
    <g id="Ico-/-Verdiep" stroke="none" stroke-width="1" fill="none" fill-rule="evenodd">
        <g transform="translate(20.000000, 20.000000) rotate(-360.000000) translate(-20.000000, -20.000000) translate(5.000000, 5.000000)">
            <mask id="mask-2" fill="white">
                <use xlink:href="#path-1"></use>
            </mask>
            <g id="Clip-2"></g>
            <path d="M8.86004086,25.4549125 C8.74375146,23.5971444 8.5809463,20.9960751 8.55526573,20.5890524 C8.55720389,20.0686447 8.5809463,19.7410883 8.62746206,19.614136 C8.67446236,19.5831247 8.82854582,19.4978437 9.20309459,19.4111091 L9.28498171,19.3922117 C11.0908592,18.9750133 12.9582731,18.5442476 13.6632776,17.0004684 C13.9297741,16.4175537 14.1105072,15.4654111 13.4617093,14.2385283 C12.294939,12.0352753 11.966906,10.1091855 12.5827553,9.08581396 C12.9834691,8.42004103 13.7189996,8.28000581 14.2660443,8.28000581 C14.8126045,8.28000581 15.5486195,8.42004103 15.9488488,9.08581396 C16.5651826,10.1091855 16.2366651,12.0352753 15.0703793,14.2385283 C14.4210968,15.4654111 14.6023145,16.4175537 14.8683265,17.0004684 C15.5738155,18.5442476 17.4407449,18.9750133 19.2466224,19.3922117 L19.3285095,19.4111091 C19.7035428,19.4978437 19.8576262,19.5831247 19.904142,19.614136 C19.9506578,19.7410883 19.9748847,20.0686447 19.9763383,20.5890524 C19.9511423,20.9960751 19.7878526,23.5971444 19.6715632,25.4549125 C18.0071712,26.2607207 16.1697987,26.6880946 14.2660443,26.6880946 C12.3622899,26.6880946 10.5244329,26.2607207 8.86004086,25.4549125 L8.86004086,25.4549125 Z M1.84391378,14.2656631 C1.84391378,10.9479431 3.13617973,7.82840437 5.48231836,5.48172436 C7.82845699,3.13552889 10.9479201,1.84323163 14.2660443,1.84323163 C17.5841685,1.84323163 20.7036316,3.13552889 23.0497702,5.48172436 C25.3959089,7.82840437 26.6881748,10.9479431 26.6881748,14.2656631 C26.6881748,17.5838677 25.3959089,20.7034064 23.0497702,23.0500864 C22.5468186,23.5525657 22.0065574,24.0036826 21.438193,24.407798 C21.5510906,22.584433 21.6717409,20.6408993 21.6717409,20.6408993 C21.6717409,19.0835527 21.5491525,18.1847108 19.7103263,17.7597597 C17.5880448,17.2693941 15.6120941,16.8395975 16.5685744,15.0312535 C19.4816239,9.52820894 17.3404453,6.58553131 14.2660443,6.58504676 C11.1916433,6.58553131 9.05046475,9.52820894 11.9630297,15.0312535 C12.9199945,16.8395975 10.9435593,17.2693941 8.82176227,17.7597597 C6.98245161,18.1847108 6.86034774,19.0835527 6.86034774,20.6408993 C6.86034774,20.6408993 6.98051345,22.584433 7.09341107,24.407798 C6.52504664,24.0036826 5.98478547,23.5525657 5.48231836,23.0500864 C3.13617973,20.7034064 1.84391378,17.5838677 1.84391378,14.2656631 L1.84391378,14.2656631 Z M30,26.44485 L25.9715414,22.4162938 C29.8541537,16.8536495 29.3177689,9.14250642 24.3531806,4.17828243 C21.5680495,1.39259929 17.9165624,0 14.2660443,0 C10.6150417,0 6.96403912,1.39259929 4.17842347,4.17828243 C-1.39280782,9.7496487 -1.39280782,18.7821621 4.17842347,24.3535283 C6.96403912,27.1392115 10.6150417,28.5318108 14.2660443,28.5318108 C17.1214336,28.5318108 19.9748847,27.6756093 22.4164776,25.9719284 L26.4444516,30 L30,26.44485 Z" id="Fill-1" fill="#FFFFFF" mask="url(#mask-2)"></path>
        </g>
    </g>
</svg>